<svg width="53" height="65" viewBox="0 0 53 65" fill="none" xmlns="http://www.w3.org/2000/svg">
<path d="M43.8618 14.1319C43.5019 14.1342 43.1425 14.1589 42.7858 14.2059C42.9717 13.0895 42.8676 11.9441 42.4832 10.8797C42.0989 9.81526 41.4473 8.86753 40.591 8.12754C39.7347 7.38756 38.7026 6.88019 37.5936 6.65416C36.4847 6.42814 35.3363 6.49105 34.2588 6.83686C33.9514 4.9294 32.9749 3.19372 31.504 1.94089C30.0332 0.688069 28.1643 0 26.2323 0C24.3002 0 22.4313 0.688069 20.9605 1.94089C19.4896 3.19372 18.5131 4.9294 18.2058 6.83686C17.1279 6.48469 15.9772 6.4171 14.8655 6.64066C13.7538 6.86421 12.7187 7.37132 11.8608 8.11278C11.0028 8.85424 10.351 9.80488 9.96871 10.8725C9.58639 11.94 9.48651 13.0883 9.67875 14.2059C8.47135 14.0532 7.24531 14.1586 6.08164 14.5149C4.91798 14.8713 3.84321 15.4706 2.92837 16.2732C2.01353 17.0758 1.27945 18.0635 0.774666 19.1708C0.269877 20.2782 0.00587028 21.4801 9.67856e-05 22.6971C-0.00567671 23.9141 0.246914 25.1185 0.741174 26.2306C1.23543 27.3427 1.96011 28.3373 2.86729 29.1486C3.77447 29.9598 4.84351 30.5693 6.00374 30.9367C7.16397 31.3041 8.38896 31.4211 9.59775 31.2799C9.59775 31.3739 9.58375 31.4659 9.58375 31.5609C9.58163 32.6929 9.87068 33.8064 10.4231 34.7944C10.9756 35.7824 11.7729 36.6117 12.7384 37.2026C13.7039 37.7936 14.8052 38.1262 15.9364 38.1686C17.0676 38.211 18.1907 37.9618 19.1978 37.4449C20.7068 38.8369 21.7138 40.7859 21.7138 45.5379C21.7138 53.0229 16.1938 60.3299 16.1938 60.3299H21.7138C21.7138 60.3299 26.1688 64.0109 30.8028 64.1299C35.4368 64.2489 29.5548 60.3829 31.5158 60.3299H36.2728C36.2728 60.3299 30.7528 53.0229 30.7528 45.5379C30.7528 40.7859 31.7598 38.8379 33.2688 37.4449C34.2758 37.9616 35.3988 38.2106 36.5298 38.1681C37.6609 38.1255 38.762 37.7929 39.7273 37.202C40.6927 36.6111 41.4899 35.7818 42.0423 34.794C42.5947 33.8061 42.8838 32.6927 42.8818 31.5609C42.8818 31.4609 42.8718 31.3739 42.8678 31.2799C44.0277 31.4078 45.2015 31.2983 46.3177 30.9582C47.434 30.618 48.4693 30.0542 49.3607 29.3011C50.2521 28.548 50.9809 27.6214 51.5028 26.5776C52.0246 25.5339 52.3286 24.3949 52.3962 23.2299C52.4638 22.0649 52.2936 20.8984 51.8959 19.8013C51.4983 18.7042 50.8816 17.6995 50.0832 16.8483C49.2849 15.9972 48.3218 15.3174 47.2523 14.8504C46.1829 14.3834 45.0297 14.1389 43.8628 14.1319H43.8618ZM26.2318 39.6559C24.758 38.1531 23.1684 36.7686 21.4778 35.5149C21.9 34.9531 22.2298 34.3276 22.4548 33.6619C24.8856 34.6005 27.5789 34.6005 30.0098 33.6619C30.2126 34.256 30.4995 34.8181 30.8618 35.3309C29.0976 36.5164 27.5346 37.9765 26.2318 39.6559Z" fill="#A9CF46"/>
</svg>
