<svg width="44" height="66" viewBox="0 0 44 66" fill="none" xmlns="http://www.w3.org/2000/svg">
<path d="M22.1449 48.6033C19.0022 48.6033 15.8595 48.6028 12.7167 48.6018C11.2037 48.5991 10.7831 48.257 10.5921 46.7428C10.0286 42.277 8.20274 38.4251 5.40588 34.8883C0.28679 28.4131 -0.826625 21.1156 2.24386 13.4936C5.34365 5.79829 11.2766 1.28337 19.5192 0.18521C31.1089 -1.35778 41.7943 6.91558 43.3727 18.4636C44.1718 24.3028 42.875 29.651 39.2914 34.3398C36.3745 38.1568 34.289 42.2901 33.6299 47.091C33.4735 48.2291 32.9785 48.5945 31.7552 48.5991C28.5522 48.6108 25.349 48.603 22.1449 48.6033ZM19.0415 26.4948C19.0093 26.8432 18.9848 27.1387 18.9543 27.4331C18.7463 29.443 18.5426 31.4528 18.3247 33.4615C18.2378 34.2606 18.4032 34.9321 19.2466 35.2011C20.0568 35.4595 20.5445 34.9711 20.9588 34.356C23.6548 30.3542 26.352 26.3535 29.0506 22.354C29.8596 21.1507 29.5501 20.3015 28.1704 19.9082C27.0172 19.5787 25.8573 19.2721 24.6536 18.9423C24.6865 18.4122 24.7085 17.9342 24.747 17.4574C24.8952 15.6235 25.0468 13.79 25.2018 11.9567C25.2674 11.1968 25.1088 10.5418 24.3044 10.2883C23.5159 10.0398 22.999 10.437 22.5907 11.1021C20.1149 15.1345 17.6183 19.1554 15.1382 23.1872C14.4251 24.3467 14.7157 25.1194 16 25.5361C16.9965 25.8603 17.9985 26.1659 19.0424 26.4936L19.0415 26.4948Z" fill="#08ACF2"/>
<path d="M31.1987 51.9104C31.3273 51.9102 31.4546 51.9361 31.5729 51.9864C31.6913 52.0368 31.7982 52.1105 31.8872 52.2033C31.9763 52.2961 32.0456 52.4059 32.0911 52.5262C32.1366 52.6465 32.1572 52.7747 32.1518 52.9032C32.0707 54.8538 31.8181 58.4882 31.5222 59.3728C30.1792 63.4 26.1624 66.117 21.9524 65.9959C19.8437 65.9558 17.8012 65.2528 16.1146 63.9865C14.428 62.7202 13.183 60.955 12.5561 58.9413C12.4656 58.6507 12.1784 54.9153 12.0793 52.9117C12.0728 52.7826 12.0926 52.6535 12.1376 52.5323C12.1825 52.4111 12.2516 52.3003 12.3407 52.2066C12.4298 52.113 12.5369 52.0384 12.6557 51.9874C12.7745 51.9364 12.9025 51.9102 13.0317 51.9102L31.1987 51.9104Z" fill="#08ACF2"/>
</svg>
