<svg width="198" height="37" viewBox="0 0 198 37" fill="none" xmlns="http://www.w3.org/2000/svg">
<path d="M58.84 25.18C57.4533 25.18 56.2667 24.8867 55.28 24.3C54.2933 23.7133 53.5333 22.88 53 21.8C52.48 20.72 52.22 19.4333 52.22 17.94C52.22 16.46 52.48 15.18 53 14.1C53.5333 13.02 54.2933 12.1867 55.28 11.6C56.2667 11.0133 57.4533 10.72 58.84 10.72C59.8133 10.72 60.7067 10.8733 61.52 11.18C62.3467 11.4867 63.0467 11.9333 63.62 12.52L62.98 13.86C62.3667 13.2867 61.7267 12.8733 61.06 12.62C60.4067 12.3533 59.68 12.22 58.88 12.22C57.2933 12.22 56.08 12.72 55.24 13.72C54.4 14.72 53.98 16.1267 53.98 17.94C53.98 19.7667 54.4 21.18 55.24 22.18C56.08 23.18 57.2933 23.68 58.88 23.68C59.68 23.68 60.4067 23.5533 61.06 23.3C61.7267 23.0333 62.3667 22.6133 62.98 22.04L63.62 23.38C63.0467 23.9533 62.3467 24.4 61.52 24.72C60.7067 25.0267 59.8133 25.18 58.84 25.18ZM68.7245 25.18C68.0579 25.18 67.4579 25.0533 66.9245 24.8C66.4045 24.5333 65.9912 24.1733 65.6845 23.72C65.3779 23.2667 65.2245 22.76 65.2245 22.2C65.2245 21.4933 65.4045 20.9333 65.7645 20.52C66.1379 20.1067 66.7445 19.8133 67.5845 19.64C68.4379 19.4533 69.5979 19.36 71.0645 19.36H71.7045V18.74C71.7045 17.9133 71.5312 17.32 71.1845 16.96C70.8512 16.5867 70.3112 16.4 69.5645 16.4C68.9779 16.4 68.4112 16.4867 67.8645 16.66C67.3179 16.82 66.7579 17.0867 66.1845 17.46L65.6245 16.28C66.1312 15.92 66.7445 15.6333 67.4645 15.42C68.1979 15.2067 68.8979 15.1 69.5645 15.1C70.8179 15.1 71.7445 15.4067 72.3445 16.02C72.9579 16.6333 73.2645 17.5867 73.2645 18.88V25H71.7445V23.32C71.4912 23.8933 71.0979 24.3467 70.5645 24.68C70.0445 25.0133 69.4312 25.18 68.7245 25.18ZM68.9845 23.96C69.7845 23.96 70.4379 23.6867 70.9445 23.14C71.4512 22.58 71.7045 21.8733 71.7045 21.02V20.42H71.0845C70.0045 20.42 69.1512 20.4733 68.5245 20.58C67.9112 20.6733 67.4779 20.8467 67.2245 21.1C66.9845 21.34 66.8645 21.6733 66.8645 22.1C66.8645 22.6467 67.0512 23.0933 67.4245 23.44C67.8112 23.7867 68.3312 23.96 68.9845 23.96ZM76.31 25V15.28H77.89V16.92C78.1833 16.3333 78.59 15.8867 79.11 15.58C79.63 15.26 80.2367 15.1 80.93 15.1C82.45 15.1 83.4233 15.76 83.85 17.08C84.1433 16.4667 84.5767 15.9867 85.15 15.64C85.7233 15.28 86.3833 15.1 87.13 15.1C89.29 15.1 90.37 16.38 90.37 18.94V25H88.75V19.02C88.75 18.1267 88.59 17.4733 88.27 17.06C87.9633 16.6333 87.45 16.42 86.73 16.42C85.9433 16.42 85.3167 16.7 84.85 17.26C84.3833 17.82 84.15 18.5667 84.15 19.5V25H82.53V19.02C82.53 18.1267 82.37 17.4733 82.05 17.06C81.7433 16.6333 81.23 16.42 80.51 16.42C79.71 16.42 79.0767 16.7 78.61 17.26C78.1567 17.82 77.93 18.5667 77.93 19.5V25H76.31ZM98.3189 25.18C97.5456 25.18 96.8656 25.0067 96.2789 24.66C95.7056 24.3133 95.2722 23.84 94.9789 23.24V25H93.3989V10.9H95.0189V16.96C95.2989 16.3867 95.7322 15.9333 96.3189 15.6C96.9056 15.2667 97.5722 15.1 98.3189 15.1C99.1856 15.1 99.9389 15.3067 100.579 15.72C101.232 16.12 101.732 16.7 102.079 17.46C102.439 18.2067 102.619 19.1 102.619 20.14C102.619 21.1667 102.439 22.06 102.079 22.82C101.732 23.5667 101.232 24.1467 100.579 24.56C99.9389 24.9733 99.1856 25.18 98.3189 25.18ZM97.9789 23.88C98.8856 23.88 99.6122 23.56 100.159 22.92C100.706 22.2667 100.979 21.34 100.979 20.14C100.979 18.9267 100.706 18 100.159 17.36C99.6122 16.72 98.8856 16.4 97.9789 16.4C97.0722 16.4 96.3456 16.72 95.7989 17.36C95.2522 18 94.9789 18.9267 94.9789 20.14C94.9789 21.34 95.2522 22.2667 95.7989 22.92C96.3456 23.56 97.0722 23.88 97.9789 23.88ZM104.859 12.86V11.04H106.859V12.86H104.859ZM105.059 25V15.28H106.679V25H105.059ZM112.768 25.18C112.101 25.18 111.501 25.0533 110.968 24.8C110.448 24.5333 110.034 24.1733 109.728 23.72C109.421 23.2667 109.268 22.76 109.268 22.2C109.268 21.4933 109.448 20.9333 109.808 20.52C110.181 20.1067 110.788 19.8133 111.628 19.64C112.481 19.4533 113.641 19.36 115.108 19.36H115.748V18.74C115.748 17.9133 115.574 17.32 115.228 16.96C114.894 16.5867 114.354 16.4 113.608 16.4C113.021 16.4 112.454 16.4867 111.908 16.66C111.361 16.82 110.801 17.0867 110.228 17.46L109.668 16.28C110.174 15.92 110.788 15.6333 111.508 15.42C112.241 15.2067 112.941 15.1 113.608 15.1C114.861 15.1 115.788 15.4067 116.388 16.02C117.001 16.6333 117.308 17.5867 117.308 18.88V25H115.788V23.32C115.534 23.8933 115.141 24.3467 114.608 24.68C114.088 25.0133 113.474 25.18 112.768 25.18ZM113.028 23.96C113.828 23.96 114.481 23.6867 114.988 23.14C115.494 22.58 115.748 21.8733 115.748 21.02V20.42H115.128C114.048 20.42 113.194 20.4733 112.568 20.58C111.954 20.6733 111.521 20.8467 111.268 21.1C111.028 21.34 110.908 21.6733 110.908 22.1C110.908 22.6467 111.094 23.0933 111.468 23.44C111.854 23.7867 112.374 23.96 113.028 23.96ZM120.313 25V15.28H121.893V17.02C122.413 15.8467 123.48 15.2 125.093 15.08L125.673 15.02L125.793 16.42L124.773 16.54C123.853 16.62 123.153 16.9133 122.673 17.42C122.193 17.9133 121.953 18.5933 121.953 19.46V25H120.313ZM132.418 12.86V11.04H134.418V12.86H132.418ZM132.618 25V15.28H134.238V25H132.618ZM137.306 25V15.28H138.886V16.92C139.179 16.3333 139.586 15.8867 140.106 15.58C140.626 15.26 141.233 15.1 141.926 15.1C143.446 15.1 144.419 15.76 144.846 17.08C145.139 16.4667 145.573 15.9867 146.146 15.64C146.719 15.28 147.379 15.1 148.126 15.1C150.286 15.1 151.366 16.38 151.366 18.94V25H149.746V19.02C149.746 18.1267 149.586 17.4733 149.266 17.06C148.959 16.6333 148.446 16.42 147.726 16.42C146.939 16.42 146.313 16.7 145.846 17.26C145.379 17.82 145.146 18.5667 145.146 19.5V25H143.526V19.02C143.526 18.1267 143.366 17.4733 143.046 17.06C142.739 16.6333 142.226 16.42 141.506 16.42C140.706 16.42 140.073 16.7 139.606 17.26C139.153 17.82 138.926 18.5667 138.926 19.5V25H137.306ZM157.455 25.18C156.788 25.18 156.188 25.0533 155.655 24.8C155.135 24.5333 154.722 24.1733 154.415 23.72C154.108 23.2667 153.955 22.76 153.955 22.2C153.955 21.4933 154.135 20.9333 154.495 20.52C154.868 20.1067 155.475 19.8133 156.315 19.64C157.168 19.4533 158.328 19.36 159.795 19.36H160.435V18.74C160.435 17.9133 160.262 17.32 159.915 16.96C159.582 16.5867 159.042 16.4 158.295 16.4C157.708 16.4 157.142 16.4867 156.595 16.66C156.048 16.82 155.488 17.0867 154.915 17.46L154.355 16.28C154.862 15.92 155.475 15.6333 156.195 15.42C156.928 15.2067 157.628 15.1 158.295 15.1C159.548 15.1 160.475 15.4067 161.075 16.02C161.688 16.6333 161.995 17.5867 161.995 18.88V25H160.475V23.32C160.222 23.8933 159.828 24.3467 159.295 24.68C158.775 25.0133 158.162 25.18 157.455 25.18ZM157.715 23.96C158.515 23.96 159.168 23.6867 159.675 23.14C160.182 22.58 160.435 21.8733 160.435 21.02V20.42H159.815C158.735 20.42 157.882 20.4733 157.255 20.58C156.642 20.6733 156.208 20.8467 155.955 21.1C155.715 21.34 155.595 21.6733 155.595 22.1C155.595 22.6467 155.782 23.0933 156.155 23.44C156.542 23.7867 157.062 23.96 157.715 23.96ZM169.3 28.78C168.46 28.78 167.667 28.6667 166.92 28.44C166.187 28.2267 165.534 27.9 164.96 27.46L165.5 26.28C166.1 26.7067 166.694 27.0133 167.28 27.2C167.88 27.3867 168.527 27.48 169.22 27.48C171.14 27.48 172.1 26.4933 172.1 24.52V22.8C171.82 23.4133 171.38 23.9 170.78 24.26C170.194 24.6067 169.52 24.78 168.76 24.78C167.867 24.78 167.094 24.5733 166.44 24.16C165.787 23.7467 165.28 23.18 164.92 22.46C164.574 21.7267 164.4 20.88 164.4 19.92C164.4 18.96 164.574 18.12 164.92 17.4C165.28 16.6667 165.787 16.1 166.44 15.7C167.094 15.3 167.867 15.1 168.76 15.1C169.52 15.1 170.194 15.2733 170.78 15.62C171.38 15.9667 171.82 16.44 172.1 17.04V15.28H173.68V24.3C173.68 25.7933 173.307 26.9133 172.56 27.66C171.827 28.4067 170.74 28.78 169.3 28.78ZM169.06 23.46C169.994 23.46 170.734 23.14 171.28 22.5C171.827 21.86 172.1 21 172.1 19.92C172.1 18.84 171.827 17.9867 171.28 17.36C170.734 16.72 169.994 16.4 169.06 16.4C168.14 16.4 167.407 16.72 166.86 17.36C166.314 17.9867 166.04 18.84 166.04 19.92C166.04 21 166.314 21.86 166.86 22.5C167.407 23.14 168.14 23.46 169.06 23.46ZM181.099 25.18C179.566 25.18 178.353 24.7333 177.459 23.84C176.566 22.9333 176.119 21.7067 176.119 20.16C176.119 19.16 176.319 18.28 176.719 17.52C177.119 16.7467 177.666 16.1533 178.359 15.74C179.066 15.3133 179.879 15.1 180.799 15.1C182.119 15.1 183.153 15.5267 183.899 16.38C184.646 17.22 185.019 18.38 185.019 19.86V20.48H177.699C177.753 21.5867 178.073 22.4333 178.659 23.02C179.246 23.5933 180.059 23.88 181.099 23.88C181.686 23.88 182.246 23.7933 182.779 23.62C183.313 23.4333 183.819 23.1333 184.299 22.72L184.859 23.86C184.419 24.2733 183.859 24.6 183.179 24.84C182.499 25.0667 181.806 25.18 181.099 25.18ZM180.839 16.3C179.919 16.3 179.193 16.5867 178.659 17.16C178.126 17.7333 177.813 18.4867 177.719 19.42H183.619C183.579 18.4333 183.319 17.6667 182.839 17.12C182.373 16.5733 181.706 16.3 180.839 16.3ZM187.364 25V15.28H188.944V16.94C189.264 16.3267 189.717 15.8667 190.304 15.56C190.89 15.2533 191.55 15.1 192.284 15.1C194.59 15.1 195.744 16.38 195.744 18.94V25H194.124V19.04C194.124 18.1333 193.944 17.4733 193.584 17.06C193.237 16.6333 192.677 16.42 191.904 16.42C191.01 16.42 190.297 16.7 189.764 17.26C189.244 17.8067 188.984 18.54 188.984 19.46V25H187.364Z" fill="#32AC5E"/>
<rect width="37" height="37" rx="7" fill="#32AC5E"/>
<path d="M13.9582 31.5628H8.51135C7.73332 31.5619 6.98742 31.2524 6.43727 30.7022C5.88712 30.1521 5.57765 29.4062 5.57674 28.6281V23.8792C5.57674 23.6515 5.66718 23.4332 5.82817 23.2722C5.98916 23.1112 6.20751 23.0208 6.43519 23.0208C6.66286 23.0208 6.88121 23.1112 7.0422 23.2722C7.20319 23.4332 7.29364 23.6515 7.29364 23.8792V28.6281C7.29409 28.951 7.42253 29.2604 7.6508 29.4887C7.87906 29.717 8.18853 29.8454 8.51135 29.8459H13.9582C14.1859 29.8459 14.4042 29.9363 14.5652 30.0973C14.7262 30.2583 14.8167 30.4766 14.8167 30.7043C14.8167 30.932 14.7262 31.1503 14.5652 31.3113C14.4042 31.4723 14.1859 31.5628 13.9582 31.5628Z" fill="white"/>
<path d="M6.43519 15.5492C6.20751 15.5492 5.98916 15.4588 5.82817 15.2978C5.66718 15.1368 5.57674 14.9185 5.57674 14.6908V8.50996C5.57765 7.73193 5.88712 6.98603 6.43727 6.43588C6.98742 5.88573 7.73332 5.57626 8.51135 5.57535H13.9582C14.1859 5.57535 14.4042 5.66579 14.5652 5.82678C14.7262 5.98777 14.8167 6.20612 14.8167 6.4338C14.8167 6.66147 14.7262 6.87982 14.5652 7.04081C14.4042 7.2018 14.1859 7.29225 13.9582 7.29225H8.51135C8.1885 7.29259 7.87896 7.42099 7.65067 7.64928C7.42238 7.87758 7.29398 8.18711 7.29364 8.50996V14.6908C7.29364 14.9185 7.20319 15.1368 7.0422 15.2978C6.88121 15.4588 6.66286 15.5492 6.43519 15.5492V15.5492Z" fill="white"/>
<path d="M30.6695 15.5492C30.4418 15.5492 30.2235 15.4588 30.0625 15.2978C29.9015 15.1368 29.8111 14.9185 29.8111 14.6908V8.50996C29.8108 8.18715 29.6825 7.87761 29.4543 7.64931C29.2261 7.42101 28.9166 7.29259 28.5938 7.29225H23.1469C22.9192 7.29225 22.7009 7.2018 22.5399 7.04081C22.3789 6.87982 22.2885 6.66147 22.2885 6.4338C22.2885 6.20612 22.3789 5.98777 22.5399 5.82678C22.7009 5.66579 22.9192 5.57535 23.1469 5.57535H28.5938C29.3718 5.57626 30.1176 5.88574 30.6677 6.43591C31.2178 6.98607 31.5272 7.73197 31.528 8.50996V14.6908C31.528 14.9185 31.4375 15.1368 31.2765 15.2978C31.1155 15.4588 30.8972 15.5492 30.6695 15.5492V15.5492Z" fill="white"/>
<path d="M28.5938 31.5628H23.1469C22.9192 31.5628 22.7009 31.4723 22.5399 31.3113C22.3789 31.1503 22.2885 30.932 22.2885 30.7043C22.2885 30.4766 22.3789 30.2583 22.5399 30.0973C22.7009 29.9363 22.9192 29.8459 23.1469 29.8459H28.5938C28.9166 29.8454 29.226 29.717 29.4542 29.4887C29.6824 29.2604 29.8107 28.9509 29.8111 28.6281V23.8792C29.8111 23.6515 29.9015 23.4332 30.0625 23.2722C30.2235 23.1112 30.4418 23.0208 30.6695 23.0208C30.8972 23.0208 31.1155 23.1112 31.2765 23.2722C31.4375 23.4332 31.528 23.6515 31.528 23.8792V28.6281C31.5272 29.4061 31.2178 30.152 30.6677 30.7022C30.1176 31.2524 29.3718 31.5619 28.5938 31.5628V31.5628Z" fill="white"/>
<path d="M10 21L16 15L19 18M22 21L19 18M19 18L22 15L27.5 20.5" stroke="white" stroke-width="2" stroke-linecap="round" stroke-linejoin="round"/>
</svg>
