<svg width="232" height="59" viewBox="0 0 232 59" fill="none" xmlns="http://www.w3.org/2000/svg">
<path d="M84.84 25.18C83.4533 25.18 82.2667 24.8867 81.28 24.3C80.2933 23.7133 79.5333 22.88 79 21.8C78.48 20.72 78.22 19.4333 78.22 17.94C78.22 16.46 78.48 15.18 79 14.1C79.5333 13.02 80.2933 12.1867 81.28 11.6C82.2667 11.0133 83.4533 10.72 84.84 10.72C85.8133 10.72 86.7067 10.8733 87.52 11.18C88.3467 11.4867 89.0467 11.9333 89.62 12.52L88.98 13.86C88.3667 13.2867 87.7267 12.8733 87.06 12.62C86.4067 12.3533 85.68 12.22 84.88 12.22C83.2933 12.22 82.08 12.72 81.24 13.72C80.4 14.72 79.98 16.1267 79.98 17.94C79.98 19.7667 80.4 21.18 81.24 22.18C82.08 23.18 83.2933 23.68 84.88 23.68C85.68 23.68 86.4067 23.5533 87.06 23.3C87.7267 23.0333 88.3667 22.6133 88.98 22.04L89.62 23.38C89.0467 23.9533 88.3467 24.4 87.52 24.72C86.7067 25.0267 85.8133 25.18 84.84 25.18ZM94.7245 25.18C94.0579 25.18 93.4579 25.0533 92.9245 24.8C92.4045 24.5333 91.9912 24.1733 91.6845 23.72C91.3779 23.2667 91.2245 22.76 91.2245 22.2C91.2245 21.4933 91.4045 20.9333 91.7645 20.52C92.1379 20.1067 92.7445 19.8133 93.5845 19.64C94.4379 19.4533 95.5979 19.36 97.0645 19.36H97.7045V18.74C97.7045 17.9133 97.5312 17.32 97.1845 16.96C96.8512 16.5867 96.3112 16.4 95.5645 16.4C94.9779 16.4 94.4112 16.4867 93.8645 16.66C93.3179 16.82 92.7579 17.0867 92.1845 17.46L91.6245 16.28C92.1312 15.92 92.7445 15.6333 93.4645 15.42C94.1979 15.2067 94.8979 15.1 95.5645 15.1C96.8179 15.1 97.7445 15.4067 98.3445 16.02C98.9579 16.6333 99.2645 17.5867 99.2645 18.88V25H97.7445V23.32C97.4912 23.8933 97.0979 24.3467 96.5645 24.68C96.0445 25.0133 95.4312 25.18 94.7245 25.18ZM94.9845 23.96C95.7845 23.96 96.4379 23.6867 96.9445 23.14C97.4512 22.58 97.7045 21.8733 97.7045 21.02V20.42H97.0845C96.0045 20.42 95.1512 20.4733 94.5245 20.58C93.9112 20.6733 93.4779 20.8467 93.2245 21.1C92.9845 21.34 92.8645 21.6733 92.8645 22.1C92.8645 22.6467 93.0512 23.0933 93.4245 23.44C93.8112 23.7867 94.3312 23.96 94.9845 23.96ZM102.31 25V15.28H103.89V16.92C104.183 16.3333 104.59 15.8867 105.11 15.58C105.63 15.26 106.237 15.1 106.93 15.1C108.45 15.1 109.423 15.76 109.85 17.08C110.143 16.4667 110.577 15.9867 111.15 15.64C111.723 15.28 112.383 15.1 113.13 15.1C115.29 15.1 116.37 16.38 116.37 18.94V25H114.75V19.02C114.75 18.1267 114.59 17.4733 114.27 17.06C113.963 16.6333 113.45 16.42 112.73 16.42C111.943 16.42 111.317 16.7 110.85 17.26C110.383 17.82 110.15 18.5667 110.15 19.5V25H108.53V19.02C108.53 18.1267 108.37 17.4733 108.05 17.06C107.743 16.6333 107.23 16.42 106.51 16.42C105.71 16.42 105.077 16.7 104.61 17.26C104.157 17.82 103.93 18.5667 103.93 19.5V25H102.31ZM124.319 25.18C123.546 25.18 122.866 25.0067 122.279 24.66C121.706 24.3133 121.272 23.84 120.979 23.24V25H119.399V10.9H121.019V16.96C121.299 16.3867 121.732 15.9333 122.319 15.6C122.906 15.2667 123.572 15.1 124.319 15.1C125.186 15.1 125.939 15.3067 126.579 15.72C127.232 16.12 127.732 16.7 128.079 17.46C128.439 18.2067 128.619 19.1 128.619 20.14C128.619 21.1667 128.439 22.06 128.079 22.82C127.732 23.5667 127.232 24.1467 126.579 24.56C125.939 24.9733 125.186 25.18 124.319 25.18ZM123.979 23.88C124.886 23.88 125.612 23.56 126.159 22.92C126.706 22.2667 126.979 21.34 126.979 20.14C126.979 18.9267 126.706 18 126.159 17.36C125.612 16.72 124.886 16.4 123.979 16.4C123.072 16.4 122.346 16.72 121.799 17.36C121.252 18 120.979 18.9267 120.979 20.14C120.979 21.34 121.252 22.2667 121.799 22.92C122.346 23.56 123.072 23.88 123.979 23.88ZM130.859 12.86V11.04H132.859V12.86H130.859ZM131.059 25V15.28H132.679V25H131.059ZM138.768 25.18C138.101 25.18 137.501 25.0533 136.968 24.8C136.448 24.5333 136.034 24.1733 135.728 23.72C135.421 23.2667 135.268 22.76 135.268 22.2C135.268 21.4933 135.448 20.9333 135.808 20.52C136.181 20.1067 136.788 19.8133 137.628 19.64C138.481 19.4533 139.641 19.36 141.108 19.36H141.748V18.74C141.748 17.9133 141.574 17.32 141.228 16.96C140.894 16.5867 140.354 16.4 139.608 16.4C139.021 16.4 138.454 16.4867 137.908 16.66C137.361 16.82 136.801 17.0867 136.228 17.46L135.668 16.28C136.174 15.92 136.788 15.6333 137.508 15.42C138.241 15.2067 138.941 15.1 139.608 15.1C140.861 15.1 141.788 15.4067 142.388 16.02C143.001 16.6333 143.308 17.5867 143.308 18.88V25H141.788V23.32C141.534 23.8933 141.141 24.3467 140.608 24.68C140.088 25.0133 139.474 25.18 138.768 25.18ZM139.028 23.96C139.828 23.96 140.481 23.6867 140.988 23.14C141.494 22.58 141.748 21.8733 141.748 21.02V20.42H141.128C140.048 20.42 139.194 20.4733 138.568 20.58C137.954 20.6733 137.521 20.8467 137.268 21.1C137.028 21.34 136.908 21.6733 136.908 22.1C136.908 22.6467 137.094 23.0933 137.468 23.44C137.854 23.7867 138.374 23.96 139.028 23.96ZM146.313 25V15.28H147.893V17.02C148.413 15.8467 149.48 15.2 151.093 15.08L151.673 15.02L151.793 16.42L150.773 16.54C149.853 16.62 149.153 16.9133 148.673 17.42C148.193 17.9133 147.953 18.5933 147.953 19.46V25H146.313ZM158.418 12.86V11.04H160.418V12.86H158.418ZM158.618 25V15.28H160.238V25H158.618ZM163.306 25V15.28H164.886V16.92C165.179 16.3333 165.586 15.8867 166.106 15.58C166.626 15.26 167.233 15.1 167.926 15.1C169.446 15.1 170.419 15.76 170.846 17.08C171.139 16.4667 171.573 15.9867 172.146 15.64C172.719 15.28 173.379 15.1 174.126 15.1C176.286 15.1 177.366 16.38 177.366 18.94V25H175.746V19.02C175.746 18.1267 175.586 17.4733 175.266 17.06C174.959 16.6333 174.446 16.42 173.726 16.42C172.939 16.42 172.313 16.7 171.846 17.26C171.379 17.82 171.146 18.5667 171.146 19.5V25H169.526V19.02C169.526 18.1267 169.366 17.4733 169.046 17.06C168.739 16.6333 168.226 16.42 167.506 16.42C166.706 16.42 166.073 16.7 165.606 17.26C165.153 17.82 164.926 18.5667 164.926 19.5V25H163.306ZM183.455 25.18C182.788 25.18 182.188 25.0533 181.655 24.8C181.135 24.5333 180.722 24.1733 180.415 23.72C180.108 23.2667 179.955 22.76 179.955 22.2C179.955 21.4933 180.135 20.9333 180.495 20.52C180.868 20.1067 181.475 19.8133 182.315 19.64C183.168 19.4533 184.328 19.36 185.795 19.36H186.435V18.74C186.435 17.9133 186.262 17.32 185.915 16.96C185.582 16.5867 185.042 16.4 184.295 16.4C183.708 16.4 183.142 16.4867 182.595 16.66C182.048 16.82 181.488 17.0867 180.915 17.46L180.355 16.28C180.862 15.92 181.475 15.6333 182.195 15.42C182.928 15.2067 183.628 15.1 184.295 15.1C185.548 15.1 186.475 15.4067 187.075 16.02C187.688 16.6333 187.995 17.5867 187.995 18.88V25H186.475V23.32C186.222 23.8933 185.828 24.3467 185.295 24.68C184.775 25.0133 184.162 25.18 183.455 25.18ZM183.715 23.96C184.515 23.96 185.168 23.6867 185.675 23.14C186.182 22.58 186.435 21.8733 186.435 21.02V20.42H185.815C184.735 20.42 183.882 20.4733 183.255 20.58C182.642 20.6733 182.208 20.8467 181.955 21.1C181.715 21.34 181.595 21.6733 181.595 22.1C181.595 22.6467 181.782 23.0933 182.155 23.44C182.542 23.7867 183.062 23.96 183.715 23.96ZM195.3 28.78C194.46 28.78 193.667 28.6667 192.92 28.44C192.187 28.2267 191.534 27.9 190.96 27.46L191.5 26.28C192.1 26.7067 192.694 27.0133 193.28 27.2C193.88 27.3867 194.527 27.48 195.22 27.48C197.14 27.48 198.1 26.4933 198.1 24.52V22.8C197.82 23.4133 197.38 23.9 196.78 24.26C196.194 24.6067 195.52 24.78 194.76 24.78C193.867 24.78 193.094 24.5733 192.44 24.16C191.787 23.7467 191.28 23.18 190.92 22.46C190.574 21.7267 190.4 20.88 190.4 19.92C190.4 18.96 190.574 18.12 190.92 17.4C191.28 16.6667 191.787 16.1 192.44 15.7C193.094 15.3 193.867 15.1 194.76 15.1C195.52 15.1 196.194 15.2733 196.78 15.62C197.38 15.9667 197.82 16.44 198.1 17.04V15.28H199.68V24.3C199.68 25.7933 199.307 26.9133 198.56 27.66C197.827 28.4067 196.74 28.78 195.3 28.78ZM195.06 23.46C195.994 23.46 196.734 23.14 197.28 22.5C197.827 21.86 198.1 21 198.1 19.92C198.1 18.84 197.827 17.9867 197.28 17.36C196.734 16.72 195.994 16.4 195.06 16.4C194.14 16.4 193.407 16.72 192.86 17.36C192.314 17.9867 192.04 18.84 192.04 19.92C192.04 21 192.314 21.86 192.86 22.5C193.407 23.14 194.14 23.46 195.06 23.46ZM207.099 25.18C205.566 25.18 204.353 24.7333 203.459 23.84C202.566 22.9333 202.119 21.7067 202.119 20.16C202.119 19.16 202.319 18.28 202.719 17.52C203.119 16.7467 203.666 16.1533 204.359 15.74C205.066 15.3133 205.879 15.1 206.799 15.1C208.119 15.1 209.153 15.5267 209.899 16.38C210.646 17.22 211.019 18.38 211.019 19.86V20.48H203.699C203.753 21.5867 204.073 22.4333 204.659 23.02C205.246 23.5933 206.059 23.88 207.099 23.88C207.686 23.88 208.246 23.7933 208.779 23.62C209.313 23.4333 209.819 23.1333 210.299 22.72L210.859 23.86C210.419 24.2733 209.859 24.6 209.179 24.84C208.499 25.0667 207.806 25.18 207.099 25.18ZM206.839 16.3C205.919 16.3 205.193 16.5867 204.659 17.16C204.126 17.7333 203.813 18.4867 203.719 19.42H209.619C209.579 18.4333 209.319 17.6667 208.839 17.12C208.373 16.5733 207.706 16.3 206.839 16.3ZM213.364 25V15.28H214.944V16.94C215.264 16.3267 215.717 15.8667 216.304 15.56C216.89 15.2533 217.55 15.1 218.284 15.1C220.59 15.1 221.744 16.38 221.744 18.94V25H220.124V19.04C220.124 18.1333 219.944 17.4733 219.584 17.06C219.237 16.6333 218.677 16.42 217.904 16.42C217.01 16.42 216.297 16.7 215.764 17.26C215.244 17.8067 214.984 18.54 214.984 19.46V25H213.364ZM82.22 49.18C81.3533 49.18 80.5933 48.9733 79.94 48.56C79.3 48.1467 78.8 47.5667 78.44 46.82C78.0933 46.06 77.92 45.1667 77.92 44.14C77.92 43.1 78.0933 42.2067 78.44 41.46C78.8 40.7 79.3 40.12 79.94 39.72C80.5933 39.3067 81.3533 39.1 82.22 39.1C82.98 39.1 83.6467 39.2667 84.22 39.6C84.8067 39.9333 85.24 40.3933 85.52 40.98V34.9H87.14V49H85.56V47.22C85.28 47.8333 84.8467 48.3133 84.26 48.66C83.6733 49.0067 82.9933 49.18 82.22 49.18ZM82.56 47.88C83.4667 47.88 84.1933 47.56 84.74 46.92C85.2867 46.2667 85.56 45.34 85.56 44.14C85.56 42.9267 85.2867 42 84.74 41.36C84.1933 40.72 83.4667 40.4 82.56 40.4C81.64 40.4 80.9067 40.72 80.36 41.36C79.8267 42 79.56 42.9267 79.56 44.14C79.56 45.34 79.8267 46.2667 80.36 46.92C80.9067 47.56 81.64 47.88 82.56 47.88ZM94.5602 49.18C93.0268 49.18 91.8135 48.7333 90.9202 47.84C90.0268 46.9333 89.5802 45.7067 89.5802 44.16C89.5802 43.16 89.7802 42.28 90.1802 41.52C90.5802 40.7467 91.1268 40.1533 91.8202 39.74C92.5268 39.3133 93.3402 39.1 94.2602 39.1C95.5802 39.1 96.6135 39.5267 97.3602 40.38C98.1068 41.22 98.4802 42.38 98.4802 43.86V44.48H91.1602C91.2135 45.5867 91.5335 46.4333 92.1202 47.02C92.7068 47.5933 93.5202 47.88 94.5602 47.88C95.1468 47.88 95.7068 47.7933 96.2402 47.62C96.7735 47.4333 97.2802 47.1333 97.7602 46.72L98.3202 47.86C97.8802 48.2733 97.3202 48.6 96.6402 48.84C95.9602 49.0667 95.2668 49.18 94.5602 49.18ZM94.3002 40.3C93.3802 40.3 92.6535 40.5867 92.1202 41.16C91.5868 41.7333 91.2735 42.4867 91.1802 43.42H97.0802C97.0402 42.4333 96.7802 41.6667 96.3002 41.12C95.8335 40.5733 95.1668 40.3 94.3002 40.3ZM106.001 49V39.28H107.581V40.92C107.875 40.3333 108.281 39.8867 108.801 39.58C109.321 39.26 109.928 39.1 110.621 39.1C112.141 39.1 113.115 39.76 113.541 41.08C113.835 40.4667 114.268 39.9867 114.841 39.64C115.415 39.28 116.075 39.1 116.821 39.1C118.981 39.1 120.061 40.38 120.061 42.94V49H118.441V43.02C118.441 42.1267 118.281 41.4733 117.961 41.06C117.655 40.6333 117.141 40.42 116.421 40.42C115.635 40.42 115.008 40.7 114.541 41.26C114.075 41.82 113.841 42.5667 113.841 43.5V49H112.221V43.02C112.221 42.1267 112.061 41.4733 111.741 41.06C111.435 40.6333 110.921 40.42 110.201 40.42C109.401 40.42 108.768 40.7 108.301 41.26C107.848 41.82 107.621 42.5667 107.621 43.5V49H106.001ZM126.15 49.18C125.484 49.18 124.884 49.0533 124.35 48.8C123.83 48.5333 123.417 48.1733 123.11 47.72C122.804 47.2667 122.65 46.76 122.65 46.2C122.65 45.4933 122.83 44.9333 123.19 44.52C123.564 44.1067 124.17 43.8133 125.01 43.64C125.864 43.4533 127.024 43.36 128.49 43.36H129.13V42.74C129.13 41.9133 128.957 41.32 128.61 40.96C128.277 40.5867 127.737 40.4 126.99 40.4C126.404 40.4 125.837 40.4867 125.29 40.66C124.744 40.82 124.184 41.0867 123.61 41.46L123.05 40.28C123.557 39.92 124.17 39.6333 124.89 39.42C125.624 39.2067 126.324 39.1 126.99 39.1C128.244 39.1 129.17 39.4067 129.77 40.02C130.384 40.6333 130.69 41.5867 130.69 42.88V49H129.17V47.32C128.917 47.8933 128.524 48.3467 127.99 48.68C127.47 49.0133 126.857 49.18 126.15 49.18ZM126.41 47.96C127.21 47.96 127.864 47.6867 128.37 47.14C128.877 46.58 129.13 45.8733 129.13 45.02V44.42H128.51C127.43 44.42 126.577 44.4733 125.95 44.58C125.337 44.6733 124.904 44.8467 124.65 45.1C124.41 45.34 124.29 45.6733 124.29 46.1C124.29 46.6467 124.477 47.0933 124.85 47.44C125.237 47.7867 125.757 47.96 126.41 47.96ZM137.596 49.18C136.449 49.18 135.589 48.88 135.016 48.28C134.442 47.6667 134.156 46.7867 134.156 45.64V40.54H132.256V39.28H134.156V36.3H135.776V39.28H138.856V40.54H135.776V45.48C135.776 46.24 135.936 46.82 136.256 47.22C136.576 47.6067 137.096 47.8 137.816 47.8C138.029 47.8 138.242 47.7733 138.456 47.72C138.669 47.6667 138.862 47.6133 139.036 47.56L139.316 48.8C139.142 48.8933 138.889 48.98 138.556 49.06C138.222 49.14 137.902 49.18 137.596 49.18ZM144.97 49.18C143.437 49.18 142.224 48.7333 141.33 47.84C140.437 46.9333 139.99 45.7067 139.99 44.16C139.99 43.16 140.19 42.28 140.59 41.52C140.99 40.7467 141.537 40.1533 142.23 39.74C142.937 39.3133 143.75 39.1 144.67 39.1C145.99 39.1 147.024 39.5267 147.77 40.38C148.517 41.22 148.89 42.38 148.89 43.86V44.48H141.57C141.624 45.5867 141.944 46.4333 142.53 47.02C143.117 47.5933 143.93 47.88 144.97 47.88C145.557 47.88 146.117 47.7933 146.65 47.62C147.184 47.4333 147.69 47.1333 148.17 46.72L148.73 47.86C148.29 48.2733 147.73 48.6 147.05 48.84C146.37 49.0667 145.677 49.18 144.97 49.18ZM144.71 40.3C143.79 40.3 143.064 40.5867 142.53 41.16C141.997 41.7333 141.684 42.4867 141.59 43.42H147.49C147.45 42.4333 147.19 41.6667 146.71 41.12C146.244 40.5733 145.577 40.3 144.71 40.3ZM151.235 49V39.28H152.815V41.02C153.335 39.8467 154.402 39.2 156.015 39.08L156.595 39.02L156.715 40.42L155.695 40.54C154.775 40.62 154.075 40.9133 153.595 41.42C153.115 41.9133 152.875 42.5933 152.875 43.46V49H151.235ZM158.203 36.86V35.04H160.203V36.86H158.203ZM158.403 49V39.28H160.023V49H158.403ZM166.111 49.18C165.445 49.18 164.845 49.0533 164.311 48.8C163.791 48.5333 163.378 48.1733 163.071 47.72C162.765 47.2667 162.611 46.76 162.611 46.2C162.611 45.4933 162.791 44.9333 163.151 44.52C163.525 44.1067 164.131 43.8133 164.971 43.64C165.825 43.4533 166.985 43.36 168.451 43.36H169.091V42.74C169.091 41.9133 168.918 41.32 168.571 40.96C168.238 40.5867 167.698 40.4 166.951 40.4C166.365 40.4 165.798 40.4867 165.251 40.66C164.705 40.82 164.145 41.0867 163.571 41.46L163.011 40.28C163.518 39.92 164.131 39.6333 164.851 39.42C165.585 39.2067 166.285 39.1 166.951 39.1C168.205 39.1 169.131 39.4067 169.731 40.02C170.345 40.6333 170.651 41.5867 170.651 42.88V49H169.131V47.32C168.878 47.8933 168.485 48.3467 167.951 48.68C167.431 49.0133 166.818 49.18 166.111 49.18ZM166.371 47.96C167.171 47.96 167.825 47.6867 168.331 47.14C168.838 46.58 169.091 45.8733 169.091 45.02V44.42H168.471C167.391 44.42 166.538 44.4733 165.911 44.58C165.298 44.6733 164.865 44.8467 164.611 45.1C164.371 45.34 164.251 45.6733 164.251 46.1C164.251 46.6467 164.438 47.0933 164.811 47.44C165.198 47.7867 165.718 47.96 166.371 47.96ZM176.637 49.18C175.65 49.18 174.903 48.8933 174.397 48.32C173.903 47.7333 173.657 46.8867 173.657 45.78V34.9H175.277V45.66C175.277 47.0867 175.843 47.8 176.977 47.8C177.31 47.8 177.61 47.76 177.877 47.68L177.837 49.04C177.423 49.1333 177.023 49.18 176.637 49.18Z" fill="#32AC5E"/>
<rect width="59" height="59" rx="7" fill="#32AC5E"/>
<path d="M22.2576 50.3299H13.5721C12.3315 50.3285 11.142 49.835 10.2648 48.9577C9.38751 48.0804 8.89403 46.891 8.89258 45.6504V38.0777C8.89258 37.7147 9.0368 37.3665 9.29351 37.1098C9.55023 36.8531 9.89841 36.7089 10.2615 36.7089C10.6245 36.7089 10.9727 36.8531 11.2294 37.1098C11.4861 37.3665 11.6303 37.7147 11.6303 38.0777V45.6504C11.6311 46.1651 11.8359 46.6586 12.1999 47.0226C12.5639 47.3866 13.0573 47.5914 13.5721 47.5921H22.2576C22.6207 47.5921 22.9689 47.7364 23.2256 47.9931C23.4823 48.2498 23.6265 48.598 23.6265 48.961C23.6265 49.3241 23.4823 49.6723 23.2256 49.929C22.9689 50.1857 22.6207 50.3299 22.2576 50.3299Z" fill="white"/>
<path d="M10.2615 24.7948C9.89841 24.7948 9.55023 24.6506 9.29351 24.3939C9.0368 24.1372 8.89258 23.789 8.89258 23.426V13.57C8.89403 12.3294 9.38751 11.14 10.2648 10.2627C11.142 9.38544 12.3315 8.89195 13.5721 8.8905H22.2576C22.6207 8.8905 22.9689 9.03472 23.2256 9.29144C23.4823 9.54815 23.6265 9.89633 23.6265 10.2594C23.6265 10.6224 23.4823 10.9706 23.2256 11.2273C22.9689 11.484 22.6207 11.6283 22.2576 11.6283H13.5721C13.0573 11.6288 12.5637 11.8336 12.1997 12.1976C11.8356 12.5616 11.6309 13.0552 11.6303 13.57V23.426C11.6303 23.789 11.4861 24.1372 11.2294 24.3939C10.9727 24.6506 10.6245 24.7948 10.2615 24.7948V24.7948Z" fill="white"/>
<path d="M48.9054 24.7948C48.5423 24.7948 48.1942 24.6506 47.9374 24.3939C47.6807 24.1372 47.5365 23.789 47.5365 23.426V13.57C47.5361 13.0553 47.3315 12.5617 46.9676 12.1976C46.6037 11.8336 46.1102 11.6288 45.5954 11.6283H36.9099C36.5468 11.6283 36.1987 11.484 35.942 11.2273C35.6852 10.9706 35.541 10.6224 35.541 10.2594C35.541 9.89633 35.6852 9.54815 35.942 9.29144C36.1987 9.03472 36.5468 8.8905 36.9099 8.8905H45.5954C46.836 8.89195 48.0254 9.38546 48.9025 10.2627C49.7797 11.14 50.273 12.3294 50.2743 13.57V23.426C50.2743 23.789 50.13 24.1372 49.8733 24.3939C49.6166 24.6506 49.2684 24.7948 48.9054 24.7948V24.7948Z" fill="white"/>
<path d="M45.5954 50.3299H36.9099C36.5468 50.3299 36.1987 50.1857 35.942 49.929C35.6852 49.6723 35.541 49.3241 35.541 48.961C35.541 48.598 35.6852 48.2498 35.942 47.9931C36.1987 47.7364 36.5468 47.5921 36.9099 47.5921H45.5954C46.1101 47.5914 46.6035 47.3866 46.9674 47.0226C47.3313 46.6586 47.536 46.1651 47.5365 45.6504V38.0777C47.5365 37.7147 47.6807 37.3665 47.9374 37.1098C48.1942 36.8531 48.5423 36.7089 48.9054 36.7089C49.2684 36.7089 49.6166 36.8531 49.8733 37.1098C50.13 37.3665 50.2743 37.7147 50.2743 38.0777V45.6504C50.273 46.891 49.7797 48.0804 48.9025 48.9577C48.0254 49.8349 46.836 50.3285 45.5954 50.3299V50.3299Z" fill="white"/>
<path d="M41.2706 23.1265H35.2405V21.9897C35.2405 21.0878 34.8822 20.2229 34.2445 19.5851C33.6067 18.9474 32.7418 18.5891 31.8399 18.5891H27.4387C26.5368 18.5891 25.6719 18.9474 25.0341 19.5851C24.3964 20.2229 24.0381 21.0878 24.0381 21.9897V23.1265H18.0064C17.5179 23.1265 17.0493 23.3205 16.7038 23.6659C16.3583 24.0113 16.1642 24.4798 16.1641 24.9684V38.4689C16.1641 38.9575 16.3582 39.4261 16.7037 39.7716C17.0492 40.1171 17.5178 40.3112 18.0064 40.3112H41.2706C41.7592 40.3112 42.2278 40.1171 42.5733 39.7716C42.9188 39.4261 43.1129 38.9575 43.1129 38.4689V24.9684C43.1128 24.4798 42.9187 24.0113 42.5732 23.6659C42.2277 23.3205 41.7591 23.1265 41.2706 23.1265ZM29.6383 36.3295C29.0962 36.3295 28.5594 36.2226 28.0586 36.0151C27.5578 35.8076 27.1027 35.5034 26.7195 35.12C26.3362 34.7366 26.0323 34.2815 25.8249 33.7806C25.6176 33.2797 25.511 32.7428 25.5111 32.2007C25.5111 28.0946 29.6383 25.7071 29.6383 25.7071C29.6383 25.7071 33.7659 28.0946 33.7659 32.2007C33.766 32.7429 33.6594 33.2797 33.452 33.7807C33.2447 34.2816 32.9407 34.7367 32.5574 35.1202C32.1741 35.5036 31.719 35.8077 31.2181 36.0152C30.7173 36.2227 30.1804 36.3295 29.6383 36.3295Z" fill="white"/>
</svg>
