<svg width="43" height="68" viewBox="0 0 43 68" fill="none" xmlns="http://www.w3.org/2000/svg">
<path d="M23.6026 1.66856C23.358 1.34186 23.0406 1.07665 22.6756 0.893985C22.3107 0.711317 21.9081 0.616211 21.5 0.616211C21.0919 0.616211 20.6893 0.711317 20.3244 0.893985C19.9594 1.07665 19.642 1.34186 19.3974 1.66856C13.9867 8.8735 0 29.1242 0 45.9325C0.0456408 51.6047 2.33092 57.029 6.358 61.0238C10.3851 65.0186 15.8276 67.2602 21.5 67.2602C27.1724 67.2602 32.6149 65.0186 36.642 61.0238C40.6691 57.029 42.9544 51.6047 43 45.9325C43 29.1242 29.0133 8.8735 23.6026 1.66856Z" fill="#08ACF2"/>
</svg>
