<svg width="481" height="162" viewBox="0 0 481 162" fill="none" xmlns="http://www.w3.org/2000/svg">
<g filter="url(#filter0_i_14_2263)">
<circle cx="63" cy="63" r="63" fill="#FFFDED"/>
</g>
<circle cx="63" cy="63" r="62.5" stroke="#F8F1BF"/>
<path d="M40.4673 61.9351C44.6253 61.9351 45.3843 63.6511 45.3843 65.0371C45.3843 67.5121 42.4473 68.4361 40.2363 68.4361C38.3553 68.4361 35.1543 67.6111 35.1543 65.2351H30.7653C30.7983 70.4821 35.8143 72.3301 40.2033 72.3301C44.6583 72.3301 49.9713 70.6471 49.9713 65.0041C49.9713 63.0571 48.4203 60.8791 46.2093 60.1531C48.2223 59.5261 49.4103 57.4141 49.4103 55.5991C49.3773 50.6821 44.6913 48.5701 40.3353 48.5701C36.0783 48.5701 31.1283 50.3851 31.1283 55.3681H35.4843C35.4843 53.2561 38.2563 52.5301 40.3023 52.5301C43.9983 52.5301 45.0543 54.2791 45.0543 55.5991C45.0213 57.7441 42.5463 58.3711 40.2033 58.3711H36.8703V61.9351H40.4673ZM70.4081 48.9331H53.6771C53.6771 53.1241 53.6771 56.9851 53.6771 61.1431H62.4221C64.7981 61.1431 67.4051 61.9021 67.3721 64.5091C67.3721 67.2481 64.6991 68.2381 62.5871 68.2381C60.4091 68.2381 57.5051 67.5781 57.5051 65.0371H53.1821C53.2151 70.4491 57.5711 72.2641 62.6531 72.2641C67.3061 72.2641 71.6951 69.7561 71.6951 64.5091C71.7281 59.0971 67.3391 57.0841 62.4221 57.0841H57.9341V53.0251H70.4081V48.9331ZM78.028 56.1271C78.028 53.6191 80.668 52.2001 83.275 52.2331C85.75 52.2331 88.324 53.2561 88.324 55.3021H92.68C92.68 50.4511 88.225 48.4711 83.209 48.4711C78.457 48.4711 73.705 50.8801 73.705 56.0281V64.6411C73.705 69.8221 78.622 72.3631 83.341 72.3631C87.994 72.3631 92.911 69.8221 92.911 64.7071C92.911 58.9651 88.027 57.0181 83.374 57.0181C81.559 57.0181 79.051 57.8761 78.028 59.4601V55.9951V56.1271ZM83.341 68.4691C80.503 68.4691 78.061 67.2481 78.028 64.7071C77.995 62.1331 80.47 60.8131 83.374 60.8131C86.278 60.8131 88.588 62.1661 88.588 64.7071C88.588 67.2481 86.08 68.4691 83.341 68.4691Z" fill="#08ACF2"/>
<path d="M62.9988 115.762C33.8589 115.762 10.2363 92.1399 10.2363 63C10.2363 33.8601 33.8589 10.2375 62.9988 10.2375" stroke="#08ACF2" stroke-width="20" stroke-linecap="round"/>
<path d="M5.94898 157V142.9H7.58898V155.56H14.769V157H5.94898ZM20.5307 157.18C19.584 157.18 18.764 156.973 18.0707 156.56C17.3774 156.147 16.8374 155.567 16.4507 154.82C16.0774 154.06 15.8907 153.167 15.8907 152.14C15.8907 151.113 16.0774 150.227 16.4507 149.48C16.8374 148.72 17.3774 148.133 18.0707 147.72C18.764 147.307 19.584 147.1 20.5307 147.1C21.464 147.1 22.2774 147.307 22.9707 147.72C23.6774 148.133 24.2174 148.72 24.5907 149.48C24.9774 150.227 25.1707 151.113 25.1707 152.14C25.1707 153.167 24.9774 154.06 24.5907 154.82C24.2174 155.567 23.6774 156.147 22.9707 156.56C22.2774 156.973 21.464 157.18 20.5307 157.18ZM20.5307 155.88C21.4374 155.88 22.164 155.56 22.7107 154.92C23.2574 154.267 23.5307 153.34 23.5307 152.14C23.5307 150.927 23.2574 150 22.7107 149.36C22.164 148.72 21.4374 148.4 20.5307 148.4C19.6107 148.4 18.8774 148.72 18.3307 149.36C17.7974 150 17.5307 150.927 17.5307 152.14C17.5307 153.34 17.7974 154.267 18.3307 154.92C18.8774 155.56 19.6107 155.88 20.5307 155.88ZM27.604 157V147.28H29.184V149.02C29.704 147.847 30.7707 147.2 32.384 147.08L32.964 147.02L33.084 148.42L32.064 148.54C31.144 148.62 30.444 148.913 29.964 149.42C29.484 149.913 29.244 150.593 29.244 151.46V157H27.604ZM39.0348 157.18C37.5014 157.18 36.2881 156.733 35.3948 155.84C34.5014 154.933 34.0548 153.707 34.0548 152.16C34.0548 151.16 34.2548 150.28 34.6548 149.52C35.0548 148.747 35.6014 148.153 36.2948 147.74C37.0014 147.313 37.8148 147.1 38.7348 147.1C40.0548 147.1 41.0881 147.527 41.8348 148.38C42.5814 149.22 42.9548 150.38 42.9548 151.86V152.48H35.6348C35.6881 153.587 36.0081 154.433 36.5948 155.02C37.1814 155.593 37.9948 155.88 39.0348 155.88C39.6214 155.88 40.1814 155.793 40.7148 155.62C41.2481 155.433 41.7548 155.133 42.2348 154.72L42.7948 155.86C42.3548 156.273 41.7948 156.6 41.1148 156.84C40.4348 157.067 39.7414 157.18 39.0348 157.18ZM38.7748 148.3C37.8548 148.3 37.1281 148.587 36.5948 149.16C36.0614 149.733 35.7481 150.487 35.6548 151.42H41.5548C41.5148 150.433 41.2548 149.667 40.7748 149.12C40.3081 148.573 39.6414 148.3 38.7748 148.3ZM45.3393 157V147.28H46.9193V148.92C47.2126 148.333 47.6193 147.887 48.1393 147.58C48.6593 147.26 49.266 147.1 49.9593 147.1C51.4793 147.1 52.4526 147.76 52.8793 149.08C53.1726 148.467 53.606 147.987 54.1793 147.64C54.7526 147.28 55.4126 147.1 56.1593 147.1C58.3193 147.1 59.3993 148.38 59.3993 150.94V157H57.7793V151.02C57.7793 150.127 57.6193 149.473 57.2993 149.06C56.9926 148.633 56.4793 148.42 55.7593 148.42C54.9726 148.42 54.346 148.7 53.8793 149.26C53.4126 149.82 53.1793 150.567 53.1793 151.5V157H51.5593V151.02C51.5593 150.127 51.3993 149.473 51.0793 149.06C50.7726 148.633 50.2593 148.42 49.5393 148.42C48.7393 148.42 48.106 148.7 47.6393 149.26C47.186 149.82 46.9593 150.567 46.9593 151.5V157H45.3393ZM67.7849 157V142.9H69.4249V157H67.7849ZM72.6821 160.6V147.28H74.2621V149.02C74.5554 148.42 74.9888 147.953 75.5621 147.62C76.1488 147.273 76.8288 147.1 77.6021 147.1C78.4688 147.1 79.2221 147.307 79.8621 147.72C80.5154 148.12 81.0154 148.7 81.3621 149.46C81.7221 150.207 81.9021 151.1 81.9021 152.14C81.9021 153.167 81.7221 154.06 81.3621 154.82C81.0154 155.567 80.5154 156.147 79.8621 156.56C79.2221 156.973 78.4688 157.18 77.6021 157.18C76.8554 157.18 76.1888 157.013 75.6021 156.68C75.0154 156.347 74.5821 155.887 74.3021 155.3V160.6H72.6821ZM77.2621 155.88C78.1688 155.88 78.8954 155.56 79.4421 154.92C79.9888 154.267 80.2621 153.34 80.2621 152.14C80.2621 150.927 79.9888 150 79.4421 149.36C78.8954 148.72 78.1688 148.4 77.2621 148.4C76.3554 148.4 75.6288 148.72 75.0821 149.36C74.5354 150 74.2621 150.927 74.2621 152.14C74.2621 153.34 74.5354 154.267 75.0821 154.92C75.6288 155.56 76.3554 155.88 77.2621 155.88ZM87.6223 157.18C86.8623 157.18 86.1423 157.073 85.4623 156.86C84.7823 156.647 84.2223 156.347 83.7823 155.96L84.3023 154.82C84.7823 155.207 85.3089 155.493 85.8823 155.68C86.4689 155.853 87.0623 155.94 87.6623 155.94C88.4223 155.94 88.9956 155.8 89.3823 155.52C89.7689 155.24 89.9623 154.86 89.9623 154.38C89.9623 154.007 89.8356 153.713 89.5823 153.5C89.3289 153.273 88.9289 153.1 88.3823 152.98L86.5623 152.58C84.9089 152.22 84.0823 151.367 84.0823 150.02C84.0823 149.14 84.4289 148.433 85.1223 147.9C85.8289 147.367 86.7489 147.1 87.8823 147.1C88.5489 147.1 89.1823 147.207 89.7823 147.42C90.3956 147.62 90.9023 147.92 91.3023 148.32L90.7623 149.46C90.3756 149.1 89.9223 148.827 89.4023 148.64C88.8956 148.44 88.3889 148.34 87.8823 148.34C87.1356 148.34 86.5689 148.487 86.1823 148.78C85.7956 149.073 85.6023 149.46 85.6023 149.94C85.6023 150.687 86.0956 151.167 87.0823 151.38L88.9023 151.76C89.7556 151.947 90.4023 152.247 90.8423 152.66C91.2823 153.06 91.5023 153.607 91.5023 154.3C91.5023 155.193 91.1489 155.9 90.4423 156.42C89.7356 156.927 88.7956 157.18 87.6223 157.18ZM97.4112 157.18C95.0778 157.18 93.9112 155.893 93.9112 153.32V147.28H95.5312V153.3C95.5312 154.167 95.7045 154.807 96.0512 155.22C96.4112 155.633 96.9712 155.84 97.7312 155.84C98.5578 155.84 99.2312 155.567 99.7512 155.02C100.271 154.46 100.531 153.72 100.531 152.8V147.28H102.151V157H100.571V155.36C100.265 155.947 99.8312 156.4 99.2712 156.72C98.7245 157.027 98.1045 157.18 97.4112 157.18ZM105.222 157V147.28H106.802V148.92C107.095 148.333 107.502 147.887 108.022 147.58C108.542 147.26 109.149 147.1 109.842 147.1C111.362 147.1 112.335 147.76 112.762 149.08C113.055 148.467 113.489 147.987 114.062 147.64C114.635 147.28 115.295 147.1 116.042 147.1C118.202 147.1 119.282 148.38 119.282 150.94V157H117.662V151.02C117.662 150.127 117.502 149.473 117.182 149.06C116.875 148.633 116.362 148.42 115.642 148.42C114.855 148.42 114.229 148.7 113.762 149.26C113.295 149.82 113.062 150.567 113.062 151.5V157H111.442V151.02C111.442 150.127 111.282 149.473 110.962 149.06C110.655 148.633 110.142 148.42 109.422 148.42C108.622 148.42 107.989 148.7 107.522 149.26C107.069 149.82 106.842 150.567 106.842 151.5V157H105.222Z" fill="#08ACF2"/>
<g filter="url(#filter1_i_14_2263)">
<circle cx="415" cy="63" r="63" fill="#FFFDED"/>
</g>
<circle cx="415" cy="63" r="62.5" stroke="#F8F1BF"/>
<path d="M392.467 61.9351C396.625 61.9351 397.384 63.6511 397.384 65.0371C397.384 67.5121 394.447 68.4361 392.236 68.4361C390.355 68.4361 387.154 67.6111 387.154 65.2351H382.765C382.798 70.4821 387.814 72.3301 392.203 72.3301C396.658 72.3301 401.971 70.6471 401.971 65.0041C401.971 63.0571 400.42 60.8791 398.209 60.1531C400.222 59.5261 401.41 57.4141 401.41 55.5991C401.377 50.6821 396.691 48.5701 392.335 48.5701C388.078 48.5701 383.128 50.3851 383.128 55.3681H387.484C387.484 53.2561 390.256 52.5301 392.302 52.5301C395.998 52.5301 397.054 54.2791 397.054 55.5991C397.021 57.7441 394.546 58.3711 392.203 58.3711H388.87V61.9351H392.467ZM422.408 48.9331H405.677C405.677 53.1241 405.677 56.9851 405.677 61.1431H414.422C416.798 61.1431 419.405 61.9021 419.372 64.5091C419.372 67.2481 416.699 68.2381 414.587 68.2381C412.409 68.2381 409.505 67.5781 409.505 65.0371H405.182C405.215 70.4491 409.571 72.2641 414.653 72.2641C419.306 72.2641 423.695 69.7561 423.695 64.5091C423.728 59.0971 419.339 57.0841 414.422 57.0841H409.934V53.0251H422.408V48.9331ZM430.028 56.1271C430.028 53.6191 432.668 52.2001 435.275 52.2331C437.75 52.2331 440.324 53.2561 440.324 55.3021H444.68C444.68 50.4511 440.225 48.4711 435.209 48.4711C430.457 48.4711 425.705 50.8801 425.705 56.0281V64.6411C425.705 69.8221 430.622 72.3631 435.341 72.3631C439.994 72.3631 444.911 69.8221 444.911 64.7071C444.911 58.9651 440.027 57.0181 435.374 57.0181C433.559 57.0181 431.051 57.8761 430.028 59.4601V55.9951V56.1271ZM435.341 68.4691C432.503 68.4691 430.061 67.2481 430.028 64.7071C429.995 62.1331 432.47 60.8131 435.374 60.8131C438.278 60.8131 440.588 62.1661 440.588 64.7071C440.588 67.2481 438.08 68.4691 435.341 68.4691Z" fill="#12664F"/>
<path d="M414.999 10.2375C385.859 10.2375 362.236 33.8601 362.236 63C362.236 92.1399 385.859 115.762 414.999 115.762C453.5 115.762 470.5 84 470.5 63" stroke="#12664F" stroke-width="20" stroke-linecap="round"/>
<path d="M357.949 157V142.9H359.589V155.56H366.769V157H357.949ZM372.531 157.18C371.584 157.18 370.764 156.973 370.071 156.56C369.377 156.147 368.837 155.567 368.451 154.82C368.077 154.06 367.891 153.167 367.891 152.14C367.891 151.113 368.077 150.227 368.451 149.48C368.837 148.72 369.377 148.133 370.071 147.72C370.764 147.307 371.584 147.1 372.531 147.1C373.464 147.1 374.277 147.307 374.971 147.72C375.677 148.133 376.217 148.72 376.591 149.48C376.977 150.227 377.171 151.113 377.171 152.14C377.171 153.167 376.977 154.06 376.591 154.82C376.217 155.567 375.677 156.147 374.971 156.56C374.277 156.973 373.464 157.18 372.531 157.18ZM372.531 155.88C373.437 155.88 374.164 155.56 374.711 154.92C375.257 154.267 375.531 153.34 375.531 152.14C375.531 150.927 375.257 150 374.711 149.36C374.164 148.72 373.437 148.4 372.531 148.4C371.611 148.4 370.877 148.72 370.331 149.36C369.797 150 369.531 150.927 369.531 152.14C369.531 153.34 369.797 154.267 370.331 154.92C370.877 155.56 371.611 155.88 372.531 155.88ZM379.604 157V147.28H381.184V149.02C381.704 147.847 382.771 147.2 384.384 147.08L384.964 147.02L385.084 148.42L384.064 148.54C383.144 148.62 382.444 148.913 381.964 149.42C381.484 149.913 381.244 150.593 381.244 151.46V157H379.604ZM391.035 157.18C389.501 157.18 388.288 156.733 387.395 155.84C386.501 154.933 386.055 153.707 386.055 152.16C386.055 151.16 386.255 150.28 386.655 149.52C387.055 148.747 387.601 148.153 388.295 147.74C389.001 147.313 389.815 147.1 390.735 147.1C392.055 147.1 393.088 147.527 393.835 148.38C394.581 149.22 394.955 150.38 394.955 151.86V152.48H387.635C387.688 153.587 388.008 154.433 388.595 155.02C389.181 155.593 389.995 155.88 391.035 155.88C391.621 155.88 392.181 155.793 392.715 155.62C393.248 155.433 393.755 155.133 394.235 154.72L394.795 155.86C394.355 156.273 393.795 156.6 393.115 156.84C392.435 157.067 391.741 157.18 391.035 157.18ZM390.775 148.3C389.855 148.3 389.128 148.587 388.595 149.16C388.061 149.733 387.748 150.487 387.655 151.42H393.555C393.515 150.433 393.255 149.667 392.775 149.12C392.308 148.573 391.641 148.3 390.775 148.3ZM397.339 157V147.28H398.919V148.92C399.213 148.333 399.619 147.887 400.139 147.58C400.659 147.26 401.266 147.1 401.959 147.1C403.479 147.1 404.453 147.76 404.879 149.08C405.173 148.467 405.606 147.987 406.179 147.64C406.753 147.28 407.413 147.1 408.159 147.1C410.319 147.1 411.399 148.38 411.399 150.94V157H409.779V151.02C409.779 150.127 409.619 149.473 409.299 149.06C408.993 148.633 408.479 148.42 407.759 148.42C406.973 148.42 406.346 148.7 405.879 149.26C405.413 149.82 405.179 150.567 405.179 151.5V157H403.559V151.02C403.559 150.127 403.399 149.473 403.079 149.06C402.773 148.633 402.259 148.42 401.539 148.42C400.739 148.42 400.106 148.7 399.639 149.26C399.186 149.82 398.959 150.567 398.959 151.5V157H397.339ZM419.785 157V142.9H421.425V157H419.785ZM424.682 160.6V147.28H426.262V149.02C426.555 148.42 426.989 147.953 427.562 147.62C428.149 147.273 428.829 147.1 429.602 147.1C430.469 147.1 431.222 147.307 431.862 147.72C432.515 148.12 433.015 148.7 433.362 149.46C433.722 150.207 433.902 151.1 433.902 152.14C433.902 153.167 433.722 154.06 433.362 154.82C433.015 155.567 432.515 156.147 431.862 156.56C431.222 156.973 430.469 157.18 429.602 157.18C428.855 157.18 428.189 157.013 427.602 156.68C427.015 156.347 426.582 155.887 426.302 155.3V160.6H424.682ZM429.262 155.88C430.169 155.88 430.895 155.56 431.442 154.92C431.989 154.267 432.262 153.34 432.262 152.14C432.262 150.927 431.989 150 431.442 149.36C430.895 148.72 430.169 148.4 429.262 148.4C428.355 148.4 427.629 148.72 427.082 149.36C426.535 150 426.262 150.927 426.262 152.14C426.262 153.34 426.535 154.267 427.082 154.92C427.629 155.56 428.355 155.88 429.262 155.88ZM439.622 157.18C438.862 157.18 438.142 157.073 437.462 156.86C436.782 156.647 436.222 156.347 435.782 155.96L436.302 154.82C436.782 155.207 437.309 155.493 437.882 155.68C438.469 155.853 439.062 155.94 439.662 155.94C440.422 155.94 440.996 155.8 441.382 155.52C441.769 155.24 441.962 154.86 441.962 154.38C441.962 154.007 441.836 153.713 441.582 153.5C441.329 153.273 440.929 153.1 440.382 152.98L438.562 152.58C436.909 152.22 436.082 151.367 436.082 150.02C436.082 149.14 436.429 148.433 437.122 147.9C437.829 147.367 438.749 147.1 439.882 147.1C440.549 147.1 441.182 147.207 441.782 147.42C442.396 147.62 442.902 147.92 443.302 148.32L442.762 149.46C442.376 149.1 441.922 148.827 441.402 148.64C440.896 148.44 440.389 148.34 439.882 148.34C439.136 148.34 438.569 148.487 438.182 148.78C437.796 149.073 437.602 149.46 437.602 149.94C437.602 150.687 438.096 151.167 439.082 151.38L440.902 151.76C441.756 151.947 442.402 152.247 442.842 152.66C443.282 153.06 443.502 153.607 443.502 154.3C443.502 155.193 443.149 155.9 442.442 156.42C441.736 156.927 440.796 157.18 439.622 157.18ZM449.411 157.18C447.078 157.18 445.911 155.893 445.911 153.32V147.28H447.531V153.3C447.531 154.167 447.705 154.807 448.051 155.22C448.411 155.633 448.971 155.84 449.731 155.84C450.558 155.84 451.231 155.567 451.751 155.02C452.271 154.46 452.531 153.72 452.531 152.8V147.28H454.151V157H452.571V155.36C452.265 155.947 451.831 156.4 451.271 156.72C450.725 157.027 450.105 157.18 449.411 157.18ZM457.222 157V147.28H458.802V148.92C459.095 148.333 459.502 147.887 460.022 147.58C460.542 147.26 461.149 147.1 461.842 147.1C463.362 147.1 464.335 147.76 464.762 149.08C465.055 148.467 465.489 147.987 466.062 147.64C466.635 147.28 467.295 147.1 468.042 147.1C470.202 147.1 471.282 148.38 471.282 150.94V157H469.662V151.02C469.662 150.127 469.502 149.473 469.182 149.06C468.875 148.633 468.362 148.42 467.642 148.42C466.855 148.42 466.229 148.7 465.762 149.26C465.295 149.82 465.062 150.567 465.062 151.5V157H463.442V151.02C463.442 150.127 463.282 149.473 462.962 149.06C462.655 148.633 462.142 148.42 461.422 148.42C460.622 148.42 459.989 148.7 459.522 149.26C459.069 149.82 458.842 150.567 458.842 151.5V157H457.222Z" fill="#12664F"/>
<g filter="url(#filter2_i_14_2263)">
<circle cx="239" cy="63" r="63" fill="#FFFDED"/>
</g>
<circle cx="239" cy="63" r="62.5" stroke="#F8F1BF"/>
<path d="M223.035 56.849C223.068 54.77 225.411 53.615 227.688 53.615C230.658 53.615 232.935 54.803 232.935 57.311C232.935 59.984 229.734 60.281 227.985 60.281C223.431 60.281 218.613 61.865 218.613 67.178C218.613 69.224 218.613 71.237 218.613 73.25H237.324V69.191H222.969V67.211C222.969 64.703 226.071 64.208 227.985 64.208C232.836 64.208 237.258 63.086 237.258 57.212C237.258 51.734 232.242 49.853 227.622 49.853C223.365 49.853 218.745 51.965 218.712 56.849H223.035ZM249.081 63.185C253.239 63.185 253.998 64.901 253.998 66.287C253.998 68.762 251.061 69.686 248.85 69.686C246.969 69.686 243.768 68.861 243.768 66.485H239.379C239.412 71.732 244.428 73.58 248.817 73.58C253.272 73.58 258.585 71.897 258.585 66.254C258.585 64.307 257.034 62.129 254.823 61.403C256.836 60.776 258.024 58.664 258.024 56.849C257.991 51.932 253.305 49.82 248.949 49.82C244.692 49.82 239.742 51.635 239.742 56.618H244.098C244.098 54.506 246.87 53.78 248.916 53.78C252.612 53.78 253.668 55.529 253.668 56.849C253.635 58.994 251.16 59.621 248.817 59.621H245.484V63.185H249.081Z" fill="#A9CF46"/>
<path d="M238.999 10.2374C209.859 10.2374 186.236 33.86 186.236 62.9999C186.236 72.8668 188.945 82.1011 193.659 90" stroke="#A9CF46" stroke-width="20" stroke-linecap="round"/>
<path d="M181.949 157V142.9H183.589V155.56H190.769V157H181.949ZM196.531 157.18C195.584 157.18 194.764 156.973 194.071 156.56C193.377 156.147 192.837 155.567 192.451 154.82C192.077 154.06 191.891 153.167 191.891 152.14C191.891 151.113 192.077 150.227 192.451 149.48C192.837 148.72 193.377 148.133 194.071 147.72C194.764 147.307 195.584 147.1 196.531 147.1C197.464 147.1 198.277 147.307 198.971 147.72C199.677 148.133 200.217 148.72 200.591 149.48C200.977 150.227 201.171 151.113 201.171 152.14C201.171 153.167 200.977 154.06 200.591 154.82C200.217 155.567 199.677 156.147 198.971 156.56C198.277 156.973 197.464 157.18 196.531 157.18ZM196.531 155.88C197.437 155.88 198.164 155.56 198.711 154.92C199.257 154.267 199.531 153.34 199.531 152.14C199.531 150.927 199.257 150 198.711 149.36C198.164 148.72 197.437 148.4 196.531 148.4C195.611 148.4 194.877 148.72 194.331 149.36C193.797 150 193.531 150.927 193.531 152.14C193.531 153.34 193.797 154.267 194.331 154.92C194.877 155.56 195.611 155.88 196.531 155.88ZM203.604 157V147.28H205.184V149.02C205.704 147.847 206.771 147.2 208.384 147.08L208.964 147.02L209.084 148.42L208.064 148.54C207.144 148.62 206.444 148.913 205.964 149.42C205.484 149.913 205.244 150.593 205.244 151.46V157H203.604ZM215.035 157.18C213.501 157.18 212.288 156.733 211.395 155.84C210.501 154.933 210.055 153.707 210.055 152.16C210.055 151.16 210.255 150.28 210.655 149.52C211.055 148.747 211.601 148.153 212.295 147.74C213.001 147.313 213.815 147.1 214.735 147.1C216.055 147.1 217.088 147.527 217.835 148.38C218.581 149.22 218.955 150.38 218.955 151.86V152.48H211.635C211.688 153.587 212.008 154.433 212.595 155.02C213.181 155.593 213.995 155.88 215.035 155.88C215.621 155.88 216.181 155.793 216.715 155.62C217.248 155.433 217.755 155.133 218.235 154.72L218.795 155.86C218.355 156.273 217.795 156.6 217.115 156.84C216.435 157.067 215.741 157.18 215.035 157.18ZM214.775 148.3C213.855 148.3 213.128 148.587 212.595 149.16C212.061 149.733 211.748 150.487 211.655 151.42H217.555C217.515 150.433 217.255 149.667 216.775 149.12C216.308 148.573 215.641 148.3 214.775 148.3ZM221.339 157V147.28H222.919V148.92C223.213 148.333 223.619 147.887 224.139 147.58C224.659 147.26 225.266 147.1 225.959 147.1C227.479 147.1 228.453 147.76 228.879 149.08C229.173 148.467 229.606 147.987 230.179 147.64C230.753 147.28 231.413 147.1 232.159 147.1C234.319 147.1 235.399 148.38 235.399 150.94V157H233.779V151.02C233.779 150.127 233.619 149.473 233.299 149.06C232.993 148.633 232.479 148.42 231.759 148.42C230.973 148.42 230.346 148.7 229.879 149.26C229.413 149.82 229.179 150.567 229.179 151.5V157H227.559V151.02C227.559 150.127 227.399 149.473 227.079 149.06C226.773 148.633 226.259 148.42 225.539 148.42C224.739 148.42 224.106 148.7 223.639 149.26C223.186 149.82 222.959 150.567 222.959 151.5V157H221.339ZM243.785 157V142.9H245.425V157H243.785ZM248.682 160.6V147.28H250.262V149.02C250.555 148.42 250.989 147.953 251.562 147.62C252.149 147.273 252.829 147.1 253.602 147.1C254.469 147.1 255.222 147.307 255.862 147.72C256.515 148.12 257.015 148.7 257.362 149.46C257.722 150.207 257.902 151.1 257.902 152.14C257.902 153.167 257.722 154.06 257.362 154.82C257.015 155.567 256.515 156.147 255.862 156.56C255.222 156.973 254.469 157.18 253.602 157.18C252.855 157.18 252.189 157.013 251.602 156.68C251.015 156.347 250.582 155.887 250.302 155.3V160.6H248.682ZM253.262 155.88C254.169 155.88 254.895 155.56 255.442 154.92C255.989 154.267 256.262 153.34 256.262 152.14C256.262 150.927 255.989 150 255.442 149.36C254.895 148.72 254.169 148.4 253.262 148.4C252.355 148.4 251.629 148.72 251.082 149.36C250.535 150 250.262 150.927 250.262 152.14C250.262 153.34 250.535 154.267 251.082 154.92C251.629 155.56 252.355 155.88 253.262 155.88ZM263.622 157.18C262.862 157.18 262.142 157.073 261.462 156.86C260.782 156.647 260.222 156.347 259.782 155.96L260.302 154.82C260.782 155.207 261.309 155.493 261.882 155.68C262.469 155.853 263.062 155.94 263.662 155.94C264.422 155.94 264.996 155.8 265.382 155.52C265.769 155.24 265.962 154.86 265.962 154.38C265.962 154.007 265.836 153.713 265.582 153.5C265.329 153.273 264.929 153.1 264.382 152.98L262.562 152.58C260.909 152.22 260.082 151.367 260.082 150.02C260.082 149.14 260.429 148.433 261.122 147.9C261.829 147.367 262.749 147.1 263.882 147.1C264.549 147.1 265.182 147.207 265.782 147.42C266.396 147.62 266.902 147.92 267.302 148.32L266.762 149.46C266.376 149.1 265.922 148.827 265.402 148.64C264.896 148.44 264.389 148.34 263.882 148.34C263.136 148.34 262.569 148.487 262.182 148.78C261.796 149.073 261.602 149.46 261.602 149.94C261.602 150.687 262.096 151.167 263.082 151.38L264.902 151.76C265.756 151.947 266.402 152.247 266.842 152.66C267.282 153.06 267.502 153.607 267.502 154.3C267.502 155.193 267.149 155.9 266.442 156.42C265.736 156.927 264.796 157.18 263.622 157.18ZM273.411 157.18C271.078 157.18 269.911 155.893 269.911 153.32V147.28H271.531V153.3C271.531 154.167 271.705 154.807 272.051 155.22C272.411 155.633 272.971 155.84 273.731 155.84C274.558 155.84 275.231 155.567 275.751 155.02C276.271 154.46 276.531 153.72 276.531 152.8V147.28H278.151V157H276.571V155.36C276.265 155.947 275.831 156.4 275.271 156.72C274.725 157.027 274.105 157.18 273.411 157.18ZM281.222 157V147.28H282.802V148.92C283.095 148.333 283.502 147.887 284.022 147.58C284.542 147.26 285.149 147.1 285.842 147.1C287.362 147.1 288.335 147.76 288.762 149.08C289.055 148.467 289.489 147.987 290.062 147.64C290.635 147.28 291.295 147.1 292.042 147.1C294.202 147.1 295.282 148.38 295.282 150.94V157H293.662V151.02C293.662 150.127 293.502 149.473 293.182 149.06C292.875 148.633 292.362 148.42 291.642 148.42C290.855 148.42 290.229 148.7 289.762 149.26C289.295 149.82 289.062 150.567 289.062 151.5V157H287.442V151.02C287.442 150.127 287.282 149.473 286.962 149.06C286.655 148.633 286.142 148.42 285.422 148.42C284.622 148.42 283.989 148.7 283.522 149.26C283.069 149.82 282.842 150.567 282.842 151.5V157H281.222Z" fill="#A9CF46"/>
<defs>
<filter id="filter0_i_14_2263" x="0" y="0" width="126" height="126" filterUnits="userSpaceOnUse" color-interpolation-filters="sRGB">
<feFlood flood-opacity="0" result="BackgroundImageFix"/>
<feBlend mode="normal" in="SourceGraphic" in2="BackgroundImageFix" result="shape"/>
<feColorMatrix in="SourceAlpha" type="matrix" values="0 0 0 0 0 0 0 0 0 0 0 0 0 0 0 0 0 0 127 0" result="hardAlpha"/>
<feOffset/>
<feGaussianBlur stdDeviation="7.5"/>
<feComposite in2="hardAlpha" operator="arithmetic" k2="-1" k3="1"/>
<feColorMatrix type="matrix" values="0 0 0 0 0.941667 0 0 0 0 0.903302 0 0 0 0 0.596389 0 0 0 1 0"/>
<feBlend mode="normal" in2="shape" result="effect1_innerShadow_14_2263"/>
</filter>
<filter id="filter1_i_14_2263" x="352" y="0" width="126" height="126" filterUnits="userSpaceOnUse" color-interpolation-filters="sRGB">
<feFlood flood-opacity="0" result="BackgroundImageFix"/>
<feBlend mode="normal" in="SourceGraphic" in2="BackgroundImageFix" result="shape"/>
<feColorMatrix in="SourceAlpha" type="matrix" values="0 0 0 0 0 0 0 0 0 0 0 0 0 0 0 0 0 0 127 0" result="hardAlpha"/>
<feOffset/>
<feGaussianBlur stdDeviation="7.5"/>
<feComposite in2="hardAlpha" operator="arithmetic" k2="-1" k3="1"/>
<feColorMatrix type="matrix" values="0 0 0 0 0.941667 0 0 0 0 0.903302 0 0 0 0 0.596389 0 0 0 1 0"/>
<feBlend mode="normal" in2="shape" result="effect1_innerShadow_14_2263"/>
</filter>
<filter id="filter2_i_14_2263" x="176" y="0" width="126" height="126" filterUnits="userSpaceOnUse" color-interpolation-filters="sRGB">
<feFlood flood-opacity="0" result="BackgroundImageFix"/>
<feBlend mode="normal" in="SourceGraphic" in2="BackgroundImageFix" result="shape"/>
<feColorMatrix in="SourceAlpha" type="matrix" values="0 0 0 0 0 0 0 0 0 0 0 0 0 0 0 0 0 0 127 0" result="hardAlpha"/>
<feOffset/>
<feGaussianBlur stdDeviation="7.5"/>
<feComposite in2="hardAlpha" operator="arithmetic" k2="-1" k3="1"/>
<feColorMatrix type="matrix" values="0 0 0 0 0.941667 0 0 0 0 0.903302 0 0 0 0 0.596389 0 0 0 1 0"/>
<feBlend mode="normal" in2="shape" result="effect1_innerShadow_14_2263"/>
</filter>
</defs>
</svg>
