<svg width="18" height="18" viewBox="0 0 18 18" fill="none" xmlns="http://www.w3.org/2000/svg">
<path d="M9.39925 1.93694C11.6674 1.93694 11.9361 1.94558 12.8315 1.98662C13.3702 1.99303 13.9038 2.09195 14.409 2.27904C14.7752 2.42047 15.1077 2.63696 15.3853 2.91458C15.6628 3.1922 15.8792 3.52482 16.0205 3.89106C16.2079 4.39603 16.3068 4.92952 16.313 5.46809C16.3562 6.36395 16.3626 6.63434 16.3626 8.90032C16.3626 11.1663 16.354 11.4371 16.313 12.3326C16.3068 12.8711 16.2079 13.4046 16.0205 13.9096C15.8792 14.2758 15.6628 14.6085 15.3853 14.8861C15.1077 15.1637 14.7752 15.3802 14.409 15.5216C13.9038 15.7089 13.3702 15.808 12.8315 15.8145C11.9361 15.8551 11.6652 15.8637 9.39925 15.8637C7.13327 15.8637 6.86288 15.8551 5.96702 15.8145C5.42844 15.808 4.89498 15.709 4.38999 15.5216C4.02368 15.3803 3.691 15.1638 3.41337 14.8862C3.13574 14.6086 2.91931 14.2759 2.77798 13.9096C2.59081 13.4046 2.4919 12.8711 2.48555 12.3326C2.44235 11.4371 2.43588 11.1685 2.43588 8.90032C2.43588 6.63218 2.44451 6.36395 2.48555 5.46809C2.4919 4.92954 2.59081 4.39609 2.77798 3.89106C2.91931 3.52475 3.13574 3.19208 3.41337 2.91445C3.691 2.63682 4.02368 2.42038 4.38999 2.27904C4.89502 2.09188 5.42847 1.99296 5.96702 1.98662C6.86288 1.94342 7.13327 1.93694 9.39925 1.93694ZM9.39925 0.406564C7.09266 0.406564 6.80326 0.416499 5.89747 0.457534C5.19291 0.471957 4.49585 0.605439 3.8358 0.852332C3.27158 1.07069 2.75919 1.40448 2.33143 1.83232C1.90366 2.26016 1.56996 2.77262 1.35169 3.33688C1.10438 3.99681 0.970887 4.69394 0.956896 5.39855C0.913702 6.30563 0.905487 6.59374 0.905487 8.90032C0.905487 11.2069 0.91543 11.4963 0.956896 12.4025C0.970937 13.1071 1.10443 13.8043 1.35169 14.4642C1.56999 15.0283 1.90373 15.5406 2.33151 15.9682C2.75928 16.3958 3.27164 16.7294 3.8358 16.9475C4.49579 17.1946 5.19288 17.328 5.89747 17.3423C6.80456 17.3854 7.09266 17.3932 9.39925 17.3932C11.7058 17.3932 11.9952 17.3833 12.9015 17.3423C13.6061 17.328 14.3031 17.1945 14.9631 16.9475C15.5274 16.7293 16.0398 16.3956 16.4676 15.9678C16.8954 15.54 17.2291 15.0276 17.4473 14.4633C17.6943 13.8033 17.8278 13.1063 17.842 12.4017C17.8852 11.4946 17.893 11.2065 17.893 8.89946C17.893 6.59244 17.8831 6.30347 17.842 5.39769C17.8278 4.6931 17.6944 3.99601 17.4473 3.33601C17.229 2.77175 16.8953 2.2593 16.4675 1.83146C16.0398 1.40362 15.5274 1.06983 14.9631 0.851467C14.3031 0.604615 13.606 0.471135 12.9015 0.45667C11.9944 0.413476 11.7063 0.405701 9.39925 0.405701" fill="#0170B9"/>
<path d="M9.39922 4.539C8.53637 4.539 7.69289 4.79487 6.97546 5.27424C6.25803 5.75361 5.69886 6.43496 5.36867 7.23213C5.03847 8.0293 4.95209 8.90648 5.12042 9.75275C5.28876 10.599 5.70424 11.3764 6.31436 11.9865C6.92449 12.5966 7.70185 13.0121 8.54812 13.1805C9.39438 13.3488 10.2716 13.2624 11.0687 12.9322C11.8659 12.602 12.5473 12.0428 13.0266 11.3254C13.506 10.608 13.7619 9.76449 13.7619 8.90164C13.7619 7.7446 13.3022 6.63494 12.4841 5.81679C11.6659 4.99864 10.5563 4.539 9.39922 4.539ZM9.39922 11.7317C8.83922 11.7317 8.29182 11.5657 7.82619 11.2546C7.36057 10.9434 6.99765 10.5012 6.78335 9.98388C6.56905 9.46651 6.51299 8.89721 6.62224 8.34797C6.73149 7.79873 7.00115 7.29422 7.39712 6.89825C7.7931 6.50227 8.29761 6.2326 8.84684 6.12335C9.39608 6.0141 9.96537 6.07018 10.4827 6.28448C11.0001 6.49878 11.4423 6.86169 11.7535 7.32731C12.0646 7.79293 12.2306 8.34035 12.2306 8.90035C12.2307 9.27219 12.1575 9.6404 12.0152 9.98394C11.8729 10.3275 11.6644 10.6396 11.4014 10.9026C11.1385 11.1655 10.8264 11.3741 10.4828 11.5163C10.1393 11.6586 9.77106 11.7318 9.39922 11.7317Z" fill="#0170B9"/>
<path d="M14.9527 4.36613C14.9528 4.56776 14.8931 4.76489 14.7812 4.93259C14.6692 5.10028 14.51 5.231 14.3238 5.30823C14.1375 5.38545 13.9325 5.4057 13.7348 5.36641C13.537 5.32713 13.3553 5.23007 13.2127 5.08753C13.0701 4.94498 12.973 4.76334 12.9336 4.56559C12.8942 4.36784 12.9144 4.16285 12.9915 3.97655C13.0687 3.79026 13.1993 3.63103 13.367 3.519C13.5346 3.40696 13.7317 3.34717 13.9334 3.34717C14.2036 3.34728 14.4628 3.45466 14.6539 3.64571C14.845 3.83677 14.9525 4.09588 14.9527 4.36613Z" fill="#0170B9"/>
</svg>
