<svg width="72" height="69" viewBox="0 0 72 69" fill="none" xmlns="http://www.w3.org/2000/svg">
<path d="M71.6132 44.5406C68.44 50.0468 65.2477 55.5438 62.1085 61.0709C61.8619 61.5833 61.4662 62.0091 60.9732 62.2925C60.4802 62.5758 59.913 62.7034 59.3462 62.6586C54.4719 62.612 49.597 62.6376 44.7227 62.6363H43.7814C43.7814 63.5913 43.7899 64.4907 43.7774 65.3894C43.7988 65.8068 43.7673 66.2253 43.6837 66.6348C43.5918 66.9429 43.4285 67.225 43.207 67.4581C42.9856 67.6913 42.7122 67.8689 42.4092 67.9765C42.1062 68.0841 41.7821 68.1187 41.4632 68.0775C41.1444 68.0363 40.8397 67.9204 40.574 67.7393C40.3301 67.5592 40.1032 67.3572 39.8962 67.1356C36.4972 63.7402 33.1004 60.3425 29.7058 56.9426C28.3811 55.6172 28.3797 54.6103 29.6993 53.2895C33.1118 49.8737 36.5165 46.4513 39.95 43.0565C40.3328 42.6554 40.8115 42.3585 41.3409 42.1939C41.6261 42.1254 41.9229 42.1219 42.2096 42.1835C42.4963 42.2451 42.7654 42.3703 42.9972 42.5499C43.229 42.7295 43.4175 42.9588 43.5488 43.221C43.6801 43.4832 43.7508 43.7715 43.7558 44.0647C43.8043 45.179 43.7663 46.2999 43.7663 47.4215H56.3093C56.1231 47.0524 56.0182 46.8243 55.8956 46.606C54.2538 43.6812 52.6094 40.7572 50.9624 37.8341C50.7291 37.5123 50.5839 37.1351 50.5414 36.7399C50.4988 36.3447 50.5603 35.9453 50.7198 35.5812C50.9465 35.1138 51.339 34.7475 51.8209 34.5536C52.3028 34.3598 52.8396 34.3522 53.3268 34.5324C55.0376 34.9775 56.7439 35.4416 58.5413 35.9214C58.6802 35.4324 58.8152 34.9762 58.9391 34.5166C59.2964 33.1899 59.6425 31.8606 60.0056 30.5358C60.0862 30.1069 60.3011 29.7147 60.6193 29.416C60.9374 29.1173 61.3424 28.9275 61.7755 28.8741C62.2072 28.8078 62.6487 28.8825 63.0347 29.0868C63.4207 29.2912 63.7305 29.6145 63.9183 30.0088C66.3734 34.2944 68.8245 38.5825 71.2717 42.873C71.3976 43.0945 71.4992 43.3318 71.6119 43.5586L71.6132 44.5406Z" fill="white"/>
<path d="M8.28394 28.9604C7.30069 28.3894 6.343 27.8703 5.42268 27.2882C5.11993 27.1221 4.86401 26.8822 4.67863 26.5909C4.49325 26.2995 4.3844 25.9661 4.36217 25.6215C4.33995 25.2769 4.40507 24.9323 4.55149 24.6195C4.69792 24.3068 4.92091 24.036 5.19981 23.8324C5.48895 23.6376 5.80996 23.495 6.14831 23.4109C10.9361 22.1196 15.7258 20.8359 20.5175 19.5599C22.0022 19.1666 22.996 19.7152 23.3932 21.1875C24.6918 25.9975 25.9667 30.8135 27.2606 35.6242C27.4203 36.0485 27.4384 36.5131 27.3123 36.9486C27.1862 37.3841 26.9227 37.7671 26.561 38.0406C26.1993 38.314 25.7589 38.4631 25.3056 38.4656C24.8522 38.4682 24.4102 38.3241 24.0454 38.0548C23.1815 37.5487 22.3116 37.0538 21.3769 36.515L15.2558 47.4324C15.6255 47.4494 15.872 47.4671 16.1185 47.4704C19.5697 47.513 23.0215 47.5399 26.4754 47.6015C26.8318 47.5804 27.1876 47.6528 27.5075 47.8116C27.8273 47.9704 28.1001 48.21 28.2989 48.5067C28.4976 48.8034 28.6153 49.1468 28.6404 49.5031C28.6655 49.8593 28.597 50.2158 28.4419 50.5375C28.2445 50.8807 27.9958 51.1917 27.7044 51.4598C26.5108 52.6705 25.3027 53.8667 24.0631 55.1056C25.3669 56.412 26.6287 57.685 27.9004 58.9475C28.19 59.1855 28.4152 59.4923 28.5555 59.8399C28.6958 60.1874 28.7467 60.5646 28.7034 60.937C28.6279 61.4637 28.3538 61.9416 27.9375 62.273C27.5211 62.6043 26.9938 62.764 26.4636 62.7193C24.7842 62.7317 23.1048 62.7147 21.426 62.7048C18.2796 62.6858 15.1287 62.6393 11.9803 62.6544C11.4802 62.6835 10.9827 62.5644 10.5501 62.3119C10.1175 62.0595 9.76902 61.6849 9.5484 61.2352C6.52785 55.9576 3.48699 50.6917 0.425804 45.4377C0.144376 45.0095 -0.00377717 44.5076 7.31873e-05 43.9952C0.00392355 43.4829 0.159608 42.9832 0.447438 42.5594C2.95407 38.277 5.42202 33.9723 7.90309 29.6735C8.02698 29.4579 8.13842 29.2324 8.28394 28.9604Z" fill="white"/>
<path d="M42.1489 22.6193L35.7585 11.8573C35.573 12.1523 35.4373 12.3594 35.3108 12.5718C33.5619 15.517 31.8235 18.4713 30.0609 21.4053C29.1753 22.8815 27.3963 23.0441 26.4956 21.741C26.3105 21.4462 26.1747 21.1231 26.0938 20.7846C25.6258 19.1052 25.1761 17.4199 24.7002 15.6533C23.4783 15.9772 22.2965 16.2944 21.1127 16.6031C20.3916 16.7913 19.6705 16.9905 18.9449 17.1407C18.5892 17.2218 18.2176 17.1978 17.8752 17.0716C17.5328 16.9455 17.2345 16.7226 17.0164 16.4301C16.7722 16.144 16.6154 15.7937 16.5648 15.421C16.5141 15.0483 16.5717 14.6688 16.7306 14.3279C16.8426 14.0721 16.9719 13.8242 17.1174 13.5859C19.4634 9.55915 21.8291 5.54356 24.1483 1.50175C24.3856 1.02215 24.7602 0.623937 25.2243 0.357706C25.6885 0.091474 26.2214 -0.0307432 26.7552 0.00657076C32.7963 0.0402197 38.8374 0.0402197 44.8784 0.00657076C45.3901 -0.0262635 45.9001 0.0931754 46.344 0.349824C46.7879 0.606472 47.1458 0.988821 47.3726 1.44866C49.8314 5.75988 52.3243 10.0514 54.8053 14.3495C54.9319 14.5678 55.0675 14.7822 55.2334 15.0601C56.1275 14.5469 56.996 14.0618 57.8501 13.5525C58.2175 13.2773 58.6622 13.1248 59.1211 13.1168C59.5801 13.1088 60.0299 13.2457 60.4066 13.5079C61.1722 14.0421 61.4088 14.8903 61.1093 16.0171C59.838 20.7866 58.5607 25.5547 57.2772 30.3214C56.8695 31.8291 55.8574 32.4066 54.3675 32.0094C49.5758 30.7311 44.7856 29.4466 39.9969 28.1557C38.3051 27.6968 37.6516 25.9768 38.7148 24.77C39.0289 24.4613 39.3867 24.2005 39.7767 23.9959C40.5318 23.537 41.304 23.109 42.1489 22.6193Z" fill="white"/>
</svg>
