<svg width="25" height="18" viewBox="0 0 25 18" fill="none" xmlns="http://www.w3.org/2000/svg">
<path d="M24.3793 3.13337C24.2393 2.60576 23.9631 2.12422 23.5783 1.73699C23.1936 1.34975 22.7139 1.07042 22.1872 0.926994C20.2534 0.405637 12.4995 0.40564 12.4995 0.40564C12.4995 0.40564 4.74569 0.405637 2.81231 0.926994C2.2856 1.07048 1.80584 1.34982 1.42104 1.73704C1.03625 2.12426 0.75993 2.60577 0.619759 3.13337C0.101425 5.07971 0.101425 9.14042 0.101425 9.14042C0.101425 9.14042 0.101425 13.2007 0.619759 15.147C0.759984 15.6747 1.03631 16.1562 1.42109 16.5435C1.80587 16.9308 2.28561 17.2102 2.81231 17.3539C4.74569 17.8752 12.4995 17.8752 12.4995 17.8752C12.4995 17.8752 20.2534 17.8752 22.1872 17.3539C22.7139 17.2103 23.1936 16.9308 23.5783 16.5435C23.963 16.1562 24.2392 15.6747 24.3793 15.147C24.8976 13.2033 24.8976 9.14042 24.8976 9.14042C24.8976 9.14042 24.8976 5.07971 24.3793 3.13337Z" fill="#0170B9"/>
<path d="M9.96355 12.8272V5.45349L16.4444 9.14057L9.96355 12.8272Z" fill="white"/>
</svg>
