<svg width="25" height="19" viewBox="0 0 25 19" fill="none" xmlns="http://www.w3.org/2000/svg">
<path d="M24.2779 3.50391C24.1379 2.97631 23.8617 2.49476 23.4769 2.10753C23.0922 1.7203 22.6124 1.44097 22.0858 1.29754C20.1519 0.776181 12.3981 0.776184 12.3981 0.776184C12.3981 0.776184 4.64427 0.776181 2.71088 1.29754C2.18418 1.44102 1.70441 1.72036 1.31962 2.10758C0.934822 2.4948 0.658505 2.97632 0.518334 3.50391C-1.02984e-07 5.45026 0 9.51097 0 9.51097C0 9.51097 -1.02984e-07 13.5712 0.518334 15.5176C0.658559 16.0452 0.934886 16.5267 1.31967 16.914C1.70445 17.3013 2.18419 17.5808 2.71088 17.7244C4.64427 18.2458 12.3981 18.2458 12.3981 18.2458C12.3981 18.2458 20.1519 18.2458 22.0858 17.7244C22.6124 17.5808 23.0922 17.3014 23.4769 16.9141C23.8616 16.5268 24.1378 16.0452 24.2779 15.5176C24.7962 13.5738 24.7962 9.51097 24.7962 9.51097C24.7962 9.51097 24.7962 5.45026 24.2779 3.50391Z" fill="white"/>
<path d="M9.86212 13.1978V5.82404L16.343 9.51111L9.86212 13.1978Z" fill="#A9CA4A"/>
</svg>
