<svg width="18" height="18" viewBox="0 0 18 18" fill="none" xmlns="http://www.w3.org/2000/svg">
<path d="M9.29784 2.30749C11.566 2.30749 11.8347 2.31613 12.7301 2.35716C13.2688 2.36358 13.8023 2.46249 14.3075 2.64959C14.6737 2.79102 15.0063 3.0075 15.2838 3.28512C15.5614 3.56274 15.7778 3.89537 15.9191 4.26161C16.1065 4.76657 16.2054 5.30006 16.2116 5.83864C16.2548 6.73449 16.2612 7.00489 16.2612 9.27087C16.2612 11.5369 16.2526 11.8077 16.2116 12.7031C16.2054 13.2417 16.1065 13.7752 15.9191 14.2801C15.7778 14.6464 15.5614 14.979 15.2838 15.2566C15.0063 15.5342 14.6737 15.7507 14.3075 15.8922C13.8024 16.0795 13.2688 16.1785 12.7301 16.185C11.8347 16.2256 11.5638 16.2343 9.29784 16.2343C7.03186 16.2343 6.76147 16.2256 5.86561 16.185C5.32703 16.1786 4.79357 16.0795 4.28858 15.8922C3.92227 15.7508 3.58959 15.5344 3.31196 15.2567C3.03433 14.9791 2.8179 14.6464 2.67657 14.2801C2.4894 13.7751 2.39049 13.2417 2.38414 12.7031C2.34095 11.8077 2.33447 11.539 2.33447 9.27087C2.33447 7.00273 2.3431 6.73449 2.38414 5.83864C2.39049 5.30008 2.4894 4.76663 2.67657 4.26161C2.8179 3.8953 3.03433 3.56263 3.31196 3.28499C3.58959 3.00736 3.92227 2.79092 4.28858 2.64959C4.79361 2.46243 5.32706 2.36351 5.86561 2.35716C6.76147 2.31397 7.03186 2.30749 9.29784 2.30749M9.29784 0.777109C6.99125 0.777109 6.70185 0.787043 5.79606 0.828078C5.0915 0.842501 4.39444 0.975983 3.73439 1.22288C3.17017 1.44124 2.65778 1.77503 2.23002 2.20287C1.80225 2.6307 1.46855 3.14316 1.25028 3.70742C1.00297 4.36735 0.869477 5.06448 0.855487 5.76909C0.812292 6.67618 0.804077 6.96428 0.804077 9.27087C0.804077 11.5775 0.81402 11.8669 0.855487 12.7731C0.869528 13.4777 1.00302 14.1748 1.25028 14.8347C1.46858 15.3988 1.80232 15.9111 2.2301 16.3387C2.65787 16.7663 3.17023 17.0999 3.73439 17.318C4.39438 17.5651 5.09147 17.6986 5.79606 17.7128C6.70315 17.756 6.99125 17.7638 9.29784 17.7638C11.6044 17.7638 11.8938 17.7538 12.8001 17.7128C13.5046 17.6985 14.2017 17.5651 14.8617 17.318C15.426 17.0998 15.9384 16.7661 16.3662 16.3383C16.794 15.9106 17.1276 15.3981 17.3458 14.8339C17.5929 14.1739 17.7264 13.4768 17.7406 12.7722C17.7838 11.8651 17.7916 11.577 17.7916 9.27001C17.7916 6.96299 17.7817 6.67402 17.7406 5.76823C17.7264 5.06364 17.5929 4.36655 17.3458 3.70656C17.1276 3.1423 16.7939 2.62984 16.3661 2.202C15.9383 1.77416 15.426 1.44037 14.8617 1.22201C14.2017 0.975159 13.5046 0.841679 12.8001 0.827215C11.893 0.78402 11.6049 0.776245 9.29784 0.776245" fill="white"/>
<path d="M9.29781 4.90955C8.43496 4.90955 7.59148 5.16541 6.87405 5.64478C6.15662 6.12416 5.59745 6.80551 5.26726 7.60268C4.93706 8.39984 4.85068 9.27703 5.01901 10.1233C5.18735 10.9696 5.60283 11.7469 6.21295 12.357C6.82308 12.9672 7.60044 13.3827 8.44671 13.551C9.29297 13.7193 10.1702 13.6329 10.9673 13.3027C11.7645 12.9725 12.4459 12.4134 12.9252 11.6959C13.4046 10.9785 13.6605 10.135 13.6605 9.27219C13.6605 8.11514 13.2008 7.00549 12.3827 6.18733C11.5645 5.36918 10.4549 4.90955 9.29781 4.90955ZM9.29781 12.1023C8.73781 12.1023 8.19041 11.9362 7.72478 11.6251C7.25916 11.314 6.89624 10.8718 6.68194 10.3544C6.46764 9.83705 6.41158 9.26775 6.52083 8.71851C6.63008 8.16928 6.89974 7.66477 7.29571 7.26879C7.69169 6.87281 8.1962 6.60315 8.74543 6.4939C9.29467 6.38465 9.86396 6.44072 10.3813 6.65502C10.8987 6.86932 11.3409 7.23223 11.652 7.69785C11.9632 8.16347 12.1292 8.71089 12.1292 9.27089C12.1293 9.64273 12.0561 10.0109 11.9138 10.3545C11.7715 10.698 11.563 11.0102 11.3 11.2731C11.0371 11.536 10.725 11.7446 10.3814 11.8869C10.0379 12.0291 9.66965 12.1023 9.29781 12.1023" fill="white"/>
<path d="M14.8513 4.73667C14.8514 4.9383 14.7917 5.13544 14.6798 5.30313C14.5678 5.47082 14.4086 5.60155 14.2223 5.67877C14.0361 5.75599 13.8311 5.77624 13.6333 5.73696C13.4356 5.69767 13.2539 5.60062 13.1113 5.45807C12.9687 5.31552 12.8715 5.13389 12.8322 4.93613C12.7928 4.73838 12.813 4.53339 12.8901 4.3471C12.9673 4.1608 13.0979 4.00157 13.2656 3.88954C13.4332 3.77751 13.6303 3.71771 13.8319 3.71771C14.1022 3.71783 14.3614 3.8252 14.5525 4.01626C14.7436 4.20731 14.8511 4.46642 14.8513 4.73667" fill="white"/>
</svg>
