<svg width="131" height="50" viewBox="0 0 131 50" fill="none" xmlns="http://www.w3.org/2000/svg">
<path d="M85.0016 13.3446L75.1302 12.1579L68.5331 1.59963C68.2268 1.11008 67.801 0.706437 67.2958 0.42662C66.7907 0.146804 66.2227 0 65.6452 0C65.0677 0 64.4997 0.146804 63.9945 0.42662C63.4893 0.706437 63.0636 1.11008 62.7572 1.59963L56.1623 12.1579L46.2908 13.3446C45.6374 13.4232 45.0208 13.6895 44.5156 14.1113C44.0104 14.5331 43.6382 15.0923 43.4442 15.7212C43.2502 16.3501 43.2427 17.0217 43.4225 17.6548C43.6023 18.2879 43.9617 18.8554 44.4573 19.2884L52.1696 26.0283L49.7563 37.1305C49.618 37.7675 49.6653 38.4308 49.8928 39.0416C50.1203 39.6524 50.5183 40.1851 51.0396 40.5764C51.561 40.9676 52.1836 41.201 52.8337 41.2488C53.4837 41.2966 54.1338 41.1568 54.7068 40.846L65.6452 34.9084L76.5836 40.846C77.1565 41.1568 77.8066 41.2966 78.4567 41.2488C79.1067 41.201 79.7294 40.9676 80.2507 40.5764C80.772 40.1851 81.1701 39.6524 81.3975 39.0416C81.625 38.4308 81.6724 37.7675 81.534 37.1305L79.1207 26.0283L86.8352 19.2884C87.3308 18.8554 87.6902 18.2879 87.87 17.6548C88.0498 17.0217 88.0422 16.3501 87.8482 15.7212C87.6542 15.0923 87.2821 14.5331 86.7769 14.1113C86.2717 13.6895 85.655 13.4232 85.0016 13.3446Z" fill="white"/>
<path d="M29.8542 29.415L22.7884 28.5656L18.0664 21.0083C17.8471 20.6579 17.5424 20.3689 17.1808 20.1686C16.8192 19.9684 16.4126 19.8633 15.9992 19.8633C15.5859 19.8633 15.1793 19.9684 14.8177 20.1686C14.4561 20.3689 14.1514 20.6579 13.9321 21.0083L9.21159 28.5656L2.14581 29.415C1.6781 29.4713 1.23673 29.6619 0.875116 29.9639C0.5135 30.2658 0.247143 30.666 0.108281 31.1162C-0.0305819 31.5663 -0.0359967 32.0471 0.0926917 32.5002C0.22138 32.9534 0.478655 33.3596 0.833378 33.6695L6.35371 38.4938L4.62635 46.4406C4.5273 46.8965 4.5612 47.3712 4.72402 47.8085C4.88685 48.2457 5.17176 48.627 5.54491 48.907C5.91805 49.1871 6.36375 49.3541 6.82904 49.3883C7.29433 49.4225 7.75967 49.3225 8.16976 49.1L15.9992 44.85L23.8287 49.1C24.2388 49.3225 24.7042 49.4225 25.1695 49.3883C25.6348 49.3541 26.0804 49.1871 26.4536 48.907C26.8267 48.627 27.1116 48.2457 27.2745 47.8085C27.4373 47.3712 27.4712 46.8965 27.3721 46.4406L25.6448 38.4938L31.1666 33.6695C31.5213 33.3596 31.7786 32.9534 31.9073 32.5002C32.036 32.0471 32.0306 31.5663 31.8917 31.1162C31.7529 30.666 31.4865 30.2658 31.1249 29.9639C30.7633 29.6619 30.3219 29.4713 29.8542 29.415Z" fill="white"/>
<path d="M128.854 29.415L121.788 28.5656L117.066 21.0083C116.847 20.6579 116.542 20.3689 116.181 20.1686C115.819 19.9684 115.413 19.8633 114.999 19.8633C114.586 19.8633 114.179 19.9684 113.818 20.1686C113.456 20.3689 113.151 20.6579 112.932 21.0083L108.212 28.5656L101.146 29.415C100.678 29.4713 100.237 29.6619 99.8751 29.9639C99.5135 30.2658 99.2471 30.666 99.1083 31.1162C98.9694 31.5663 98.964 32.0471 99.0927 32.5002C99.2214 32.9534 99.4787 33.3596 99.8334 33.6695L105.354 38.4938L103.626 46.4406C103.527 46.8965 103.561 47.3712 103.724 47.8085C103.887 48.2457 104.172 48.627 104.545 48.907C104.918 49.1871 105.364 49.3541 105.829 49.3883C106.294 49.4225 106.76 49.3225 107.17 49.1L114.999 44.85L122.829 49.1C123.239 49.3225 123.704 49.4225 124.169 49.3883C124.635 49.3541 125.08 49.1871 125.454 48.907C125.827 48.627 126.112 48.2457 126.274 47.8085C126.437 47.3712 126.471 46.8965 126.372 46.4406L124.645 38.4938L130.167 33.6695C130.521 33.3596 130.779 32.9534 130.907 32.5002C131.036 32.0471 131.031 31.5663 130.892 31.1162C130.753 30.666 130.486 30.2658 130.125 29.9639C129.763 29.6619 129.322 29.4713 128.854 29.415Z" fill="white"/>
</svg>
