<svg width="191" height="207" viewBox="0 0 191 207" fill="none" xmlns="http://www.w3.org/2000/svg">
<path d="M120.156 63.248L146.941 56.0712C146.029 52.1725 145.029 48.5272 143.985 45.1966L128.125 49.4453L120.156 63.248Z" fill="#32AC5E"/>
<path d="M99.7905 98.5239L151.14 84.7647C150.902 80.8792 150.534 77.0759 150.06 73.3873L107.759 84.7212L99.7905 98.5239Z" fill="#32AC5E"/>
<path d="M109.973 80.8863L149.628 70.2609C149.06 66.3952 148.384 62.6695 147.626 59.13L117.943 67.0832L109.973 80.8863Z" fill="#32AC5E"/>
<path d="M130.34 45.6101L143.009 42.2154C141.812 38.6198 140.385 35.1051 138.736 31.6932L138.31 31.8072L130.34 45.6101Z" fill="#32AC5E"/>
<path d="M89.6064 116.162L151.371 99.6119C151.496 95.681 151.468 91.7869 151.307 87.9612L97.5761 102.358L89.6064 116.162Z" fill="#32AC5E"/>
<path d="M79.4237 133.8L150.073 114.87C150.639 110.87 151.018 106.867 151.232 102.892L87.3917 119.999L79.4237 133.8Z" fill="#32AC5E"/>
<path d="M36.7449 162.106L23.3853 112.248C21.8789 121.03 22.2932 130.034 24.5994 138.642C26.9056 147.249 31.0492 155.254 36.7449 162.106Z" fill="#32AC5E"/>
<path d="M135.598 30.2412L135.484 29.8156C131.704 30.0931 127.946 30.6141 124.234 31.3752L127.629 44.0443L135.598 30.2412Z" fill="#32AC5E"/>
<path d="M123.396 169.988L73.5365 183.348C82.319 184.854 91.3235 184.44 99.9305 182.134C108.538 179.827 116.543 175.684 123.396 169.988Z" fill="#32AC5E"/>
<path d="M59.0565 169.076L140.554 147.239C142.575 143.014 144.3 138.653 145.715 134.189L67.0255 155.273L59.0565 169.076Z" fill="#32AC5E"/>
<path d="M69.2408 151.438L146.776 130.662C147.921 126.578 148.846 122.436 149.546 118.252L77.2101 137.635L69.2408 151.438Z" fill="#32AC5E"/>
<path d="M54.6244 176.755C58.5614 178.9 62.7211 180.608 67.0294 181.849L128.284 165.435C131.758 161.829 134.778 157.812 137.28 153.475C137.551 153.006 137.815 152.534 138.072 152.061C138.268 151.706 138.455 151.348 138.647 150.991L56.8434 172.912L54.6244 176.755Z" fill="#32AC5E"/>
<path d="M74.4979 136.069L55.1154 63.7331C51.8429 66.4312 48.7177 69.3032 45.7534 72.3367L66.5289 149.872L74.4979 136.069Z" fill="#32AC5E"/>
<path d="M94.8641 100.794L80.4665 47.0629C77.0729 48.8363 73.687 50.7593 70.3448 52.8329L86.8948 114.597L94.8641 100.794Z" fill="#32AC5E"/>
<path d="M64.3138 153.708L43.2284 75.0174C40.0692 78.4754 37.1553 82.1496 34.5077 86.0133L56.3448 167.511L64.3138 153.708Z" fill="#32AC5E"/>
<path d="M51.912 175.189L54.1315 171.345L32.212 89.543C31.9989 89.8871 31.7816 90.2282 31.5725 90.5758C31.2909 91.0352 31.0143 91.5 30.7429 91.9701C28.2384 96.3044 26.2712 100.928 24.8846 105.738L41.2983 166.993C44.5269 170.104 48.086 172.852 51.912 175.189Z" fill="#32AC5E"/>
<path d="M84.6805 118.433L67.5762 54.5903C64.2409 56.7632 60.9637 59.092 57.7827 61.5825L76.7137 132.232L84.6805 118.433Z" fill="#32AC5E"/>
<path d="M115.231 65.5173L107.276 35.8323C103.832 36.9459 100.267 38.2228 96.6355 39.6639L107.261 79.3183L115.231 65.5173Z" fill="#32AC5E"/>
<path d="M125.415 47.8798L121.165 32.0216C117.758 32.7817 114.101 33.7378 110.27 34.8989L117.447 61.6832L125.415 47.8798Z" fill="#32AC5E"/>
<path d="M105.047 83.1558L93.7127 40.8561C90.28 42.2921 86.803 43.8723 83.3188 45.6085L97.0784 96.9587L105.047 83.1558Z" fill="#32AC5E"/>
</svg>
