<svg width="59" height="92" viewBox="0 0 59 92" fill="none" xmlns="http://www.w3.org/2000/svg">
<path d="M10.1437 47.692C8.8337 42.7333 9.03262 37.9906 12.0552 33.6283C13.8297 31.1045 16.0751 28.9473 18.668 27.2755C22.7092 24.4852 27.3491 22.6829 32.2142 22.0137C37.8884 21.3147 40.4475 25.2711 41.1254 28.8689C41.8032 32.4667 40.6483 35.6044 38.797 38.6119C37.3322 40.8265 36.0112 43.133 34.8423 45.5171C33.707 47.988 33.4347 50.7686 34.069 53.4128C34.7033 56.057 36.2074 58.4114 38.34 60.0984C40.5245 61.8967 42.9023 63.4622 45.0511 65.3013C49.3461 68.9816 50.6112 73.8272 49.7286 79.2203C49.2361 82.2338 47.0647 84.099 44.3783 85.3912C40.699 87.1612 37.0247 87.6851 33.4137 85.3006C30.8662 83.5718 29.0314 80.9783 28.2493 78.0005C26.8397 73.1561 24.4584 68.6496 21.2504 64.7555C19.4801 62.5952 17.6938 60.45 15.944 58.2696C13.8587 55.6739 11.9593 52.9572 10.8494 49.7767C10.6073 49.0841 10.3789 48.3885 10.1437 47.692Z" fill="#32AC5E"/>
<path d="M30.229 14.1527C29.3173 12.6969 28.7542 11.0503 28.5837 9.34106C28.3326 6.96081 28.5916 4.84194 29.9943 2.88054C31.6121 0.618569 34.2843 0.448381 36.2071 2.42262C38.9202 5.21218 39.7294 10.5847 37.9637 14.0884C36.325 17.3404 32.9529 17.7254 30.7109 14.843C30.5387 14.6202 30.376 14.3882 30.229 14.1527Z" fill="#32AC5E"/>
<path d="M26.4471 11.6481C26.9376 13.2702 26.8224 15.0153 26.1228 16.5588C25.1003 18.7172 22.9795 19.1317 21.2381 17.5216C19.1634 15.604 18.5349 11.6561 19.9169 9.1851C20.9272 7.38345 22.8877 6.9247 24.395 8.34197C25.4298 9.18327 26.1524 10.3475 26.4471 11.6481Z" fill="#32AC5E"/>
<path d="M12.2968 14.9817C12.3089 14.9298 12.3217 14.8785 12.3352 14.8269C12.8253 12.9696 14.4987 12.3908 16.0325 13.5467C16.9896 14.3527 17.6797 15.4299 18.012 16.6361C18.3442 17.8424 18.3029 19.1211 17.8936 20.3034C17.1958 21.9967 15.5365 22.5192 14.1946 21.2845C14.0701 21.1701 13.9519 21.0494 13.8384 20.924C13.1226 20.1305 12.6088 19.176 12.3404 18.1415C12.072 17.1071 12.0571 16.0231 12.2968 14.9817Z" fill="#32AC5E"/>
<path d="M12.8986 22.4301C12.9216 22.6649 13.435 24.4318 11.9016 25.4883C11.1874 25.9805 10.3888 25.7053 9.67412 25.2464C8.91677 24.7423 8.32587 24.025 7.97607 23.1851C7.62627 22.3453 7.53329 21.4206 7.70887 20.5279C8.01759 19.1139 9.2462 18.5644 10.6022 19.2354C11.1787 19.5879 11.6788 20.0521 12.0732 20.6008C12.4676 21.1494 12.7482 21.7714 12.8986 22.4301Z" fill="#32AC5E"/>
<path d="M7.38452 30.5283C6.68596 30.0458 6.16756 29.3448 5.91084 28.5356C5.65412 27.7264 5.67365 26.8547 5.96635 26.0578C6.01528 25.9252 6.07163 25.7954 6.13511 25.6691C6.33494 25.4587 6.58428 25.3015 6.86038 25.2121C7.13649 25.1226 7.43059 25.1037 7.71588 25.157C9.44506 25.6882 10.2439 28.9826 8.95979 30.2539C8.74503 30.4269 8.49068 30.5439 8.21957 30.5944C7.94846 30.6448 7.66906 30.6272 7.40645 30.543L7.38452 30.5283Z" fill="#32AC5E"/>
</svg>
