<svg width="192" height="45" viewBox="0 0 192 45" fill="none" xmlns="http://www.w3.org/2000/svg">
<path d="M22.143 2.68652L18.7012 6.12484V10.8455L24.5145 5.038C23.7026 4.17296 22.9052 3.38606 22.143 2.68652Z" fill="#0170B9"/>
<path d="M21.3487 20.2653L29.8464 11.7761C29.2093 10.8148 28.5508 9.89378 27.8822 9.01782L18.7012 18.1895V20.0738H20.3206C20.6721 20.0744 21.0206 20.1393 21.3487 20.2653Z" fill="#0170B9"/>
<path d="M25.1442 5.7207L18.7012 12.1571V16.8779L27.3081 8.27983C26.5895 7.37188 25.8634 6.51637 25.1442 5.7207Z" fill="#0170B9"/>
<path d="M18.7938 0L18.7014 0.0922872V4.81309L21.4516 2.06616C20.611 1.32113 19.7232 0.630983 18.7938 0V0Z" fill="#0170B9"/>
<path d="M23.2109 22.9613V24.4379L32.1062 15.5503C31.5556 14.5235 30.9711 13.5288 30.3628 12.5713L22.177 20.7492C22.501 21.0197 22.7616 21.3581 22.9402 21.7404C23.1189 22.1226 23.2113 22.5394 23.2109 22.9613V22.9613Z" fill="#0170B9"/>
<path d="M25.6704 28.0132L34.0358 19.6562C33.5883 18.5463 33.0919 17.4637 32.5576 16.4124L23.2117 25.7487V26.548C24.0859 26.9385 24.9111 27.4303 25.6704 28.0132V28.0132Z" fill="#0170B9"/>
<path d="M1.11719 37.7456C2.13969 40.514 3.81905 42.9934 6.01128 44.9711V42.6347L1.11719 37.7456Z" fill="#0170B9"/>
<path d="M17.7726 0.0922872L17.6803 0C16.751 0.630922 15.8635 1.32107 15.0232 2.06616L17.7729 4.81309L17.7726 0.0922872Z" fill="#0170B9"/>
<path d="M35.3565 37.7456L30.4624 42.6348V44.9712C32.6547 42.9935 34.334 40.5141 35.3565 37.7456Z" fill="#0170B9"/>
<path d="M36.3899 29.3691C36.2827 27.9859 36.0791 26.6119 35.7805 25.2571L29.0413 31.9894C29.6254 33.0873 30.0368 34.2685 30.2612 35.4914L36.3899 29.3691Z" fill="#0170B9"/>
<path d="M28.5576 31.161L35.53 24.1958C35.2185 22.9787 34.8418 21.7791 34.4016 20.6023L26.3882 28.6074C27.2247 29.3556 27.9547 30.2148 28.5576 31.161V31.161Z" fill="#0170B9"/>
<path d="M30.4626 41.3229L35.9368 35.8536C36.2941 34.4142 36.4744 32.9366 36.4737 31.4535C36.4737 31.293 36.4716 31.1331 36.4674 30.9736C36.4653 30.8535 36.46 30.734 36.4563 30.614L30.4158 36.649C30.4456 36.9969 30.462 37.3485 30.462 37.7043L30.4626 41.3229Z" fill="#0170B9"/>
<path d="M10.0854 28.6074L2.07205 20.6023C1.63179 21.7791 1.2551 22.9787 0.943604 24.1958L7.91598 31.161C8.5189 30.2148 9.24884 29.3556 10.0854 28.6074V28.6074Z" fill="#0170B9"/>
<path d="M14.2966 20.7493L6.11034 12.5718C5.50201 13.5293 4.91754 14.524 4.36694 15.5508L13.2627 24.4375V22.9609C13.2625 22.5391 13.3549 22.1224 13.5336 21.7403C13.7122 21.3582 13.9727 21.0199 14.2966 20.7493V20.7493Z" fill="#0170B9"/>
<path d="M0.693153 25.2571C0.394584 26.6119 0.190953 27.9859 0.0837402 29.3691L6.21174 35.4916C6.43603 34.2686 6.84749 33.0874 7.43165 31.9896L0.693153 25.2571Z" fill="#0170B9"/>
<path d="M6.05795 36.6489L0.0174 30.6145C0.0137047 30.7343 0.00846994 30.854 0.00631436 30.9741C0.00231114 31.1337 0.000206831 31.2936 1.5379e-06 31.454C-0.000607513 32.9369 0.179686 34.4143 0.536895 35.8536L6.01114 41.3224V37.7043C6.01114 37.3485 6.02808 36.9969 6.05795 36.6489Z" fill="#0170B9"/>
<path d="M13.2626 25.749L3.91659 16.4126C3.38247 17.4639 2.88607 18.5466 2.43848 19.6565L10.804 28.0134C11.5634 27.4305 12.3887 26.9388 13.263 26.5483L13.2626 25.749Z" fill="#0170B9"/>
<path d="M17.7725 12.1571L11.3293 5.7207C10.6101 6.51637 9.88417 7.37187 9.16528 8.27937L17.7722 16.8775L17.7725 12.1571Z" fill="#0170B9"/>
<path d="M17.7726 6.12475L14.3306 2.68628C13.5685 3.38582 12.7712 4.17272 11.9595 5.03791L17.7729 10.8454L17.7726 6.12475Z" fill="#0170B9"/>
<path d="M17.7726 20.0738V18.1895L8.59139 9.01782C7.92285 9.89455 7.26433 10.8148 6.6272 11.7761L15.125 20.2653C15.4531 20.1393 15.8015 20.0744 16.153 20.0738H17.7726Z" fill="#0170B9"/>
<path d="M81.5417 43.304L80.9984 42.0916H78.0493L77.5132 43.304H77.1038L79.3185 38.3701H79.7347L81.9504 43.304H81.5417ZM80.8502 41.7394L79.5238 38.7369L78.1975 41.7394H80.8502Z" fill="#0170B9"/>
<path d="M84.116 44.9871V39.8208H84.4545V40.6456C84.5938 40.3797 84.8053 40.1585 85.0648 40.0074C85.4468 39.8239 85.8813 39.7802 86.2923 39.8839C86.7034 39.9876 87.0649 40.2321 87.3139 40.5749C87.5629 40.9176 87.6836 41.3369 87.6549 41.7594C87.6261 42.1819 87.4498 42.581 87.1567 42.887C86.9872 43.0467 86.7878 43.1713 86.5698 43.2536C86.3518 43.3358 86.1197 43.3741 85.8868 43.3661C85.5921 43.3691 85.302 43.2925 85.0472 43.1444C84.789 42.9918 84.5806 42.7676 84.4474 42.4991V44.9871H84.116ZM86.9104 42.65C87.0496 42.5065 87.1573 42.3355 87.2266 42.1481C87.2958 41.9606 87.3251 41.7607 87.3126 41.5613C87.3257 41.3628 87.2966 41.1639 87.2272 40.9774C87.1579 40.791 87.0499 40.6213 86.9104 40.4794C86.6324 40.2241 86.2649 40.0886 85.8875 40.1022C85.6999 40.0971 85.5132 40.1311 85.3395 40.2021C85.1658 40.2731 85.0088 40.3795 84.8786 40.5145C84.6189 40.8036 84.4756 41.1786 84.4763 41.567C84.477 41.9555 84.6215 42.3299 84.8822 42.6182C85.0115 42.7536 85.1678 42.8606 85.3409 42.9322C85.514 43.0039 85.7002 43.0387 85.8875 43.0343C86.0748 43.0409 86.2616 43.0104 86.437 42.9446C86.6124 42.8787 86.7731 42.7788 86.9097 42.6506L86.9104 42.65Z" fill="#0170B9"/>
<path d="M90.2602 42.873C90.0892 42.7042 89.9556 42.5014 89.8681 42.2777C89.7806 42.054 89.7412 41.8145 89.7523 41.5746C89.7422 41.3329 89.7821 41.0917 89.8695 40.866C89.9569 40.6404 90.0899 40.4352 90.2602 40.2632C90.6019 39.9417 91.0536 39.7627 91.5231 39.7627C91.9925 39.7627 92.4442 39.9417 92.7859 40.2632C92.9563 40.4351 93.0894 40.6403 93.1769 40.866C93.2643 41.0916 93.3042 41.3328 93.2941 41.5746C93.3053 41.8145 93.2658 42.0541 93.1783 42.2778C93.0907 42.5015 92.957 42.7043 92.7859 42.873C92.4399 43.1859 91.9898 43.3592 91.5231 43.3592C91.0563 43.3592 90.6062 43.1859 90.2602 42.873ZM92.5461 42.6263C92.6837 42.4894 92.7912 42.3252 92.8617 42.1444C92.9321 41.9636 92.964 41.77 92.9552 41.5762C92.9633 41.3784 92.9309 41.181 92.86 40.9961C92.789 40.8112 92.681 40.6428 92.5425 40.5011C92.2693 40.2365 91.9036 40.0886 91.5231 40.0886C91.1425 40.0886 90.7769 40.2365 90.5036 40.5011C90.3651 40.6428 90.2571 40.8112 90.1861 40.9961C90.1152 41.181 90.0828 41.3784 90.0909 41.5762C90.0823 41.77 90.1142 41.9635 90.1847 42.1443C90.2551 42.3251 90.3625 42.4893 90.5 42.6263C90.7801 42.8806 91.145 43.0214 91.5235 43.0214C91.902 43.0214 92.267 42.8806 92.5471 42.6263H92.5461Z" fill="#0170B9"/>
<path d="M98.3944 39.821L96.179 44.9873H95.8119L96.5459 43.2607L95.1487 39.82H95.5227L96.335 41.8783L96.7444 42.8845L97.1464 41.8695L98.0214 39.8184L98.3944 39.821Z" fill="#0170B9"/>
<path d="M103.763 39.8208V43.304H103.417V42.5639C103.275 42.8138 103.067 43.02 102.816 43.1604C102.564 43.3008 102.28 43.37 101.992 43.3605C101.72 43.3611 101.451 43.2998 101.206 43.1813C100.962 43.0628 100.747 42.8901 100.579 42.6765C100.411 42.4628 100.294 42.2137 100.236 41.9481C100.179 41.6825 100.183 41.4073 100.247 41.1433C100.312 40.8794 100.436 40.6337 100.61 40.4248C100.784 40.2159 101.004 40.0493 101.252 39.9376C101.5 39.826 101.77 39.7722 102.042 39.7803C102.314 39.7885 102.58 39.8584 102.821 39.9847C103.076 40.1194 103.284 40.3284 103.417 40.5839V39.8224L103.763 39.8208ZM100.976 40.5151C100.713 40.8009 100.567 41.1751 100.567 41.5635C100.567 41.9519 100.713 42.3262 100.976 42.612C101.109 42.7459 101.267 42.8512 101.442 42.9216C101.616 42.9919 101.804 43.0257 101.992 43.021C102.239 43.0258 102.484 42.9701 102.705 42.8587C102.896 42.7643 103.059 42.6207 103.177 42.4425C103.288 42.2691 103.369 42.0787 103.417 41.879C103.469 41.6743 103.469 41.4599 103.417 41.2552C103.369 41.0542 103.288 40.8625 103.177 40.6878C103.059 40.5098 102.896 40.3663 102.705 40.272C102.484 40.1605 102.239 40.1048 101.992 40.1097C101.804 40.1048 101.617 40.1383 101.442 40.208C101.268 40.2777 101.109 40.3822 100.976 40.5151V40.5151Z" fill="#0170B9"/>
<path d="M109.871 42.8655C109.544 42.5133 109.362 42.05 109.364 41.5691C109.365 41.0883 109.549 40.626 109.879 40.2756C110.042 40.1096 110.238 39.9786 110.454 39.8907C110.67 39.8028 110.901 39.7598 111.134 39.7643C111.375 39.7548 111.615 39.7943 111.84 39.8804C112.065 39.9664 112.27 40.0972 112.443 40.2649C112.619 40.4607 112.748 40.6941 112.819 40.9473C112.891 41.2005 112.904 41.4667 112.856 41.7255H109.716C109.725 41.9053 109.77 42.0815 109.848 42.2437C109.926 42.4059 110.036 42.5508 110.171 42.6698C110.437 42.9029 110.781 43.0286 111.134 43.0223C111.379 43.0213 111.621 42.9733 111.847 42.8811C112.06 42.8033 112.248 42.6694 112.39 42.4935L112.637 42.6909C112.466 42.9116 112.24 43.083 111.981 43.1875C111.714 43.3018 111.425 43.3606 111.134 43.3605C110.901 43.3667 110.67 43.3261 110.453 43.2411C110.236 43.156 110.038 43.0283 109.871 42.8655V42.8655ZM112.546 41.4207C112.554 41.2383 112.524 41.0562 112.457 40.8862C112.39 40.7162 112.288 40.5622 112.158 40.4343C111.875 40.1888 111.508 40.0624 111.134 40.0818C110.78 40.0752 110.437 40.2037 110.175 40.4411C109.9 40.6953 109.735 41.0469 109.716 41.4207H112.546Z" fill="#0170B9"/>
<path d="M115.543 38.3701V43.304H115.198V38.3701H115.543Z" fill="#0170B9"/>
<path d="M125.491 43.3041H124.99L123.283 41.4364H121.935V43.3041H121.554V38.3702H123.727C123.937 38.3564 124.147 38.3861 124.344 38.4573C124.542 38.5285 124.722 38.6397 124.875 38.784C125.027 38.9283 125.148 39.1025 125.23 39.2957C125.311 39.4888 125.352 39.6968 125.35 39.9066C125.358 40.1043 125.325 40.3016 125.254 40.4864C125.183 40.6712 125.076 40.8397 124.937 40.9816C124.78 41.1318 124.593 41.2479 124.388 41.3225C124.184 41.397 123.966 41.4285 123.749 41.415L125.491 43.3041ZM121.935 41.0771H123.685C123.854 41.09 124.023 41.0685 124.183 41.0139C124.343 40.9593 124.491 40.8728 124.616 40.7596C124.832 40.5264 124.946 40.2173 124.934 39.9001C124.942 39.5952 124.831 39.2991 124.623 39.0753C124.509 38.9549 124.369 38.8611 124.214 38.8003C124.059 38.7394 123.893 38.7131 123.727 38.7231H121.935V41.0771Z" fill="#0170B9"/>
<path d="M127.882 42.8655C127.554 42.5133 127.373 42.05 127.374 41.5691C127.375 41.0883 127.559 40.6259 127.889 40.2756C128.053 40.1095 128.248 39.9786 128.464 39.8907C128.68 39.8028 128.912 39.7598 129.145 39.7643C129.386 39.7549 129.626 39.7943 129.851 39.8804C130.076 39.9664 130.281 40.0972 130.454 40.2649C130.63 40.4607 130.758 40.6942 130.83 40.9474C130.901 41.2006 130.914 41.4668 130.866 41.7255H127.727C127.736 41.9053 127.78 42.0815 127.859 42.2437C127.937 42.4059 128.047 42.5508 128.182 42.6698C128.448 42.903 128.791 43.0287 129.145 43.0223C129.389 43.0213 129.631 42.9733 129.857 42.8811C130.07 42.8034 130.258 42.6695 130.401 42.4935L130.648 42.6909C130.477 42.9116 130.25 43.083 129.991 43.1875C129.724 43.3015 129.437 43.3604 129.147 43.3605C128.913 43.367 128.681 43.3265 128.464 43.2414C128.247 43.1564 128.049 43.0285 127.882 42.8655V42.8655ZM130.556 41.4207C130.564 41.2383 130.534 41.0561 130.467 40.8861C130.4 40.7162 130.298 40.5622 130.168 40.4343C129.885 40.1888 129.519 40.0624 129.145 40.0818C128.791 40.0751 128.448 40.2037 128.185 40.4411C127.91 40.6953 127.746 41.0469 127.727 41.4207H130.556Z" fill="#0170B9"/>
<path d="M135.987 42.8377C135.822 43.0067 135.624 43.1401 135.406 43.2298C135.187 43.3195 134.953 43.3636 134.717 43.3593C134.482 43.3649 134.249 43.3238 134.03 43.2385C133.811 43.1531 133.612 43.0251 133.443 42.862C133.111 42.5099 132.926 42.0449 132.925 41.5614C132.924 41.0779 133.106 40.6119 133.436 40.2581C133.784 39.9353 134.242 39.7582 134.717 39.7633C135.191 39.7684 135.646 39.9552 135.987 40.2854L135.768 40.5038C135.631 40.3664 135.466 40.2586 135.286 40.1871C135.105 40.1155 134.911 40.0817 134.717 40.0877C134.527 40.0829 134.338 40.1156 134.16 40.184C133.983 40.2523 133.821 40.3549 133.683 40.486C133.413 40.779 133.263 41.1626 133.263 41.5609C133.263 41.9591 133.413 42.3428 133.683 42.6358C133.821 42.7668 133.983 42.8694 134.16 42.9378C134.338 43.0061 134.527 43.0388 134.717 43.034C134.91 43.0369 135.102 43.0003 135.28 42.9263C135.458 42.8523 135.62 42.7426 135.754 42.604L135.987 42.8377Z" fill="#0170B9"/>
<path d="M138.234 38.4854C138.286 38.4378 138.354 38.4114 138.425 38.4114C138.495 38.4114 138.563 38.4378 138.615 38.4854C138.643 38.5109 138.665 38.5419 138.68 38.5765C138.695 38.611 138.703 38.6484 138.703 38.6861C138.703 38.7239 138.695 38.7612 138.68 38.7958C138.665 38.8303 138.643 38.8614 138.615 38.8869C138.563 38.9347 138.495 38.9612 138.425 38.9612C138.354 38.9612 138.286 38.9347 138.234 38.8869C138.207 38.8614 138.184 38.8303 138.169 38.7958C138.154 38.7612 138.146 38.7239 138.146 38.6861C138.146 38.6484 138.154 38.611 138.169 38.5765C138.184 38.5419 138.207 38.5109 138.234 38.4854V38.4854ZM138.245 39.8068V43.304H138.59V39.8081L138.245 39.8068Z" fill="#0170B9"/>
<path d="M143.973 42.8376C143.808 43.0066 143.611 43.14 143.392 43.2297C143.174 43.3194 142.939 43.3635 142.703 43.3592C142.468 43.3648 142.235 43.3237 142.016 43.2384C141.798 43.153 141.598 43.025 141.43 42.8619C141.098 42.5099 140.912 42.0449 140.911 41.5614C140.91 41.0778 141.093 40.6119 141.423 40.258C141.771 39.9357 142.229 39.759 142.704 39.7643C143.178 39.7695 143.632 39.9563 143.973 40.2862L143.755 40.5047C143.617 40.3673 143.453 40.2595 143.272 40.1879C143.091 40.1164 142.898 40.0826 142.703 40.0886C142.513 40.0838 142.324 40.1165 142.147 40.1848C141.969 40.2532 141.807 40.3558 141.669 40.4868C141.4 40.78 141.25 41.1636 141.25 41.5617C141.25 41.9599 141.4 42.3435 141.669 42.6367C141.807 42.7677 141.969 42.8703 142.147 42.9387C142.324 43.007 142.513 43.0397 142.703 43.0349C142.896 43.0379 143.088 43.0012 143.266 42.9272C143.445 42.8533 143.606 42.7435 143.74 42.6048L143.973 42.8376Z" fill="#0170B9"/>
<path d="M146.626 38.3701V43.304H146.28V38.3701H146.626Z" fill="#0170B9"/>
<path d="M152.537 39.8208V43.304H152.192V42.5639C152.049 42.8138 151.841 43.02 151.59 43.1604C151.339 43.3007 151.054 43.3699 150.767 43.3605C150.495 43.3611 150.226 43.2998 149.981 43.1813C149.736 43.0628 149.522 42.8901 149.354 42.6765C149.186 42.4628 149.068 42.2137 149.011 41.9481C148.953 41.6825 148.957 41.4073 149.022 41.1433C149.087 40.8794 149.211 40.6337 149.385 40.4248C149.559 40.2159 149.778 40.0493 150.026 39.9376C150.274 39.826 150.545 39.7722 150.817 39.7803C151.088 39.7885 151.355 39.8584 151.596 39.9847C151.851 40.1194 152.059 40.3284 152.192 40.5839V39.8224L152.537 39.8208ZM149.751 40.5151C149.487 40.801 149.341 41.1752 149.341 41.5635C149.341 41.9519 149.487 42.3261 149.751 42.612C149.883 42.7459 150.041 42.8512 150.216 42.9216C150.391 42.9919 150.578 43.0257 150.767 43.021C151.014 43.0258 151.258 42.9701 151.479 42.8587C151.671 42.7643 151.834 42.6207 151.952 42.4425C152.062 42.269 152.143 42.0787 152.192 41.879C152.243 41.6743 152.243 41.4599 152.192 41.2552C152.143 41.0542 152.062 40.8626 151.952 40.6878C151.834 40.5098 151.671 40.3663 151.479 40.272C151.258 40.1606 151.014 40.1049 150.767 40.1097C150.579 40.1049 150.392 40.1383 150.217 40.208C150.042 40.2777 149.884 40.3822 149.751 40.5151V40.5151Z" fill="#0170B9"/>
<path d="M155.429 39.8141V43.8035C155.451 44.1098 155.384 44.4158 155.235 44.6844C155.149 44.7953 155.036 44.8821 154.907 44.9364C154.777 44.9908 154.636 45.0107 154.497 44.9944C154.277 44.9909 154.061 44.9328 153.869 44.8253L153.967 44.5293C154.127 44.6221 154.31 44.6707 154.496 44.6701C154.589 44.6832 154.683 44.6692 154.768 44.6298C154.853 44.5904 154.925 44.5273 154.976 44.4481C155.061 44.2445 155.1 44.0241 155.089 43.8035V39.8141H155.429ZM154.978 38.6511C154.976 38.6891 154.983 38.7269 154.999 38.7618C155.014 38.7966 155.037 38.8275 155.066 38.852C155.118 38.8995 155.186 38.9257 155.256 38.9257C155.327 38.9257 155.395 38.8995 155.447 38.852C155.475 38.8265 155.497 38.7955 155.512 38.7609C155.528 38.7264 155.535 38.689 155.535 38.6513C155.535 38.6135 155.528 38.5762 155.512 38.5416C155.497 38.507 155.475 38.476 155.447 38.4505C155.395 38.4027 155.327 38.3762 155.256 38.3762C155.186 38.3762 155.118 38.4027 155.066 38.4505C155.037 38.475 155.014 38.5058 154.998 38.5406C154.983 38.5754 154.976 38.6132 154.978 38.6511V38.6511Z" fill="#0170B9"/>
<path d="M158.258 42.8655C157.93 42.5134 157.749 42.0501 157.75 41.5692C157.751 41.0883 157.935 40.6259 158.265 40.2756C158.429 40.1096 158.624 39.9787 158.84 39.8908C159.056 39.8029 159.288 39.7598 159.521 39.7643C159.762 39.7549 160.002 39.7944 160.227 39.8804C160.452 39.9664 160.657 40.0972 160.83 40.2648C161.006 40.4607 161.134 40.6942 161.206 40.9474C161.277 41.2006 161.29 41.4668 161.242 41.7255H158.103C158.112 41.9053 158.157 42.0815 158.235 42.2437C158.313 42.4058 158.423 42.5507 158.558 42.6698C158.824 42.903 159.167 43.0287 159.521 43.0223C159.765 43.0213 160.007 42.9733 160.234 42.8811C160.447 42.8032 160.636 42.6689 160.779 42.4926L161.025 42.6899C160.855 42.9106 160.628 43.082 160.369 43.1866C160.102 43.3008 159.814 43.3596 159.523 43.3596C159.289 43.3661 159.057 43.3258 158.84 43.2409C158.623 43.156 158.425 43.0284 158.258 42.8655ZM160.932 41.4207C160.941 41.2383 160.91 41.0561 160.843 40.8862C160.777 40.7162 160.675 40.5622 160.544 40.4343C160.262 40.1888 159.895 40.0624 159.521 40.0818C159.167 40.0752 158.824 40.2037 158.561 40.4411C158.286 40.6953 158.122 41.0469 158.103 41.4207H160.932Z" fill="#0170B9"/>
<path d="M51.1145 32.56V8.36084H61.8837C67.0862 8.36084 70.6315 11.8035 70.6315 16.7679C70.6315 20.2769 68.7099 23.1567 65.6945 24.4479C67.7819 27.0626 70.0021 29.9758 71.9569 32.5577H65.6945C63.7063 30.0752 61.8837 27.6589 59.8958 25.0105H56.317V32.56H51.1145ZM61.8837 20.4778C63.5084 20.4778 65.4294 19.2859 65.4294 16.7702C65.4294 15.5127 64.9654 12.8974 61.8837 12.8974H56.317V20.4778H61.8837Z" fill="#0170B9"/>
<path d="M71.7593 23.5214C71.7593 16.0404 78.254 14.0542 81.6671 14.0542C86.339 14.0542 91.0112 17.2323 91.1769 23.091C91.1769 24.4813 91.0778 25.3752 91.0778 25.3752H76.6966C77.2932 28.3544 80.6731 28.6861 81.6681 28.6861C82.5565 28.7092 83.4386 28.5305 84.2478 28.1636C85.0571 27.7966 85.7724 27.251 86.3399 26.5678L90.1839 28.7851C89.4551 29.7784 87.0031 33.0221 81.6681 33.0221C78.1214 33.0215 71.7593 31.0018 71.7593 23.5214ZM76.8282 21.866H85.9406C85.7417 20.2105 84.1181 18.3902 81.633 18.3902C78.7843 18.3908 77.028 20.0125 76.8292 21.8666L76.8282 21.866Z" fill="#0170B9"/>
<path d="M116.131 12.4326C115.771 12.448 115.412 12.3904 115.074 12.2634C114.737 12.1365 114.43 11.9427 114.169 11.6937C113.909 11.4447 113.702 11.1458 113.561 10.8148C113.42 10.4838 113.347 10.1277 113.347 9.76781C113.347 9.40795 113.42 9.05183 113.561 8.72085C113.702 8.38988 113.909 8.09091 114.169 7.84195C114.43 7.59298 114.737 7.39917 115.074 7.27218C115.412 7.1452 115.771 7.08765 116.131 7.10302C116.485 7.09625 116.838 7.16018 117.167 7.29106C117.497 7.42193 117.797 7.61713 118.05 7.86525C118.303 8.11337 118.504 8.40943 118.642 8.73611C118.779 9.06278 118.85 9.41352 118.85 9.76781C118.85 10.1221 118.779 10.4729 118.642 10.7995C118.504 11.1262 118.303 11.4223 118.05 11.6704C117.797 11.9185 117.497 12.1137 117.167 12.2446C116.838 12.3755 116.485 12.4394 116.131 12.4326V12.4326ZM113.646 14.3854H118.617V32.56H113.646V14.3854Z" fill="#0170B9"/>
<path d="M124.582 12.4326C124.222 12.448 123.862 12.3904 123.525 12.2634C123.188 12.1365 122.88 11.9427 122.62 11.6937C122.36 11.4447 122.153 11.1458 122.012 10.8148C121.871 10.4838 121.798 10.1277 121.798 9.76781C121.798 9.40795 121.871 9.05183 122.012 8.72085C122.153 8.38988 122.36 8.09091 122.62 7.84195C122.88 7.59298 123.188 7.39917 123.525 7.27218C123.862 7.1452 124.222 7.08765 124.582 7.10302C124.936 7.09625 125.289 7.16018 125.618 7.29106C125.948 7.42193 126.248 7.61713 126.501 7.86525C126.754 8.11337 126.955 8.40943 127.093 8.73611C127.23 9.06278 127.301 9.41352 127.301 9.76781C127.301 10.1221 127.23 10.4729 127.093 10.7995C126.955 11.1262 126.754 11.4223 126.501 11.6704C126.248 11.9185 125.948 12.1137 125.618 12.2446C125.289 12.3755 124.936 12.4394 124.582 12.4326V12.4326ZM122.096 14.3854H127.068V32.56H122.096V14.3854Z" fill="#0170B9"/>
<path d="M150.229 7.53345H155.201V32.56H150.229V7.53345Z" fill="#0170B9"/>
<path d="M172.1 30.7378C171.338 31.7638 169.151 32.9558 166.566 32.9558C160.8 32.9558 157.42 28.6857 157.42 23.4554C157.42 18.2252 160.8 13.9551 166.566 13.9551C169.217 13.9551 171.172 15.0146 172.1 16.2393V14.3524H177.004V32.5601H172.1V30.7378ZM167.295 18.2914C164.147 18.2914 162.291 20.4763 162.291 23.4554C162.291 26.3356 164.246 28.5864 167.295 28.5864C170.376 28.5864 172.299 26.6332 172.299 23.4554C172.298 20.4432 170.376 18.2914 167.295 18.2914Z" fill="#0170B9"/>
<path d="M185.124 24.5148V32.5599H180.187V14.3522H185.124V16.7686C186.979 14.3191 190.061 13.988 191.353 14.0212V18.8541C190.16 18.7548 185.124 18.9865 185.124 24.5148Z" fill="#0170B9"/>
<path d="M107.216 26.003C106.056 27.8895 104.4 28.651 102.61 28.651C99.7274 28.651 97.6063 26.4993 97.6063 23.5201C97.6063 20.5741 99.694 18.3895 102.578 18.3895C103.353 18.3878 104.118 18.5725 104.807 18.928L103.102 20.1274L110.445 21.3258L110.54 14.9293L108.822 16.1235C107.034 14.749 104.833 14.0192 102.577 14.0529C97.1433 14.0529 92.6699 18.2899 92.6699 23.5201C92.6699 28.7504 97.1761 33.0201 102.611 33.0201C106.786 33.0201 109.668 31.2329 111.425 27.6581L107.216 26.003Z" fill="#0170B9"/>
<path d="M147.192 25.4512L141.097 26.6522L142.39 27.7279L142.33 27.7903C141.461 28.368 140.437 28.6685 139.393 28.6521C136.51 28.6521 134.389 26.5003 134.389 23.5211C134.389 20.5751 136.477 18.3905 139.361 18.3905C141.15 18.3905 142.74 19.2838 143.834 21.1045L148.308 19.3517C147.458 17.7243 146.17 16.3662 144.589 15.4305C143.009 14.4947 141.198 14.0184 139.361 14.0552C133.927 14.0552 129.453 18.2922 129.453 23.5224C129.453 28.7527 133.96 33.0225 139.396 33.0225C142.134 33.0225 144.312 32.2486 145.986 30.7117L147.177 31.7124L147.192 25.4512Z" fill="#0170B9"/>
<path d="M110.445 21.3272L110.54 14.9307L103.101 20.1288L110.445 21.3272Z" fill="#0170B9"/>
<path d="M147.174 31.7115L141.097 26.6527L147.192 25.4507L147.174 31.7115Z" fill="#0170B9"/>
<path d="M142.388 27.7285C141.517 28.3545 140.464 28.679 139.392 28.6526C138.546 28.6774 137.709 28.4788 136.964 28.0766C136.22 27.6745 135.596 27.0832 135.153 26.3625L131.293 29.0041C132.237 30.2574 133.46 31.2733 134.866 31.9707C136.272 32.6682 137.822 33.0281 139.392 33.0217C142.632 33.0217 144.545 31.9778 145.981 30.7109L146.229 30.4382L142.65 27.3682L142.388 27.7285Z" fill="#0170B9"/>
<path d="M104.806 18.9295C104.12 18.5657 103.354 18.3805 102.577 18.391C101.612 18.3629 100.661 18.6287 99.8503 19.1531C99.0398 19.6776 98.4081 20.4358 98.0391 21.3273L94.9656 17.4743C95.9096 16.3863 97.0795 15.5167 98.3939 14.9261C99.7084 14.3355 101.136 14.038 102.577 14.0543C106 14.0543 108.133 15.54 108.821 16.125L109.003 16.361L105.004 19.0824L104.806 18.9295Z" fill="#0170B9"/>
</svg>
