<svg width="144" height="145" viewBox="0 0 144 145" fill="none" xmlns="http://www.w3.org/2000/svg">
<g clip-path="url(#clip0_30_2008)">
<path d="M79.1379 5.78864L71.6795 13.1973V23.369L84.2767 10.8554C82.5174 8.99151 80.7894 7.29595 79.1379 5.78864Z" fill="white"/>
<path d="M77.4166 43.6664L95.8308 25.3744C94.4502 23.303 93.0232 21.3185 91.5745 19.431L71.6795 39.1935V43.2537H75.1888C75.9505 43.255 76.7056 43.3948 77.4166 43.6664Z" fill="white"/>
<path d="M85.6413 12.3266L71.6795 26.1953V36.3674L90.3304 17.8408C88.7732 15.8844 87.1998 14.0411 85.6413 12.3266Z" fill="white"/>
<path d="M71.8801 0L71.6799 0.198854V10.3709L77.6395 4.45201C75.8179 2.84668 73.8941 1.3596 71.8801 0V0Z" fill="white"/>
<path d="M81.452 49.4755V52.6572L100.728 33.5069C99.5346 31.2943 98.2681 29.151 96.9499 27.0879L79.2116 44.709C79.9137 45.292 80.4783 46.0211 80.8655 46.8448C81.2526 47.6684 81.4529 48.5665 81.452 49.4755Z" fill="white"/>
<path d="M86.7814 60.3608L104.909 42.3539C103.939 39.9624 102.863 37.6295 101.706 35.3642L81.4534 55.4816V57.2037C83.3477 58.0452 85.136 59.1048 86.7814 60.3608Z" fill="white"/>
<path d="M33.5755 81.3313C35.7912 87.2964 39.4303 92.6388 44.1808 96.9002V91.8659L33.5755 81.3313Z" fill="white"/>
<path d="M69.6673 0.198854L69.4671 0C67.4535 1.35947 65.5303 2.84656 63.7094 4.45201L69.668 10.3709L69.6673 0.198854Z" fill="white"/>
<path d="M107.771 81.3313L97.1658 91.8663V96.9006C101.916 92.6391 105.555 87.2966 107.771 81.3313Z" fill="white"/>
<path d="M110.01 63.2826C109.778 60.3023 109.337 57.3417 108.69 54.4224L94.0859 68.9288C95.3517 71.2944 96.2433 73.8395 96.7293 76.4746L110.01 63.2826Z" fill="white"/>
<path d="M93.0379 67.1434L108.147 52.1352C107.472 49.5126 106.655 46.9278 105.701 44.3922L88.3368 61.6411C90.1496 63.2532 91.7313 65.1045 93.0379 67.1434Z" fill="white"/>
<path d="M97.1658 89.0395L109.028 77.2548C109.802 74.1531 110.193 70.9693 110.192 67.7737C110.192 67.428 110.187 67.0833 110.178 66.7397C110.173 66.4809 110.162 66.2234 110.154 65.9648L97.0643 78.9686C97.1291 79.7182 97.1644 80.4759 97.1644 81.2425L97.1658 89.0395Z" fill="white"/>
<path d="M53.0097 61.6411L35.6451 44.3922C34.6911 46.9278 33.8748 49.5126 33.1998 52.1352L48.3086 67.1434C49.6151 65.1045 51.1969 63.2531 53.0097 61.6411Z" fill="white"/>
<path d="M62.1349 44.709L44.3956 27.0886C43.0774 29.1517 41.8109 31.295 40.6177 33.5076L59.8945 52.6559V49.4742C59.8939 48.5654 60.0943 47.6676 60.4814 46.8442C60.8686 46.0208 61.433 45.2919 62.1349 44.709Z" fill="white"/>
<path d="M32.657 54.422C32.01 57.3413 31.5687 60.3019 31.3364 63.2823L44.6155 76.4746C45.1015 73.8394 45.9931 71.2943 47.259 68.9287L32.657 54.422Z" fill="white"/>
<path d="M44.2822 78.9682L31.1926 65.9658C31.1846 66.224 31.1732 66.4819 31.1686 66.7407C31.1599 67.0845 31.1553 67.4292 31.1549 67.7747C31.1536 70.97 31.5442 74.1534 32.3183 77.2548L44.1808 89.0385V81.2424C44.1808 80.4759 44.2175 79.7182 44.2822 78.9682Z" fill="white"/>
<path d="M59.8945 55.4823L39.6422 35.3649C38.4847 37.6301 37.4091 39.963 36.4392 42.3546L54.5668 60.3615C56.2125 59.1055 58.0009 58.046 59.8955 57.2047L59.8945 55.4823Z" fill="white"/>
<path d="M69.6673 26.1953L55.7052 12.3266C54.1468 14.0411 52.5736 15.8844 51.0158 17.8398L69.6667 36.3664L69.6673 26.1953Z" fill="white"/>
<path d="M69.6673 13.1973L62.2086 5.78833C60.5571 7.29564 58.8295 8.9912 57.0705 10.8555L69.668 23.369L69.6673 13.1973Z" fill="white"/>
<path d="M69.6673 43.2537V39.1935L49.772 19.431C48.3233 21.3201 46.8963 23.303 45.5157 25.3744L63.9299 43.6664C64.6409 43.3948 65.396 43.255 66.1577 43.2537H69.6673Z" fill="white"/>
<path d="M31.2433 143.274L30.6854 142.036H27.6573L27.1068 143.274H26.6864L28.9605 138.237H29.3879L31.663 143.274H31.2433ZM30.5333 141.677L29.1714 138.611L27.8094 141.677H30.5333Z" fill="white"/>
<path d="M33.8868 144.993V139.718H34.2344V140.56C34.3774 140.288 34.5946 140.063 34.861 139.908C35.2533 139.721 35.6994 139.676 36.1215 139.782C36.5436 139.888 36.9148 140.138 37.1705 140.488C37.4262 140.838 37.5501 141.266 37.5206 141.697C37.4911 142.129 37.31 142.536 37.009 142.848C36.8351 143.012 36.6302 143.139 36.4064 143.223C36.1826 143.307 35.9442 143.346 35.7051 143.338C35.4025 143.341 35.1046 143.262 34.843 143.111C34.5778 142.955 34.3639 142.727 34.2271 142.452V144.993H33.8868ZM36.7561 142.606C36.8991 142.46 37.0097 142.285 37.0808 142.094C37.1519 141.903 37.182 141.699 37.1692 141.495C37.1826 141.292 37.1527 141.089 37.0815 140.899C37.0103 140.708 36.8994 140.535 36.7561 140.39C36.4707 140.13 36.0933 139.991 35.7058 140.005C35.5132 140 35.3215 140.035 35.1431 140.107C34.9648 140.18 34.8036 140.288 34.6698 140.426C34.4032 140.721 34.2561 141.104 34.2568 141.501C34.2575 141.897 34.4059 142.28 34.6735 142.574C34.8063 142.712 34.9668 142.821 35.1445 142.895C35.3223 142.968 35.5135 143.003 35.7058 142.999C35.8981 143.006 36.0899 142.974 36.2701 142.907C36.4502 142.84 36.6152 142.738 36.7555 142.607L36.7561 142.606Z" fill="white"/>
<path d="M40.1957 142.834C40.0201 142.662 39.8829 142.455 39.7931 142.226C39.7032 141.998 39.6627 141.753 39.6742 141.508C39.6638 141.262 39.7048 141.015 39.7945 140.785C39.8842 140.555 40.0208 140.345 40.1957 140.17C40.5466 139.841 41.0104 139.659 41.4924 139.659C41.9744 139.659 42.4382 139.841 42.7891 140.17C42.9641 140.345 43.1008 140.555 43.1906 140.785C43.2804 141.015 43.3213 141.262 43.3109 141.508C43.3224 141.753 43.2819 141.998 43.192 142.226C43.1021 142.455 42.9648 142.662 42.7891 142.834C42.4338 143.154 41.9717 143.331 41.4924 143.331C41.0131 143.331 40.551 143.154 40.1957 142.834ZM42.5429 142.582C42.6842 142.443 42.7946 142.275 42.8669 142.09C42.9392 141.906 42.972 141.708 42.9629 141.51C42.9713 141.308 42.938 141.107 42.8652 140.918C42.7923 140.729 42.6814 140.557 42.5392 140.412C42.2586 140.142 41.8832 139.991 41.4924 139.991C41.1016 139.991 40.7262 140.142 40.4456 140.412C40.3034 140.557 40.1925 140.729 40.1196 140.918C40.0468 141.107 40.0135 141.308 40.0219 141.51C40.013 141.708 40.0458 141.906 40.1181 142.09C40.1905 142.275 40.3007 142.442 40.4419 142.582C40.7296 142.842 41.1043 142.986 41.4929 142.986C41.8815 142.986 42.2563 142.842 42.5439 142.582H42.5429Z" fill="white"/>
<path d="M48.5482 139.718L46.2734 144.993H45.8964L46.6501 143.23L45.2154 139.717H45.5994L46.4335 141.818L46.8539 142.846L47.2667 141.809L48.1652 139.715L48.5482 139.718Z" fill="white"/>
<path d="M54.0607 139.718V143.274H53.7057V142.519C53.5594 142.774 53.3457 142.984 53.0878 143.128C52.8298 143.271 52.5374 143.342 52.242 143.332C51.9626 143.333 51.6868 143.27 51.4355 143.149C51.1841 143.028 50.9638 142.852 50.7911 142.633C50.6185 142.415 50.4982 142.161 50.4392 141.89C50.3802 141.619 50.3841 141.338 50.4507 141.068C50.5173 140.799 50.6447 140.548 50.8234 140.334C51.0021 140.121 51.2273 139.951 51.4819 139.837C51.7366 139.723 52.0141 139.668 52.2933 139.676C52.5725 139.685 52.8461 139.756 53.0934 139.885C53.3553 140.023 53.5688 140.236 53.7057 140.497V139.719L54.0607 139.718ZM51.199 140.427C50.9287 140.718 50.7786 141.101 50.7786 141.497C50.7786 141.894 50.9287 142.276 51.199 142.568C51.3349 142.704 51.4976 142.812 51.677 142.884C51.8563 142.956 52.0486 142.99 52.242 142.985C52.4958 142.99 52.7471 142.933 52.9737 142.82C53.1706 142.723 53.3381 142.577 53.4591 142.395C53.5724 142.218 53.6557 142.023 53.7057 141.819C53.7587 141.61 53.7587 141.391 53.7057 141.182C53.656 140.977 53.5727 140.781 53.4591 140.603C53.338 140.421 53.1705 140.275 52.9737 140.178C52.7471 140.065 52.4958 140.008 52.242 140.013C52.0489 140.008 51.8569 140.042 51.6776 140.113C51.4983 140.184 51.3355 140.291 51.199 140.427Z" fill="white"/>
<path d="M60.3329 142.827C59.9964 142.467 59.81 141.994 59.8114 141.503C59.8128 141.012 60.0018 140.54 60.3402 140.182C60.5082 140.013 60.7092 139.879 60.9309 139.789C61.1526 139.699 61.3904 139.656 61.6298 139.66C61.877 139.65 62.1235 139.691 62.3546 139.779C62.5856 139.866 62.7962 140 62.9737 140.171C63.1543 140.371 63.2865 140.609 63.36 140.868C63.4335 141.126 63.4464 141.398 63.3978 141.663H60.1737C60.1827 141.846 60.2287 142.026 60.309 142.192C60.3892 142.357 60.502 142.505 60.6409 142.627C60.9139 142.865 61.2665 142.993 61.6298 142.987C61.8807 142.986 62.1291 142.937 62.3615 142.842C62.58 142.763 62.7728 142.626 62.9193 142.447L63.1729 142.648C62.9976 142.874 62.7651 143.049 62.4993 143.155C62.2244 143.272 61.9286 143.332 61.6298 143.332C61.3906 143.338 61.1525 143.297 60.9297 143.21C60.7069 143.123 60.504 142.993 60.3329 142.827ZM63.0788 141.351C63.0874 141.165 63.0564 140.979 62.9878 140.806C62.9191 140.632 62.8144 140.475 62.6804 140.344C62.3904 140.093 62.0137 139.964 61.6298 139.984C61.2663 139.977 60.914 140.109 60.6445 140.351C60.3621 140.611 60.1932 140.97 60.1737 141.351H63.0788Z" fill="white"/>
<path d="M66.157 138.237V143.274H65.802V138.237H66.157Z" fill="white"/>
<path d="M76.3716 143.274H75.8571L74.1041 141.367H72.7202V143.274H72.3288V138.237H74.5602C74.7754 138.223 74.9911 138.253 75.1939 138.326C75.3967 138.398 75.5821 138.512 75.7386 138.659C75.8951 138.806 76.0192 138.984 76.1032 139.182C76.1871 139.379 76.2291 139.591 76.2265 139.805C76.2344 140.007 76.201 140.209 76.1282 140.397C76.0554 140.586 75.9448 140.758 75.8031 140.903C75.6413 141.056 75.4493 141.175 75.2392 141.251C75.0291 141.327 74.8055 141.359 74.5823 141.345L76.3716 143.274ZM72.7202 141H74.5169C74.69 141.014 74.8641 140.992 75.0285 140.936C75.1929 140.88 75.3441 140.792 75.4731 140.676C75.6944 140.438 75.8116 140.122 75.7991 139.799C75.8078 139.487 75.6934 139.185 75.4804 138.956C75.3626 138.834 75.2193 138.738 75.0603 138.676C74.9014 138.614 74.7307 138.587 74.5602 138.597H72.7202V141Z" fill="white"/>
<path d="M78.8262 142.827C78.4898 142.467 78.3034 141.994 78.3048 141.503C78.3061 141.012 78.4951 140.54 78.8336 140.182C79.0015 140.013 79.2025 139.879 79.4242 139.789C79.6459 139.699 79.8837 139.655 80.1231 139.66C80.3703 139.65 80.6169 139.691 80.8479 139.779C81.0789 139.866 81.2896 140 81.467 140.171C81.6476 140.371 81.7796 140.61 81.853 140.868C81.9265 141.127 81.9394 141.398 81.8908 141.663H78.6671C78.6761 141.846 78.7221 142.026 78.8023 142.192C78.8825 142.357 78.9954 142.505 79.1342 142.627C79.4072 142.865 79.7599 142.993 80.1231 142.987C80.3741 142.986 80.6225 142.937 80.8548 142.842C81.0734 142.763 81.2662 142.626 81.4127 142.447L81.6662 142.648C81.4908 142.874 81.2582 143.049 80.9923 143.155C80.7181 143.272 80.423 143.332 80.1248 143.332C79.8853 143.339 79.6469 143.297 79.4238 143.21C79.2007 143.123 78.9975 142.993 78.8262 142.827ZM81.5721 141.351C81.5807 141.165 81.5497 140.979 81.481 140.806C81.4123 140.632 81.3075 140.475 81.1734 140.344C80.8835 140.093 80.507 139.964 80.1231 139.984C79.7597 139.977 79.4073 140.109 79.1379 140.351C78.8555 140.611 78.6865 140.97 78.6671 141.351H81.5721Z" fill="white"/>
<path d="M87.1484 142.798C86.9792 142.971 86.7762 143.107 86.5519 143.198C86.3277 143.29 86.0869 143.335 85.8445 143.331C85.6035 143.336 85.3637 143.294 85.1392 143.207C84.9147 143.12 84.7098 142.989 84.5366 142.823C84.196 142.463 84.0057 141.989 84.0044 141.495C84.0031 141.001 84.1909 140.526 84.5296 140.164C84.8866 139.835 85.3573 139.654 85.8446 139.659C86.3319 139.664 86.7986 139.855 87.1484 140.192L86.9242 140.415C86.7829 140.275 86.6143 140.165 86.4286 140.092C86.2429 140.019 86.0441 139.984 85.8445 139.99C85.6493 139.985 85.4552 140.019 85.273 140.089C85.0909 140.158 84.9244 140.263 84.7832 140.397C84.506 140.696 84.3521 141.088 84.3521 141.494C84.3521 141.901 84.506 142.293 84.7832 142.592C84.9244 142.726 85.0909 142.83 85.273 142.9C85.4552 142.97 85.6493 143.003 85.8445 142.999C86.0428 143.002 86.2396 142.964 86.4228 142.889C86.6059 142.813 86.7716 142.701 86.9095 142.559L87.1484 142.798Z" fill="white"/>
<path d="M89.4565 138.354C89.5098 138.306 89.5795 138.279 89.6519 138.279C89.7242 138.279 89.7939 138.306 89.8472 138.354C89.8758 138.38 89.8987 138.412 89.9143 138.447C89.9299 138.483 89.938 138.521 89.938 138.559C89.938 138.598 89.9299 138.636 89.9143 138.671C89.8987 138.707 89.8758 138.738 89.8472 138.764C89.794 138.813 89.7243 138.84 89.6519 138.84C89.5795 138.84 89.5097 138.813 89.4565 138.764C89.4279 138.738 89.4051 138.707 89.3894 138.671C89.3738 138.636 89.3658 138.598 89.3658 138.559C89.3658 138.521 89.3738 138.483 89.3894 138.447C89.4051 138.412 89.4279 138.38 89.4565 138.354ZM89.4672 139.704V143.274H89.8219V139.705L89.4672 139.704Z" fill="white"/>
<path d="M95.3494 142.798C95.1801 142.971 94.9771 143.107 94.7528 143.198C94.5285 143.29 94.2876 143.335 94.0452 143.331C93.8042 143.336 93.5645 143.294 93.34 143.207C93.1155 143.12 92.9108 142.989 92.7376 142.823C92.3969 142.463 92.2065 141.989 92.2051 141.495C92.2038 141.001 92.3915 140.525 92.7303 140.164C93.0876 139.835 93.5584 139.655 94.0456 139.66C94.5328 139.665 94.9995 139.856 95.3494 140.193L95.1248 140.416C94.9836 140.276 94.8149 140.166 94.6293 140.093C94.4436 140.02 94.2448 139.985 94.0452 139.991C93.85 139.986 93.6558 140.02 93.4737 140.089C93.2916 140.159 93.1251 140.264 92.9838 140.398C92.7069 140.697 92.5531 141.089 92.5531 141.495C92.5531 141.902 92.7069 142.294 92.9838 142.593C93.1251 142.727 93.2916 142.831 93.4737 142.901C93.6558 142.971 93.85 143.004 94.0452 143C94.2435 143.003 94.4403 142.965 94.6235 142.89C94.8066 142.814 94.9723 142.702 95.1102 142.56L95.3494 142.798Z" fill="white"/>
<path d="M98.073 138.237V143.274H97.718V138.237H98.073Z" fill="white"/>
<path d="M104.143 139.718V143.274H103.788V142.519C103.642 142.774 103.428 142.984 103.171 143.128C102.913 143.271 102.62 143.342 102.325 143.332C102.046 143.333 101.77 143.27 101.518 143.149C101.267 143.028 101.047 142.852 100.874 142.633C100.701 142.415 100.581 142.161 100.522 141.89C100.463 141.619 100.467 141.338 100.534 141.068C100.6 140.799 100.728 140.548 100.906 140.334C101.085 140.121 101.31 139.951 101.565 139.837C101.82 139.723 102.097 139.668 102.376 139.676C102.655 139.685 102.929 139.756 103.176 139.885C103.438 140.023 103.652 140.236 103.788 140.497V139.719L104.143 139.718ZM101.282 140.427C101.011 140.719 100.862 141.101 100.862 141.497C100.862 141.894 101.011 142.276 101.282 142.568C101.418 142.704 101.58 142.812 101.76 142.884C101.939 142.956 102.132 142.99 102.325 142.985C102.579 142.99 102.83 142.933 103.057 142.82C103.253 142.723 103.421 142.577 103.542 142.395C103.655 142.217 103.738 142.023 103.788 141.819C103.841 141.61 103.841 141.391 103.788 141.182C103.738 140.977 103.655 140.781 103.542 140.603C103.421 140.421 103.253 140.275 103.057 140.178C102.83 140.065 102.579 140.008 102.325 140.013C102.132 140.008 101.94 140.042 101.76 140.113C101.581 140.184 101.418 140.291 101.282 140.427Z" fill="white"/>
<path d="M107.113 139.711V143.784C107.135 144.097 107.066 144.409 106.913 144.684C106.825 144.797 106.709 144.885 106.576 144.941C106.443 144.996 106.298 145.017 106.155 145C105.929 144.996 105.708 144.937 105.511 144.827L105.611 144.525C105.776 144.62 105.963 144.67 106.154 144.669C106.249 144.682 106.346 144.668 106.434 144.628C106.521 144.588 106.595 144.523 106.647 144.442C106.735 144.234 106.775 144.009 106.763 143.784V139.711H107.113ZM106.649 138.523C106.647 138.562 106.655 138.601 106.67 138.636C106.686 138.672 106.71 138.703 106.739 138.728C106.793 138.777 106.863 138.804 106.935 138.804C107.007 138.804 107.077 138.777 107.131 138.728C107.159 138.702 107.182 138.671 107.198 138.635C107.213 138.6 107.222 138.562 107.222 138.524C107.222 138.485 107.213 138.447 107.198 138.412C107.182 138.376 107.159 138.345 107.131 138.319C107.077 138.27 107.008 138.243 106.935 138.243C106.863 138.243 106.793 138.27 106.739 138.319C106.71 138.344 106.686 138.375 106.67 138.41C106.655 138.446 106.647 138.485 106.649 138.523Z" fill="white"/>
<path d="M110.017 142.827C109.681 142.467 109.494 141.994 109.496 141.503C109.497 141.012 109.686 140.54 110.024 140.182C110.192 140.013 110.393 139.879 110.615 139.789C110.837 139.699 111.075 139.656 111.314 139.66C111.561 139.65 111.808 139.691 112.039 139.779C112.27 139.866 112.481 140 112.658 140.171C112.839 140.371 112.971 140.61 113.044 140.868C113.118 141.127 113.13 141.398 113.082 141.663H109.858C109.867 141.846 109.913 142.026 109.993 142.192C110.074 142.357 110.186 142.505 110.325 142.627C110.598 142.865 110.951 142.993 111.314 142.987C111.565 142.986 111.814 142.937 112.046 142.842C112.265 142.763 112.459 142.626 112.606 142.446L112.859 142.647C112.684 142.873 112.451 143.048 112.185 143.154C111.91 143.271 111.615 143.331 111.316 143.331C111.076 143.338 110.838 143.296 110.615 143.21C110.392 143.123 110.189 142.993 110.017 142.827ZM112.763 141.351C112.772 141.165 112.741 140.979 112.672 140.806C112.603 140.632 112.499 140.475 112.365 140.344C112.075 140.093 111.698 139.964 111.314 139.984C110.951 139.977 110.598 140.109 110.329 140.351C110.046 140.611 109.877 140.97 109.858 141.351H112.763Z" fill="white"/>
<path d="M0 132.304V107.596H11.058C16.4 107.596 20.0405 111.111 20.0405 116.18C20.0405 119.763 18.0673 122.703 14.971 124.022C17.1144 126.691 19.3942 129.666 21.4014 132.302H14.971C12.9295 129.767 11.058 127.3 9.01679 124.596H5.34201V132.304H0ZM11.058 119.968C12.7263 119.968 14.6988 118.751 14.6988 116.182C14.6988 114.899 14.2223 112.228 11.058 112.228H5.34201V119.968H11.058Z" fill="white"/>
<path d="M21.1985 123.076C21.1985 115.437 27.8675 113.409 31.3721 113.409C36.1692 113.409 40.9667 116.654 41.1369 122.636C41.1369 124.056 41.0351 124.968 41.0351 124.968H26.2683C26.8809 128.01 30.3515 128.349 31.3731 128.349C32.2853 128.373 33.191 128.19 34.022 127.815C34.853 127.441 35.5875 126.884 36.1702 126.186L40.1173 128.45C39.3689 129.464 36.8512 132.776 31.3731 132.776C27.7313 132.775 21.1985 130.713 21.1985 123.076ZM26.4034 121.385H35.7602C35.556 119.695 33.8888 117.837 31.337 117.837C28.412 117.837 26.6086 119.493 26.4044 121.386L26.4034 121.385Z" fill="white"/>
<path d="M66.7599 111.754C66.3904 111.769 66.0215 111.711 65.6754 111.581C65.3293 111.451 65.0132 111.253 64.7461 110.999C64.479 110.745 64.2665 110.44 64.1213 110.102C63.9761 109.764 63.9012 109.4 63.9012 109.033C63.9012 108.665 63.9761 108.302 64.1213 107.964C64.2665 107.626 64.479 107.321 64.7461 107.066C65.0132 106.812 65.3293 106.614 65.6754 106.485C66.0215 106.355 66.3904 106.296 66.7599 106.312C67.124 106.305 67.4859 106.37 67.8243 106.504C68.1627 106.638 68.4709 106.837 68.7309 107.09C68.9908 107.344 69.1973 107.646 69.3383 107.979C69.4792 108.313 69.5519 108.671 69.5519 109.033C69.5519 109.395 69.4792 109.753 69.3383 110.086C69.1973 110.42 68.9908 110.722 68.7309 110.975C68.4709 111.229 68.1627 111.428 67.8243 111.562C67.4859 111.695 67.124 111.76 66.7599 111.754ZM64.2082 113.747H69.313V132.304H64.2082V113.747Z" fill="white"/>
<path d="M75.4374 111.754C75.0678 111.769 74.6989 111.711 74.3528 111.581C74.0067 111.451 73.6906 111.253 73.4236 110.999C73.1565 110.745 72.9439 110.44 72.7987 110.102C72.6536 109.764 72.5787 109.4 72.5787 109.033C72.5787 108.665 72.6536 108.302 72.7987 107.964C72.9439 107.626 73.1565 107.321 73.4236 107.066C73.6906 106.812 74.0067 106.614 74.3528 106.485C74.6989 106.355 75.0678 106.296 75.4374 106.312C75.8015 106.305 76.1633 106.37 76.5017 106.504C76.8402 106.638 77.1484 106.837 77.4083 107.09C77.6683 107.344 77.8748 107.646 78.0157 107.979C78.1567 108.313 78.2293 108.671 78.2293 109.033C78.2293 109.395 78.1567 109.753 78.0157 110.086C77.8748 110.42 77.6683 110.722 77.4083 110.975C77.1484 111.229 76.8402 111.428 76.5017 111.562C76.1633 111.695 75.8015 111.76 75.4374 111.754ZM72.8853 113.747H77.9901V132.304H72.8853V113.747Z" fill="white"/>
<path d="M101.773 106.751H106.878V132.304H101.773V106.751Z" fill="white"/>
<path d="M124.23 130.444C123.447 131.491 121.202 132.708 118.547 132.708C112.628 132.708 109.157 128.348 109.157 123.008C109.157 117.668 112.627 113.308 118.547 113.308C121.27 113.308 123.277 114.39 124.23 115.64V113.714H129.266V132.304H124.23V130.444ZM119.296 117.735C116.064 117.735 114.158 119.966 114.158 123.008C114.158 125.949 116.165 128.247 119.296 128.247C122.46 128.247 124.434 126.253 124.434 123.008C124.434 119.932 122.46 117.735 119.296 117.735Z" fill="white"/>
<path d="M137.603 124.09V132.304H132.534V113.714H137.603V116.181C139.508 113.68 142.673 113.342 144 113.376V118.31C142.775 118.209 137.603 118.445 137.603 124.09Z" fill="white"/>
<path d="M57.6063 125.609C56.4156 127.536 54.7143 128.313 52.8769 128.313C49.9168 128.313 47.7388 126.116 47.7388 123.074C47.7388 120.066 49.8824 117.836 52.8435 117.836C53.6399 117.834 54.4251 118.023 55.1327 118.386L53.3814 119.61L60.9218 120.834L61.0192 114.303L59.2549 115.522C57.4192 114.119 55.1594 113.374 52.8432 113.408C47.2633 113.408 42.67 117.734 42.67 123.074C42.67 128.415 47.297 132.774 52.8772 132.774C57.1643 132.774 60.1244 130.949 61.9277 127.299L57.6063 125.609Z" fill="white"/>
<path d="M98.6542 125.046L92.396 126.272L93.7229 127.371L93.6618 127.434C92.7695 128.024 91.718 128.331 90.6463 128.314C87.6859 128.314 85.5082 126.117 85.5082 123.075C85.5082 120.067 87.6518 117.837 90.613 117.837C92.4503 117.837 94.0829 118.749 95.2063 120.608L99.7996 118.818C98.927 117.157 97.6047 115.77 95.9817 114.815C94.3586 113.859 92.4992 113.373 90.613 113.41C85.0331 113.41 80.4394 117.736 80.4394 123.077C80.4394 128.417 85.0671 132.776 90.649 132.776C93.4603 132.776 95.697 131.986 97.4153 130.417L98.6385 131.439L98.6542 125.046Z" fill="white"/>
<path d="M60.9214 120.835L61.0189 114.304L53.3807 119.612L60.9214 120.835Z" fill="white"/>
<path d="M98.6358 131.438L92.396 126.273L98.6542 125.045L98.6358 131.438Z" fill="white"/>
<path d="M93.7212 127.371C92.8266 128.01 91.7463 128.341 90.6446 128.315C89.7763 128.34 88.9165 128.137 88.1524 127.726C87.3883 127.316 86.7468 126.712 86.2929 125.976L82.3289 128.673C83.2978 129.953 84.5541 130.99 85.9978 131.702C87.4416 132.415 89.0327 132.782 90.6446 132.775C93.9721 132.775 95.9366 131.71 97.411 130.416L97.6659 130.138L93.9901 127.003L93.7212 127.371Z" fill="white"/>
<path d="M55.132 118.387C54.4276 118.016 53.6403 117.827 52.8429 117.837C51.8517 117.809 50.8752 118.08 50.043 118.615C49.2107 119.151 48.5621 119.925 48.1832 120.835L45.0272 116.901C45.9965 115.79 47.1978 114.903 48.5475 114.299C49.8972 113.696 51.363 113.393 52.8429 113.409C56.3572 113.409 58.5482 114.926 59.2546 115.524L59.4411 115.765L55.3352 118.543L55.132 118.387Z" fill="white"/>
</g>
<defs>
<clipPath id="clip0_30_2008">
<rect width="144" height="145" fill="white"/>
</clipPath>
</defs>
</svg>
