<svg width="26" height="30" viewBox="0 0 26 30" fill="none" xmlns="http://www.w3.org/2000/svg">
<path d="M15.1532 3.25109H10.2505C9.81943 3.25109 9.40596 3.07983 9.10111 2.77498C8.79626 2.47013 8.625 2.05667 8.625 1.62555C8.625 1.19442 8.79626 0.780962 9.10111 0.476112C9.40596 0.171263 9.81943 0 10.2505 0H15.1532C15.5843 0 15.9978 0.171263 16.3026 0.476112C16.6075 0.780962 16.7787 1.19442 16.7787 1.62555C16.7787 2.05667 16.6075 2.47013 16.3026 2.77498C15.9978 3.07983 15.5843 3.25109 15.1532 3.25109Z" fill="#32AC5E"/>
<path d="M20.7249 9.93749H4.68023C4.24911 9.93749 3.83565 9.76623 3.5308 9.46138C3.22595 9.15653 3.05469 8.74307 3.05469 8.31195C3.05469 7.88083 3.22595 7.46736 3.5308 7.16251C3.83565 6.85766 4.24911 6.6864 4.68023 6.6864H20.7249C21.156 6.6864 21.5695 6.85766 21.8744 7.16251C22.1792 7.46736 22.3505 7.88083 22.3505 8.31195C22.3505 8.74307 22.1792 9.15653 21.8744 9.46138C21.5695 9.76623 21.156 9.93749 20.7249 9.93749Z" fill="#32AC5E"/>
<path d="M23.594 16.6255H1.81109C1.37997 16.6255 0.966507 16.4542 0.661658 16.1494C0.356809 15.8445 0.185547 15.4311 0.185547 14.9999C0.185547 14.5688 0.356809 14.1553 0.661658 13.8505C0.966507 13.5457 1.37997 13.3744 1.81109 13.3744H23.5934C24.0245 13.3744 24.438 13.5457 24.7428 13.8505C25.0477 14.1553 25.219 14.5688 25.219 14.9999C25.219 15.4311 25.0477 15.8445 24.7428 16.1494C24.438 16.4542 24.0245 16.6255 23.5934 16.6255H23.594Z" fill="#32AC5E"/>
<path d="M23.7801 23.3125H1.62555C1.19442 23.3125 0.780961 23.1412 0.476112 22.8364C0.171262 22.5315 0 22.1181 0 21.6869C0 21.2558 0.171262 20.8424 0.476112 20.5375C0.780961 20.2327 1.19442 20.0614 1.62555 20.0614H23.7801C24.2112 20.0614 24.6247 20.2327 24.9296 20.5375C25.2344 20.8424 25.4057 21.2558 25.4057 21.6869C25.4057 22.1181 25.2344 22.5315 24.9296 22.8364C24.6247 23.1412 24.2112 23.3125 23.7801 23.3125Z" fill="#32AC5E"/>
<path d="M19.2668 30H6.13727C5.70614 30 5.29268 29.8287 4.98783 29.5239C4.68298 29.219 4.51172 28.8056 4.51172 28.3744C4.51172 27.9433 4.68298 27.5299 4.98783 27.225C5.29268 26.9202 5.70614 26.7489 6.13727 26.7489H19.2668C19.6979 26.7489 20.1114 26.9202 20.4162 27.225C20.7211 27.5299 20.8923 27.9433 20.8923 28.3744C20.8923 28.8056 20.7211 29.219 20.4162 29.5239C20.1114 29.8287 19.6979 30 19.2668 30Z" fill="#32AC5E"/>
</svg>
