<svg width="499" height="929" viewBox="0 0 499 929" fill="none" xmlns="http://www.w3.org/2000/svg">
<g opacity="0.1">
<path d="M152.553 203.053L265.878 94.4743C250.049 78.3012 234.507 63.589 219.656 50.5073L152.553 114.794V203.053Z" fill="#A9CF46"/>
<path d="M152.553 428.62L369.818 220.454C357.395 202.481 344.561 185.261 331.529 168.884L152.553 340.361V428.62Z" fill="#A9CF46"/>
<path d="M152.553 315.839L320.333 155.086C306.32 138.119 292.168 122.124 278.145 107.248L152.553 227.577V315.839Z" fill="#A9CF46"/>
<path d="M152.553 90.27L206.155 38.9124C189.773 24.9828 172.471 12.0795 154.357 0.282715L152.556 2.00815L152.553 90.27Z" fill="#A9CF46"/>
<path d="M152.553 541.406L413.879 291.019C403.146 271.821 391.753 253.223 379.891 235.322L152.553 453.138V541.406Z" fill="#A9CF46"/>
<path d="M152.553 654.186L451.475 367.784C442.75 347.032 433.077 326.79 422.662 307.135L152.553 565.939V654.186Z" fill="#A9CF46"/>
<path d="M20.7319 908.107L-190.225 705.986C-172.384 752.276 -144.289 794.312 -107.872 829.204C-71.4551 864.095 -27.5808 891.014 20.7319 908.107Z" fill="#A9CF46"/>
<path d="M134.453 2.00815L132.653 0.282715C114.536 12.0791 97.2315 24.9824 80.8477 38.9124L134.453 90.27V2.00815Z" fill="#A9CF46"/>
<path d="M477.23 705.986L266.273 908.11C314.585 891.015 358.459 864.095 394.875 829.203C431.292 794.311 459.388 752.275 477.23 705.986Z" fill="#A9CF46"/>
<path d="M152.553 879.755L497.374 549.38C495.283 523.52 491.313 497.831 485.494 472.5L152.553 791.496V879.755Z" fill="#A9CF46"/>
<path d="M152.553 766.972L480.611 452.655C474.537 429.899 467.194 407.472 458.613 385.469L152.553 678.71V766.972Z" fill="#A9CF46"/>
<path d="M152.553 928.855C178.458 928.241 204.215 924.915 229.366 918.937L488.537 670.615C495.5 643.702 499.014 616.076 499 588.349C499 585.349 498.959 582.358 498.877 579.377C498.835 577.131 498.736 574.896 498.664 572.653L152.553 904.279V928.855Z" fill="#A9CF46"/>
<path d="M134.454 678.71L-171.606 385.469C-180.189 407.47 -187.532 429.896 -193.604 452.652L134.454 766.969V678.71Z" fill="#A9CF46"/>
<path d="M134.453 453.144L-92.8886 235.328C-104.75 253.229 -116.141 271.826 -126.877 291.025L134.453 541.406V453.144Z" fill="#A9CF46"/>
<path d="M134.454 791.496L-198.493 472.497C-204.313 497.828 -208.281 523.517 -210.367 549.377L134.454 879.755V791.496Z" fill="#A9CF46"/>
<path d="M134.454 928.855V904.274L-211.661 572.662C-211.733 574.902 -211.835 577.139 -211.877 579.385C-211.959 582.368 -212 585.363 -212 588.369C-212.01 616.09 -208.497 643.708 -201.537 670.615L57.6407 918.934C82.7911 924.913 108.548 928.24 134.454 928.855Z" fill="#A9CF46"/>
<path d="M134.453 565.938L-135.659 307.123C-146.074 326.779 -155.747 347.021 -164.473 367.772L134.453 654.174V565.938Z" fill="#A9CF46"/>
<path d="M134.454 227.577L8.85235 107.24C-5.16739 122.116 -19.3222 138.111 -33.3359 155.077L134.445 315.831L134.454 227.577Z" fill="#A9CF46"/>
<path d="M134.454 114.794L67.357 50.5073C52.4998 63.5861 36.9554 78.2984 21.1348 94.4743L134.463 203.053L134.454 114.794Z" fill="#A9CF46"/>
<path d="M134.453 340.361L-44.5201 168.884C-57.5524 185.275 -70.3895 202.481 -82.8125 220.454L134.456 428.62L134.453 340.361Z" fill="#A9CF46"/>
</g>
</svg>
