<svg width="66" height="91" viewBox="0 0 66 91" fill="none" xmlns="http://www.w3.org/2000/svg">
<path d="M65.9858 75.3043C65.6556 59.08 54.623 44.2201 44.6806 34.9283C47.9292 32.4763 50.3255 29.0646 51.5309 25.1755C52.7362 21.2863 52.6896 17.1165 51.3976 13.2553C50.1055 9.39416 47.6335 6.03699 44.3308 3.65838C41.0282 1.27976 37.062 0 32.9929 0C28.9238 0 24.9576 1.27976 21.655 3.65838C18.3523 6.03699 15.8803 9.39416 14.5882 13.2553C13.2962 17.1165 13.2496 21.2863 14.4549 25.1755C15.6602 29.0646 18.0566 32.4763 21.3052 34.9283C11.3628 44.2201 0.355087 59.08 0 75.3043C0 75.553 0 75.8053 0 76.0576C0 91.8377 14.7752 90.9921 32.9982 90.9921C51.2213 90.9921 66 91.8306 66 76.0505C66 75.8053 65.9929 75.553 65.9858 75.3043Z" fill="#0170B9"/>
</svg>
