<svg width="916" height="916" viewBox="0 0 916 916" fill="none" xmlns="http://www.w3.org/2000/svg">
<path d="M458 0C367.416 0 278.867 26.8612 203.549 77.1869C128.231 127.513 69.5283 199.042 34.8634 282.731C0.198444 366.419 -8.87148 458.508 8.80055 547.351C26.4726 636.195 70.0928 717.802 134.145 781.855C198.198 845.907 279.805 889.527 368.649 907.199C457.492 924.872 549.581 915.802 633.269 881.137C716.958 846.472 788.487 787.769 838.813 712.451C889.139 637.133 916 548.584 916 458C916 336.531 867.747 220.037 781.855 134.145C695.963 48.2534 579.469 0 458 0V0ZM458 815.388C444.503 815.388 431.309 811.386 420.087 803.888C408.865 796.389 400.118 785.731 394.953 773.261C389.788 760.792 388.436 747.071 391.069 733.833C393.703 720.595 400.202 708.436 409.746 698.892C419.29 689.348 431.449 682.849 444.687 680.216C457.924 677.583 471.646 678.934 484.115 684.099C496.585 689.264 507.243 698.011 514.741 709.233C522.24 720.456 526.242 733.649 526.242 747.146C526.242 765.245 519.052 782.603 506.254 795.401C493.457 808.199 476.099 815.388 458 815.388ZM579.153 473.126C578.664 473.479 578.176 473.819 577.687 474.16C528.272 511.035 522.312 579.122 522.256 579.816C522.316 588.683 520.547 597.468 517.059 605.622C513.571 613.775 508.439 621.121 501.984 627.202C495.529 633.283 487.889 637.967 479.542 640.962C471.195 643.956 462.32 645.198 453.472 644.608C444.624 644.019 435.992 641.611 428.116 637.535C420.24 633.459 413.289 627.803 407.698 620.919C402.107 614.036 397.995 606.074 395.62 597.53C393.244 588.986 392.656 580.044 393.893 571.262H393.713C394.041 566.001 402.916 441.642 503.435 368.876C503.8 368.616 504.159 368.356 504.524 368.108C514.07 360.955 521.808 351.666 527.119 340.985C532.431 330.304 535.168 318.528 535.111 306.6C535.111 286.149 526.987 266.535 512.526 252.074C498.065 237.613 478.451 229.489 458 229.489C437.549 229.489 417.935 237.613 403.474 252.074C389.013 266.535 380.889 286.149 380.889 306.6C380.972 315.112 379.368 323.556 376.168 331.445C372.969 339.333 368.237 346.509 362.247 352.557C356.258 358.606 349.129 363.408 341.272 366.684C333.416 369.961 324.988 371.648 316.475 371.648C307.963 371.648 299.534 369.961 291.678 366.684C283.821 363.408 276.692 358.606 270.703 352.557C264.713 346.509 259.982 339.333 256.782 331.445C253.582 323.556 251.978 315.112 252.061 306.6C252.056 271.368 261.09 236.724 278.298 205.981C295.507 175.238 320.315 149.424 350.35 131.007C380.385 112.59 414.643 102.187 449.847 100.792C485.052 99.3976 520.025 107.058 551.423 123.041C582.821 139.023 609.594 162.794 629.181 192.079C648.768 221.365 660.514 255.185 663.296 290.307C666.078 325.429 659.803 360.677 645.072 392.681C630.34 424.685 607.643 452.375 579.153 473.102V473.126Z" fill="white"/>
<path d="M522.225 579.266C522.225 579.46 522.259 579.648 522.259 579.842V579.266H522.225Z" fill="white"/>
</svg>
