<svg width="101" height="119" viewBox="0 0 101 119" fill="none" xmlns="http://www.w3.org/2000/svg">
<path d="M61.0413 7.13477L51.5532 16.1834V28.6066L67.5786 13.3231C65.3405 11.0466 63.1423 8.97573 61.0413 7.13477Z" fill="white"/>
<path d="M58.8516 53.3969L82.2772 31.0559C80.5208 28.526 78.7055 26.1021 76.8625 23.7969L51.5532 47.9339V52.8929H56.0175C56.9866 52.8944 57.9471 53.0652 58.8516 53.3969Z" fill="white"/>
<path d="M69.3146 15.12L51.5532 32.0587V44.4824L75.2798 21.8548C73.2989 19.4654 71.2972 17.214 69.3146 15.12Z" fill="white"/>
<path d="M51.8085 0.0646973L51.5538 0.307569V12.7313L59.1353 5.50219C56.818 3.54151 54.3707 1.72525 51.8085 0.0646973V0.0646973Z" fill="white"/>
<path d="M63.9852 60.4921V64.378L88.5068 40.9887C86.9889 38.2863 85.3777 35.6686 83.7008 33.1488L61.1351 54.6705C62.0283 55.3825 62.7466 56.273 63.2391 57.279C63.7316 58.285 63.9863 59.3819 63.9852 60.4921Z" fill="white"/>
<path d="M70.765 73.7869L93.8256 51.794C92.5921 48.8731 91.2237 46.0238 89.7509 43.2571L63.987 67.8276V69.9309C66.3969 70.9586 68.6718 72.2528 70.765 73.7869Z" fill="white"/>
<path d="M3.07941 99.3992C5.89811 106.685 10.5276 113.21 16.5709 118.414V112.266L3.07941 99.3992Z" fill="white"/>
<path d="M48.9935 0.307569L48.7389 0.0646973C46.1772 1.72509 43.7306 3.54136 41.4142 5.50219L48.9944 12.7313L48.9935 0.307569Z" fill="white"/>
<path d="M97.467 99.3992L83.9755 112.266V118.415C90.0189 113.21 94.6484 106.685 97.467 99.3992Z" fill="white"/>
<path d="M100.315 77.3555C100.02 73.7154 99.4585 70.0995 98.6354 66.5339L80.0574 84.2514C81.6677 87.1407 82.8019 90.2492 83.4202 93.4676L100.315 77.3555Z" fill="white"/>
<path d="M78.7241 82.0706L97.9447 63.7402C97.086 60.5371 96.0476 57.3802 94.834 54.2832L72.7437 75.3503C75.0497 77.3193 77.062 79.5804 78.7241 82.0706Z" fill="white"/>
<path d="M83.9755 108.814L99.0663 94.4204C100.051 90.6322 100.548 86.7436 100.546 82.8407C100.546 82.4183 100.541 81.9974 100.529 81.5777C100.523 81.2616 100.509 80.9471 100.498 80.6313L83.8465 96.5135C83.9288 97.4292 83.9738 98.3545 83.9738 99.2908L83.9755 108.814Z" fill="white"/>
<path d="M27.8025 75.3503L5.71215 54.2832C4.49851 57.3802 3.46009 60.5371 2.60138 63.7402L21.822 82.0706C23.4841 79.5803 25.4963 77.3192 27.8025 75.3503Z" fill="white"/>
<path d="M39.4111 54.6703L16.8441 33.1494C15.1671 35.6692 13.5559 38.287 12.0381 40.9893L36.5609 64.3762V60.4903C36.5602 59.3803 36.8151 58.2838 37.3076 57.2781C37.8001 56.2724 38.5181 55.3822 39.4111 54.6703Z" fill="white"/>
<path d="M1.91079 66.5334C1.08773 70.099 0.526386 73.715 0.230835 77.355L17.1238 93.4675C17.7421 90.249 18.8763 87.1406 20.4867 84.2513L1.91079 66.5334Z" fill="white"/>
<path d="M16.6999 96.5131L0.0479662 80.6326C0.0377795 80.9479 0.0233489 81.2628 0.0174067 81.579C0.00637109 81.9989 0.000570168 82.4198 4.23951e-06 82.8419C-0.00167472 86.7444 0.495337 90.6326 1.48005 94.4204L16.5708 108.813V99.2908C16.5708 98.3545 16.6175 97.4292 16.6999 96.5131Z" fill="white"/>
<path d="M36.5607 67.8283L10.7969 43.2578C9.32445 46.0245 7.95603 48.8738 6.72217 51.7947L29.7832 73.7876C31.8767 72.2536 34.1519 70.9596 36.562 69.932L36.5607 67.8283Z" fill="white"/>
<path d="M48.9934 32.0587L31.2316 15.12C29.249 17.214 27.2477 19.4654 25.266 21.8536L48.9925 44.4811L48.9934 32.0587Z" fill="white"/>
<path d="M48.9935 16.1833L39.505 7.13428C37.404 8.97524 35.2062 11.0461 32.9685 13.3231L48.9943 28.6066L48.9935 16.1833Z" fill="white"/>
<path d="M48.9935 52.8929V47.9339L23.6838 23.7969C21.8408 26.1042 20.0255 28.526 18.2691 31.0559L41.6947 53.3969C42.5992 53.0652 43.5597 52.8944 44.5288 52.8929H48.9935Z" fill="white"/>
</svg>
