<svg width="11" height="15" viewBox="0 0 11 15" fill="none" xmlns="http://www.w3.org/2000/svg">
<path d="M10.8842 12.4128C10.8297 9.73846 9.00993 7.28903 7.36995 5.75741C7.9058 5.35324 8.30107 4.79087 8.49989 4.1498C8.69871 3.50874 8.69101 2.8214 8.4779 2.18494C8.26478 1.54849 7.85702 0.995109 7.31226 0.603029C6.7675 0.210949 6.11328 0 5.4421 0C4.77091 0 4.11669 0.210949 3.57193 0.603029C3.02717 0.995109 2.61941 1.54849 2.40629 2.18494C2.19318 2.8214 2.18548 3.50874 2.3843 4.1498C2.58312 4.79087 2.97839 5.35324 3.51424 5.75741C1.87426 7.28903 0.0585707 9.73846 0 12.4128C0 12.4538 0 12.4954 0 12.537C0 15.1381 2.43713 14.9987 5.44297 14.9987C8.44882 14.9987 10.8865 15.1369 10.8865 12.5358C10.8865 12.4954 10.8854 12.4538 10.8842 12.4128Z" fill="#A9CF46"/>
</svg>
